<svg version="1.1" id="Capa_1" xmlns="http://www.w3.org/2000/svg" xmlns:xlink="http://www.w3.org/1999/xlink" x="0" y="0" viewBox="0 0 255.1 216.9" xml:space="preserve"><style>.st1{fill:none;stroke:#9fffff;stroke-miterlimit:10}.st7{fill:#00948c}.st10{fill:#0fd}.st11{fill:#00d8d2}.st12{fill:#d9ecff}.st13{fill:#b4d5ff}.st14{fill:#002c3d}.st16{fill:#f9ffff}.st18{fill:#fff}.st20{fill:#004c4a}.st23,.st25{fill:#5fffff}.st25{opacity:.1;enable-background:new}.st27{fill:#f9e859}.st30{fill:#1a1940}.st31{fill:#ff4c86}.st35{fill:#00dcad}</style><g id="Grupo_2034" transform="translate(-197.705 -584.808)"><g id="Grupo_2048"><circle id="Elipse_510" cx="390.4" cy="739.3" r="62.4" fill="#00f0bf"/><circle id="Elipse_511" class="st1" cx="390.4" cy="739.3" r="57.7"/><circle id="Elipse_512" cx="390.4" cy="739.3" r="53.7" fill="none" stroke="#d9ffff" stroke-width=".75" stroke-miterlimit="10"/><path id="Trazado_3256" d="M390.4 677.7c34.3 0 62.1 27.7 62.4 62v-.4c0-34.4-27.9-62.4-62.4-62.4-34.4 0-62.4 27.9-62.4 62.4v.4c.3-34.3 28.1-62 62.4-62z" fill="#4affff"/><ellipse id="Elipse_513" cx="390.4" cy="740" rx="47.9" ry="48.6" fill="#72fff0"/><circle id="Elipse_514" cx="390.4" cy="739.3" r="47.9" fill="#00b6a1"/><path id="Trazado_3257" d="M390.4 786c-26.2 0-47.6-21.1-47.9-47.3v.6c-.1 26.5 21.2 48 47.7 48.2 26.5.1 48-21.2 48.2-47.7v-1c-.4 26.1-21.7 47.2-48 47.2z" fill="#00aa90"/><path id="Trazado_3258" class="st7" d="M438.4 739.3v-.2L414 714.8 391.4 751l-1 7.4 3.1 11.4 9.9 13.1 3.3 1.5c19-6.8 31.7-24.9 31.7-45.1z"/><path id="Trazado_3259" class="st7" d="M353.2 738.7l14.9 14.9.9 5.3 6 6 2-3.1 1-3.5-6.7-10.4-4.4-7.8-5.7-5.1-3.8-1H352l1.2 4.7z"/><g id="Grupo_2047"><defs><circle id="SVGID_1_" cx="390.4" cy="739.3" r="47.9"/></defs><clipPath id="SVGID_2_"><use xlink:href="#SVGID_1_" overflow="visible"/></clipPath><g id="Grupo_2046" clip-path="url(#SVGID_2_)"><g id="Grupo_2045"><g id="Grupo_2034-2"><path id="Rectángulo_2704" d="M353.9 718.3c1.1 0 2 .9 2 2v16.5c0 1.1-.9 2-2 2s-2-.9-2-2v-16.5c.1-1.1.9-2 2-2z" fill="#93ffff"/></g><circle id="Elipse_515" class="st10" cx="364.7" cy="733.5" r="10.3"/><path id="Trazado_3260" class="st11" d="M361.4 723.7c0 .1 2.9 10.3 0 19.6 1.1.4 2.2.6 3.3.6.4 0 .8 0 1.2-.1l.9-3.6v-5.1l-.9-6v-5.4l-.4-.5h-.8c-1.1-.1-2.2.1-3.3.5z"/><circle id="Elipse_516" class="st10" cx="416.3" cy="733.5" r="10.3"/><path id="Trazado_3261" class="st11" d="M419.7 723.7c0 .1-2.9 10.3 0 19.6-1.1.4-2.2.6-3.3.6-.4 0-.8 0-1.2-.1l-.9-3.6v-5.1l.9-6v-5.4l.4-.5h.8c1.1-.1 2.2.1 3.3.5z"/><path id="Rectángulo_2705" class="st12" d="M390.4 757.5c14.4 0 26 11.7 26 26v23.6c0 14.4-11.7 26-26 26-14.4 0-26-11.7-26-26v-23.6c0-14.4 11.6-26 26-26z"/><g id="Grupo_2035"><path id="Trazado_3262" class="st13" d="M405.9 770.7h-2.8c-.9 0-1.7-.8-1.6-1.7 0-.9.7-1.6 1.6-1.6h2.8c.9 0 1.7.8 1.6 1.7 0 .9-.7 1.6-1.6 1.6z"/><path id="Trazado_3263" class="st13" d="M403.1 771.6h2.8c.9 0 1.7.7 1.7 1.7 0 .9-.7 1.7-1.7 1.7h-2.8c-.9 0-1.7-.7-1.7-1.7.1-.9.8-1.7 1.7-1.7z"/><path id="Trazado_3264" class="st13" d="M406.2 775c.8 0 1.4.6 1.4 1.4 0 .8-.6 1.4-1.4 1.4s-1.4-.6-1.4-1.4c-.1-.8.6-1.4 1.4-1.4z"/><path id="Trazado_3265" class="st13" d="M406.2 778c.8 0 1.4.6 1.4 1.4 0 .8-.6 1.4-1.4 1.4-.8 0-1.4-.6-1.4-1.4-.1-.8.6-1.4 1.4-1.4z"/></g><g id="Grupo_2036"><path id="Rectángulo_2706" class="st10" d="M405.9 770.3h-2.8c-.7 0-1.3-.6-1.3-1.3 0-.7.6-1.3 1.3-1.3h2.8c.7 0 1.3.6 1.3 1.3 0 .8-.6 1.3-1.3 1.3z"/><path id="Rectángulo_2707" class="st14" d="M405.9 774.6h-2.8c-.7 0-1.3-.6-1.3-1.3 0-.7.6-1.3 1.3-1.3h2.8c.7 0 1.3.6 1.3 1.3 0 .7-.6 1.3-1.3 1.3z"/><path id="Rectángulo_2708" class="st10" d="M402.9 772.5h2.1c.1 0 .2.1.2.2s-.1.2-.2.2h-2.1c-.1 0-.2-.1-.2-.2s.1-.2.2-.2z"/><path id="Rectángulo_2709" class="st10" d="M402.9 773.2h1c.1 0 .2.1.2.2s-.1.2-.2.2h-1c-.1 0-.2-.1-.2-.2s.1-.2.2-.2z"/><circle id="Elipse_517" class="st14" cx="406.2" cy="776.4" r="1"/><circle id="Elipse_518" class="st10" cx="406.2" cy="779.4" r="1"/><path id="Trazado_3266" class="st13" d="M400.8 778c.8 0 1.4.6 1.4 1.4 0 .8-.6 1.4-1.4 1.4-.8 0-1.4-.6-1.4-1.4 0-.8.6-1.4 1.4-1.4z"/><circle id="Elipse_519" class="st10" cx="400.8" cy="779.4" r="1"/><path id="Trazado_3267" class="st13" d="M395.5 778c.8 0 1.4.6 1.4 1.4 0 .8-.6 1.4-1.4 1.4-.8 0-1.4-.6-1.4-1.4 0-.8.6-1.4 1.4-1.4z"/><circle id="Elipse_520" class="st10" cx="395.5" cy="779.4" r="1"/><circle id="Elipse_521" cx="395.5" cy="779.4" r=".6" fill="#00b6cb"/></g><path id="Trazado_3268" class="st13" d="M365.5 776c-.7 2.5-1.1 5-1.1 7.6v3.4l3.5 1.9 18.6 3.7 25.4-2.4 4.5-3.9v-2.7c0-2.5-.4-5-1.1-7.5-23.3 21.8-44.7 4.6-49.8-.1z"/><path id="Trazado_3269" class="st16" d="M390.4 757.5c-14.4 0-26 11.7-26 26v1c0-14.4 11.7-26 26-26 14.4 0 26 11.7 26 26v-1c0-14.4-11.6-26-26-26z"/><path id="Rectángulo_2710" class="st16" d="M390.4 739.2c6.3 0 11.4 5.1 11.4 11.4v11.1c0 6.3-5.1 11.4-11.4 11.4-6.3 0-11.4-5.1-11.4-11.4v-11.1c0-6.3 5.1-11.4 11.4-11.4z"/><path id="Rectángulo_2711" class="st13" d="M390.4 739.2c6.3 0 11.4 5.1 11.4 11.4V761c0 6.3-5.1 11.4-11.4 11.4-6.3 0-11.4-5.1-11.4-11.4v-10.3c0-6.4 5.1-11.5 11.4-11.5z"/><path id="Rectángulo_2712" class="st10" d="M390.4 741.2c5.5 0 10 4.5 10 10v9.1c0 5.5-4.5 10-10 10s-10-4.5-10-10v-9.1c0-5.5 4.5-10 10-10z"/><path id="Trazado_3270" d="M386.9 761.2l-3.9.6-2.5-.1c.2 1.3.6 2.6 1.3 3.7 5.6-2 11.7-2 17.2 0 .6-1 1-2.1 1.2-3.2l-6.7-1h-6.6z" fill="#00dad5"/><path id="Rectángulo_2713" class="st12" d="M381.4 708.3h18c10.3 0 18.7 8.4 18.7 18.7v18c0 10.3-8.4 18.7-18.7 18.7h-18c-10.3 0-18.7-8.4-18.7-18.7v-18c0-10.3 8.3-18.7 18.7-18.7z"/><path id="Trazado_3271" class="st18" d="M400.4 708.3h-20c-9.8 0-17.7 7.9-17.7 17.7v1.5c0-9.8 7.9-17.7 17.7-17.7h20c9.8 0 17.7 7.9 17.7 17.7V726c-.1-9.7-8-17.6-17.7-17.7z"/><path id="Trazado_3272" class="st16" d="M405.4 739.1h-30c-5.3.1-9.5 4.4-9.4 9.6v6.8c3.2 4.6 8.5 8.2 14.5 8.2h20c6 0 11.2-3.6 14.5-8.2v-6.8c-.2-5.2-4.4-9.5-9.6-9.6z"/><path id="Trazado_3273" d="M405.4 739.6h-30c-5.2 0-9.4 4.2-9.4 9.4v6.4c3.2 4.5 8.5 8.2 14.5 8.2h20c6 0 11.2-3.7 14.5-8.2V749c-.2-5.2-4.4-9.4-9.6-9.4z" fill="#bfdfff"/><g id="Grupo_2037"><path id="Trazado_3274" class="st16" d="M405.5 741.2h-30.3c-1.6 0-2.9 1.3-2.9 2.9v9.5c0 1.6 1.3 2.9 2.9 2.9h30.3c1.6 0 2.9-1.3 2.9-2.9v-9.5c0-1.6-1.3-2.9-2.9-2.9z"/><path id="Rectángulo_2714" class="st13" d="M375.2 741.2h30.3c1.6 0 2.9 1.3 2.9 2.9v9.4c0 1.6-1.3 2.9-2.9 2.9h-30.3c-1.6 0-2.9-1.3-2.9-2.9v-9.4c.1-1.6 1.4-2.9 2.9-2.9z"/><path id="Rectángulo_2715" class="st14" d="M375.3 742.6h30.1c.8 0 1.5.7 1.5 1.5v9.2c0 .8-.7 1.5-1.5 1.5h-30.1c-.8 0-1.5-.7-1.5-1.5v-9.2c0-.8.7-1.5 1.5-1.5z"/><path id="Rectángulo_2716" class="st20" d="M375.9 742.6h.4v12.2h-.4z"/><path id="Rectángulo_2717" class="st20" d="M380 742.6h.4v12.2h-.4z"/><path id="Rectángulo_2718" class="st20" d="M384.1 742.6h.4v12.2h-.4z"/><path id="Rectángulo_2719" class="st20" d="M388.1 742.6h.4v12.2h-.4z"/><path id="Rectángulo_2720" class="st20" d="M392.2 742.6h.4v12.2h-.4z"/><path id="Rectángulo_2721" class="st20" d="M396.3 742.6h.4v12.2h-.4z"/><path id="Rectángulo_2722" class="st20" d="M400.4 742.6h.4v12.2h-.4z"/><path id="Rectángulo_2723" class="st20" d="M404.5 742.6h.4v12.2h-.4z"/></g><g id="Grupo_2038"><image width="405" height="326" id="Rectángulo_2724" xlink:href="9AB80567.png" transform="matrix(.24 0 0 .24 341.76 709.2)" overflow="visible"/></g><path id="Trazado_3275" d="M378.8 747.1c7.4 3.2 15.9 3.2 23.3 0" fill="none" stroke="#00f0bf" stroke-width="4" stroke-miterlimit="10"/><path id="Trazado_3276" class="st1" d="M378.8 747.1c7.4 3.2 15.9 3.2 23.3 0"/><path id="Rectángulo_2725" class="st16" d="M372.5 727.9v-1.1c0-5.3 4.3-9.6 9.6-9.6h16.8c5.3 0 9.6 4.3 9.6 9.6v1.1c0 5.3-4.3 9.6-9.6 9.6h-16.8c-5.3 0-9.6-4.3-9.6-9.6z"/><path id="Rectángulo_2726" class="st13" d="M372.5 727.5v-.6c0-5.3 4.3-9.6 9.6-9.6h16.8c5.3 0 9.6 4.3 9.6 9.6v.6c0 5.3-4.3 9.6-9.6 9.6h-16.8c-5.3-.1-9.6-4.3-9.6-9.6z"/><path id="Rectángulo_2727" class="st14" d="M374 726.4c0-5 4.1-9.1 9.1-9.1h14.8c5 0 9.1 4.1 9.1 9.1s-4.1 9.1-9.1 9.1H383c-5-.1-9-4.1-9-9.1z"/><g id="Grupo_2039"><path id="Trazado_3277" d="M396 732.2c-1 0-1.8-.8-1.8-1.8 0-2.1-1.7-3.8-3.8-3.8-2.1 0-3.8 1.7-3.8 3.8 0 1-.8 1.8-1.8 1.8s-1.8-.8-1.8-1.8c0-4 3.2-7.3 7.2-7.4 4 0 7.3 3.2 7.4 7.2v.2c.1 1-.6 1.8-1.6 1.8z" fill="#00f0d6"/></g><path id="Trazado_3278" class="st23" d="M390.5 723.4c4 0 7.2 3.2 7.3 7.1v-.1c0-4-3.2-7.3-7.2-7.4-4 0-7.3 3.2-7.4 7.2v.3c.1-4 3.3-7.1 7.3-7.1z"/><g id="Grupo_2040" opacity=".1"><path id="Trazado_3279" class="st23" d="M376 728.9c.9 2.9 3.4 5 6.4 5.5l16.1-16.1c-.4-.1-.9-.1-1.3-.1h-10.5L376 728.9z"/><path id="Trazado_3280" class="st23" d="M404.7 723.1c-.1-.2-.2-.3-.2-.5l-11.9 11.9h.7l11.4-11.4z"/><path id="Trazado_3281" class="st23" d="M389.1 734.5l13.9-13.9c-.5-.5-1.1-1-1.7-1.3l-15.2 15.2h3z"/></g><g id="Grupo_2041"><path id="Rectángulo_2728" class="st25" d="M379.8 719.3h1.7c.6 0 1.1.5 1.1 1.1 0 .6-.5 1.1-1.1 1.1h-1.7c-.6 0-1.1-.5-1.1-1.1-.1-.6.4-1.1 1.1-1.1z"/><path id="Rectángulo_2729" class="st25" d="M399.6 731.1h1.7c.6 0 1.1.5 1.1 1.1 0 .6-.5 1.1-1.1 1.1h-1.7c-.6 0-1.1-.5-1.1-1.1-.1-.6.4-1.1 1.1-1.1z"/><path id="Rectángulo_2730" class="st25" d="M384.5 719.3h8.9c.6 0 1.1.5 1.1 1.1 0 .6-.5 1.1-1.1 1.1h-8.9c-.6 0-1.1-.5-1.1-1.1 0-.6.5-1.1 1.1-1.1z"/></g><g id="Grupo_2042"><path id="Trazado_3282" class="st16" d="M368.2 721.9h2.5c.8 0 1.5-.7 1.5-1.5s-.7-1.5-1.5-1.5h-2.5c-.8 0-1.5.7-1.5 1.5-.1.8.6 1.5 1.5 1.5z"/><path id="Trazado_3283" class="st16" d="M370.6 722.7h-2.5c-.8 0-1.5.7-1.5 1.5s.7 1.5 1.5 1.5h2.5c.8 0 1.5-.7 1.5-1.5.1-.8-.6-1.5-1.5-1.5z"/><path id="Trazado_3284" class="st16" d="M367.9 725.7c-.7 0-1.3.6-1.3 1.3 0 .7.6 1.3 1.3 1.3.7 0 1.3-.6 1.3-1.3 0-.7-.6-1.3-1.3-1.3z"/><path id="Trazado_3285" class="st16" d="M367.9 728.5c-.7 0-1.3.6-1.3 1.3 0 .7.6 1.3 1.3 1.3.7 0 1.3-.6 1.3-1.3 0-.7-.6-1.3-1.3-1.3z"/></g><g id="Grupo_2043"><path id="Trazado_3286" class="st13" d="M368.2 721.9h2.5c.8 0 1.5-.7 1.5-1.5s-.7-1.5-1.5-1.5h-2.5c-.8 0-1.5.7-1.5 1.5s.6 1.5 1.5 1.5z"/><path id="Trazado_3287" class="st13" d="M370.6 722.7h-2.5c-.8 0-1.5.7-1.5 1.5s.7 1.5 1.5 1.5h2.5c.8 0 1.5-.7 1.5-1.5s-.6-1.5-1.5-1.5z"/><path id="Trazado_3288" class="st13" d="M367.9 725.6c-.7 0-1.3.6-1.3 1.3s.6 1.3 1.3 1.3c.7 0 1.3-.6 1.3-1.3 0-.7-.6-1.3-1.3-1.3z"/><path id="Trazado_3289" class="st13" d="M367.9 728.4c-.7 0-1.3.6-1.3 1.3 0 .7.6 1.3 1.3 1.3.7 0 1.3-.6 1.3-1.3 0-.8-.6-1.3-1.3-1.3z"/></g><g id="Grupo_2044"><path id="Rectángulo_2731" class="st10" d="M368.2 719.2h2.5c.6 0 1.1.5 1.1 1.1 0 .6-.5 1.1-1.1 1.1h-2.5c-.6 0-1.1-.5-1.1-1.1-.1-.6.4-1.1 1.1-1.1z"/><path id="Rectángulo_2732" class="st14" d="M368.2 723h2.5c.6 0 1.1.5 1.1 1.1 0 .6-.5 1.1-1.1 1.1h-2.5c-.6 0-1.1-.5-1.1-1.1-.1-.6.4-1.1 1.1-1.1z"/><circle id="Elipse_522" class="st14" cx="367.9" cy="726.9" r=".9"/><circle id="Elipse_523" class="st10" cx="367.9" cy="729.6" r=".9"/></g></g></g></g></g><g id="Grupo_2054"><g id="Grupo_2049"><path id="Trazado_3290" class="st12" d="M209.1 590.3h149.5c6.2 0 11.4 5.8 11.4 12.9v46.9c0 6.7-4.5 12.2-10.3 12.8v13.7c0 2.4-2.6 3.7-4.1 1.9L341.8 663H209.1c-6.2 0-11.4-5.8-11.4-12.9v-46.9c0-7.1 5.1-12.9 11.4-12.9z"/><path id="Trazado_3291" class="st18" d="M209.1 590.3h149.5c6.2 0 11.4 5.8 11.4 12.9v.9c0-7.1-5.1-12.9-11.4-12.9H209.1c-6.2 0-11.4 5.8-11.4 12.9v-.9c0-7.1 5.1-12.9 11.4-12.9z"/></g><g id="Grupo_2053"><g id="Grupo_2052"><circle id="Elipse_525" cx="331.1" cy="641.2" r="14.1" fill="#f9b233"/><path id="Trazado_3292" class="st27" d="M331.1 627.3c7.8 0 14.1 6.3 14.1 14v-.1c0-7.8-6.3-14.1-14.1-14.1s-14.1 6.3-14.1 14.1v.1c0-7.8 6.3-14 14.1-14z"/><path id="Trazado_3293" d="M339.4 641.5h-16.6c-.3 0-.5.2-.5.5-.1 4.9 3.9 8.9 8.7 8.9 4.9.1 8.9-3.9 8.9-8.7v-.2c0-.2-.2-.4-.5-.5z" fill="#f9d754"/><path id="Trazado_3294" d="M339.4 641.5h-16.6c-.3 0-.5.2-.5.5-.1 4.9 3.9 8.9 8.7 8.9 4.9.1 8.9-3.9 8.9-8.7v-.2c0-.2-.2-.5-.5-.5z" fill="#f98918"/><path id="Trazado_3295" class="st30" d="M331.1 650.4c4.6 0 8.3-3.7 8.3-8.3h-16.6c0 4.6 3.7 8.3 8.3 8.3z"/><path id="Trazado_3296" class="st31" d="M327.2 649.4c2.4 1.3 5.3 1.3 7.8 0-.9-2.1-3.4-3.2-5.5-2.3-1.1.5-1.9 1.3-2.3 2.3z"/><path id="Trazado_3297" d="M327.2 649.4c2.4 1.3 5.3 1.3 7.8 0-.9-2.1-3.4-3.2-5.5-2.3-1.1.5-1.9 1.3-2.3 2.3z" fill="#ff93b0"/><path id="Trazado_3298" class="st31" d="M327.2 649.4c2.4 1.2 5.3 1.2 7.8 0-1.1-2.1-3.7-3-5.9-1.9-.8.5-1.5 1.1-1.9 1.9z"/><path id="Trazado_3299" d="M331.1 650.4c1.3 0 2.7-.3 3.9-.9-.1-.3-.3-.5-.4-.7-3.6 3.3-6.6.3-6.9 0-.2.2-.3.4-.4.7 1.1.6 2.4.9 3.8.9z" fill="#da2f72"/><g id="Grupo_2050"><path id="Trazado_3300" class="st30" d="M328.9 639.2c-.5 0-.9-.4-.9-.9 0-1.1-.9-2-1.9-2-1.1 0-2 .9-2 2 0 .5-.4.9-.9.9s-.9-.4-.9-.9c0-2.1 1.7-3.8 3.8-3.8 2.1 0 3.8 1.7 3.8 3.8-.1.5-.5.9-1 .9z"/></g><g id="Grupo_2051"><path id="Trazado_3301" class="st30" d="M339 639.2c-.5 0-.9-.4-.9-.9 0-1.1-.9-2-2-2s-1.9.9-1.9 2c0 .5-.4.9-.9.9s-.9-.4-.9-.9c0-2.1 1.6-3.8 3.7-3.8s3.8 1.6 3.8 3.7v.1c0 .5-.4.9-.9.9z"/></g><circle id="Elipse_526" class="st27" cx="342.1" cy="641.3" r="1.6"/><circle id="Elipse_527" class="st27" cx="320" cy="641.3" r="1.6"/></g><path d="M241.4 595.6c.2-.4.6-.7 1-.8.5-.2 1.1-.2 1.8-.2s1.3.1 1.8.2c.4.1.8.3 1 .5s.4.4.5.8c.1.4.2 1.1.2 2v21.4c0 .6 0 1-.1 1.3 0 .3-.2.6-.4 1-.4.7-1.4 1-3 1-1.8 0-2.8-.5-3.2-1.4-.2-.4-.2-1.1-.2-2v-7.8h-10.2v7.9c0 .6 0 1-.1 1.3 0 .3-.2.6-.4 1-.4.7-1.4 1-3 1-1.8 0-2.8-.5-3.2-1.4-.2-.4-.2-1.1-.2-2V598c0-.6 0-1 .1-1.3 0-.3.2-.6.4-1 .4-.7 1.4-1 3-1 1.8 0 2.9.5 3.2 1.4.1.4.2 1.1.2 2v7.9H241v-8c0-.6 0-1 .1-1.3s.1-.7.3-1.1zm9.5 2.4c0-.6 0-1 .1-1.3 0-.3.2-.6.4-1 .4-.7 1.4-1 3-1 1.8 0 2.9.5 3.2 1.4.1.4.2 1.1.2 2v21.4c0 .6 0 1.1-.1 1.3 0 .3-.2.6-.4 1-.4.7-1.4 1-3 1-1.8 0-2.8-.5-3.2-1.5-.2-.4-.2-1.1-.2-2V598zm10.2 18.9c.3-.5.6-.8 1.2-1 .5-.2 1.3-.3 2.5-.3s1.9.2 2.4.7c.5.5.8 1.3.8 2.3v.6c0 .6 0 1.1-.1 1.4 0 .3-.2.6-.4 1.1-.4.7-1.4 1.1-2.9 1.1-1.6 0-2.6-.3-3.1-.8s-.8-1.5-.8-2.9c0-.9.2-1.7.4-2.2zm5.2-4.4c-.5.1-1.1.2-2 .2-.8 0-1.5-.1-2-.2s-.8-.4-1-.7c-.2-.3-.3-.6-.3-.9 0-.3-.1-.7-.1-1.2v-12.2c0-.5 0-.9.1-1.2s.2-.6.4-.9c.2-.3.6-.6 1-.7.5-.1 1.1-.2 2-.2.8 0 1.5.1 2 .2s.8.4 1 .7c.2.3.3.7.3.9s.1.7.1 1.2v12.2c0 .5 0 .9-.1 1.2 0 .3-.2.5-.4.9-.2.3-.5.5-1 .7z" fill="#00a3b5"/><path id="Rectángulo_2733" class="st35" d="M278.9 596.1h63.4c1.4 0 2.6 1.2 2.6 2.6v.4c0 1.4-1.2 2.6-2.6 2.6h-63.4c-1.4 0-2.6-1.2-2.6-2.6v-.4c0-1.4 1.1-2.6 2.6-2.6z"/><path id="Rectángulo_2734" class="st35" d="M278.9 606.3h63.4c1.4 0 2.6 1.2 2.6 2.6v.4c0 1.4-1.2 2.6-2.6 2.6h-63.4c-1.4 0-2.6-1.2-2.6-2.6v-.4c0-1.4 1.1-2.6 2.6-2.6z"/><path id="Rectángulo_2735" class="st35" d="M309.4 616.5h32.9c1.4 0 2.6 1.2 2.6 2.6v.4c0 1.4-1.2 2.6-2.6 2.6h-32.9c-1.4 0-2.6-1.2-2.6-2.6v-.4c0-1.4 1.1-2.6 2.6-2.6z"/><path id="Rectángulo_2736" class="st35" d="M278.9 616.5H298c1.4 0 2.6 1.2 2.6 2.6v.4c0 1.4-1.2 2.6-2.6 2.6h-19.1c-1.4 0-2.6-1.2-2.6-2.6v-.4c0-1.4 1.1-2.6 2.6-2.6z"/><path id="Rectángulo_2737" class="st35" d="M224.9 631.5H307c1.4 0 2.5 1.1 2.5 2.5v.4c0 1.4-1.1 2.5-2.5 2.5h-82.1c-1.4 0-2.5-1.1-2.5-2.5v-.4c0-1.4 1.1-2.5 2.5-2.5z"/><path id="Rectángulo_2738" class="st35" d="M224.9 644.4h37.3c1.4 0 2.5 1.1 2.5 2.5v.4c0 1.4-1.1 2.5-2.5 2.5h-37.3c-1.4 0-2.5-1.1-2.5-2.5v-.4c0-1.4 1.1-2.5 2.5-2.5z"/><path id="Rectángulo_2739" class="st35" d="M270.3 644.4h13.9c1.4 0 2.5 1.1 2.5 2.5v.4c0 1.4-1.1 2.5-2.5 2.5h-13.9c-1.4 0-2.5-1.1-2.5-2.5v-.4c0-1.4 1.2-2.5 2.5-2.5z"/><path id="Rectángulo_2740" class="st35" d="M291.3 644.4h.4c1.4 0 2.5 1.1 2.5 2.5v.4c0 1.4-1.1 2.5-2.5 2.5h-.4c-1.4 0-2.5-1.1-2.5-2.5v-.4c0-1.4 1.1-2.5 2.5-2.5z"/><path id="Rectángulo_2741" class="st35" d="M298.8 644.4h.4c1.4 0 2.5 1.1 2.5 2.5v.4c0 1.4-1.1 2.5-2.5 2.5h-.4c-1.4 0-2.5-1.1-2.5-2.5v-.4c0-1.4 1.1-2.5 2.5-2.5z"/><path id="Rectángulo_2742" class="st35" d="M306.3 644.4h.4c1.4 0 2.5 1.1 2.5 2.5v.4c0 1.4-1.1 2.5-2.5 2.5h-.4c-1.4 0-2.5-1.1-2.5-2.5v-.4c0-1.4 1.1-2.5 2.5-2.5z"/></g></g></g></svg>