<svg data-name="Grupo 2027" xmlns="http://www.w3.org/2000/svg" width="33.23" height="33.23"><circle data-name="Elipse 508" cx="16.616" cy="16.616" r="16.616" fill="#da0000"/><path data-name="Trazado 3250" d="M27.23 11.284a2.774 2.774 0 00-1.959-1.959c-1.728-.463-8.655-.463-8.655-.463s-6.928 0-8.655.463a2.774 2.774 0 00-1.959 1.959 30.936 30.936 0 000 10.664 2.774 2.774 0 001.959 1.959c1.728.463 8.655.463 8.655.463s6.928 0 8.655-.463a2.774 2.774 0 001.959-1.959 30.944 30.944 0 000-10.664zM14.4 19.939v-6.646l5.756 3.323z" fill="#fff"/></svg>