<svg data-name="Grupo 2026" xmlns="http://www.w3.org/2000/svg" width="33.23" height="33.23"><circle data-name="Elipse 507" cx="16.616" cy="16.616" r="16.616" fill="#5a99ec"/><g data-name="Grupo 2025"><g data-name="Grupo 2024"><path data-name="Trazado 3249" d="M13.258 26.185a12.468 12.468 0 0012.553-12.553q0-.286-.012-.57a8.982 8.982 0 002.2-2.284 8.806 8.806 0 01-2.534.694 4.427 4.427 0 001.94-2.441 8.844 8.844 0 01-2.8 1.071 4.416 4.416 0 00-7.519 4.024 12.526 12.526 0 01-9.094-4.61 4.415 4.415 0 001.366 5.89 4.381 4.381 0 01-2-.552v.056a4.414 4.414 0 003.54 4.325 4.407 4.407 0 01-1.992.076 4.417 4.417 0 004.122 3.064 8.852 8.852 0 01-5.48 1.888 8.976 8.976 0 01-1.052-.061 12.49 12.49 0 006.763 1.982" fill="#fff"/></g></g></svg>