<svg data-name="Grupo 2031" xmlns="http://www.w3.org/2000/svg" width="33.23" height="33.232"><path data-name="Trazado 3254" d="M33.231 16.616A16.616 16.616 0 1014.019 33.03V21.418H9.805v-4.8h4.219v-3.661c0-4.164 2.48-6.464 6.276-6.464a25.561 25.561 0 013.719.324v4.089h-2.1a2.4 2.4 0 00-2.708 2.6v3.117h4.608l-.737 4.8h-3.871v11.611a16.619 16.619 0 0014.02-16.418z" fill="#4676ed"/><path data-name="Trazado 3255" d="M23.084 21.418l.737-4.8h-4.608v-3.117a2.4 2.4 0 012.708-2.595h2.1V6.817a25.564 25.564 0 00-3.729-.324c-3.8 0-6.276 2.3-6.276 6.464v3.661H9.797v4.8h4.219v11.611a16.775 16.775 0 005.192 0V21.418z" fill="#fff"/></svg>