<?xml version="1.0" encoding="utf-8"?>
<!-- Generator: Adobe Illustrator 24.1.0, SVG Export Plug-In . SVG Version: 6.00 Build 0)  -->
<svg version="1.1" id="Capa_1" xmlns="http://www.w3.org/2000/svg" xmlns:xlink="http://www.w3.org/1999/xlink" x="0px" y="0px"
	 viewBox="0 0 90 50" style="enable-background:new 0 0 90 50;" xml:space="preserve">
<style type="text/css">
	.st0{enable-background:new    ;}
	.st1{fill:#FFFFFF;}
</style>
<g class="st0">
	<path class="st1" d="M5.7,8.1v30.1h3.9V41H2.1V8.1H5.7z"/>
	<path class="st1" d="M14.9,41.3c-0.5,0-1.1-0.1-1.6-0.3c-0.5-0.2-1-0.5-1.4-0.8c-0.4-0.4-0.8-0.9-1-1.5c-0.3-0.6-0.4-1.3-0.4-2.2
		V12.6c0-0.8,0.1-1.6,0.4-2.2c0.3-0.6,0.6-1.1,1-1.5c0.4-0.4,0.9-0.7,1.4-0.8c0.5-0.2,1.1-0.3,1.6-0.3h0.8c0.5,0,1.1,0.1,1.6,0.3
		c0.5,0.2,1,0.5,1.4,0.8s0.8,0.9,1,1.5c0.3,0.6,0.4,1.3,0.4,2.2v23.9c0,0.8-0.1,1.6-0.4,2.2c-0.3,0.6-0.6,1.1-1,1.5
		s-0.9,0.7-1.4,0.8c-0.5,0.2-1.1,0.3-1.6,0.3H14.9z M15.2,11c-0.7,0-1.1,0.7-1.1,2.2V36c0,0.8,0.1,1.4,0.3,1.7s0.5,0.5,0.8,0.5h0.2
		c0.3,0,0.6-0.2,0.8-0.5s0.3-0.9,0.3-1.7V13.2c0-1.5-0.4-2.2-1.1-2.2H15.2z"/>
	<path class="st1" d="M26.4,27.7h4.9V41h-1.8L29,39.9c-1,0.9-1.9,1.4-2.8,1.4H26c-0.5,0-1.1-0.1-1.6-0.3c-0.5-0.2-1-0.5-1.4-0.8
		c-0.4-0.4-0.8-0.9-1-1.5c-0.3-0.6-0.4-1.3-0.4-2.2V12.6c0-0.8,0.1-1.6,0.4-2.2c0.3-0.6,0.6-1.1,1-1.5c0.4-0.4,0.9-0.7,1.4-0.8
		C24.9,8,25.5,7.9,26,7.9h0.8c0.5,0,1.1,0.1,1.6,0.3c0.5,0.2,1,0.5,1.4,0.8s0.8,0.9,1,1.5c0.3,0.6,0.4,1.3,0.4,2.2v8.8h-3.7v-8.3
		c0-0.8-0.1-1.4-0.3-1.7c-0.2-0.3-0.5-0.5-0.8-0.5h-0.2c-0.3,0-0.6,0.2-0.8,0.5c-0.2,0.3-0.3,0.9-0.3,1.7V36c0,0.8,0.1,1.4,0.3,1.7
		s0.5,0.5,0.8,0.5h0.2c0.3,0,0.6-0.2,0.8-0.5s0.3-0.9,0.3-1.7v-5.2h-1.2V27.7z"/>
	<path class="st1" d="M37.1,41.3c-0.5,0-1.1-0.1-1.6-0.3c-0.5-0.2-1-0.5-1.4-0.8c-0.4-0.4-0.8-0.9-1-1.5c-0.3-0.6-0.4-1.3-0.4-2.2
		V12.6c0-0.8,0.1-1.6,0.4-2.2c0.3-0.6,0.6-1.1,1-1.5c0.4-0.4,0.9-0.7,1.4-0.8C36,8,36.5,7.9,37.1,7.9h0.8c0.5,0,1.1,0.1,1.6,0.3
		c0.5,0.2,1,0.5,1.4,0.8s0.8,0.9,1,1.5c0.3,0.6,0.4,1.3,0.4,2.2v23.9c0,0.8-0.1,1.6-0.4,2.2c-0.3,0.6-0.6,1.1-1,1.5
		s-0.9,0.7-1.4,0.8c-0.5,0.2-1.1,0.3-1.6,0.3H37.1z M37.4,11c-0.7,0-1.1,0.7-1.1,2.2V36c0,0.8,0.1,1.4,0.3,1.7s0.5,0.5,0.8,0.5h0.2
		c0.3,0,0.6-0.2,0.8-0.5s0.3-0.9,0.3-1.7V13.2c0-1.5-0.4-2.2-1.1-2.2H37.4z"/>
	<path class="st1" d="M48.9,41V8.1h5.2c0.6,0,1.1,0.1,1.6,0.3c0.5,0.2,1,0.4,1.4,0.8c0.4,0.4,0.8,0.9,1,1.4c0.3,0.6,0.4,1.3,0.4,2.1
		v23.5c0,0.8-0.1,1.6-0.4,2.1c-0.3,0.6-0.6,1.1-1,1.4c-0.4,0.4-0.9,0.7-1.4,0.8c-0.5,0.2-1.1,0.3-1.6,0.3H48.9z M52.5,11.2v26.6h1.3
		c0.3,0,0.6-0.1,0.8-0.4c0.2-0.3,0.3-0.9,0.3-1.7V13.4c0-0.8-0.1-1.3-0.3-1.6c-0.2-0.3-0.4-0.5-0.8-0.5H52.5z"/>
	<path class="st1" d="M64.8,27.7h4.9V41h-1.8l-0.4-1.1c-1,0.9-1.9,1.4-2.8,1.4h-0.3c-0.5,0-1.1-0.1-1.6-0.3c-0.5-0.2-1-0.5-1.4-0.8
		s-0.8-0.9-1-1.5c-0.3-0.6-0.4-1.3-0.4-2.2V12.6c0-0.8,0.1-1.6,0.4-2.2c0.3-0.6,0.6-1.1,1-1.5s0.9-0.7,1.4-0.8
		c0.5-0.2,1.1-0.3,1.6-0.3h0.8c0.5,0,1.1,0.1,1.6,0.3c0.5,0.2,1,0.5,1.4,0.8s0.8,0.9,1,1.5c0.3,0.6,0.4,1.3,0.4,2.2v8.8H66v-8.3
		c0-0.8-0.1-1.4-0.3-1.7c-0.2-0.3-0.5-0.5-0.8-0.5h-0.2c-0.3,0-0.6,0.2-0.8,0.5c-0.2,0.3-0.3,0.9-0.3,1.7V36c0,0.8,0.1,1.4,0.3,1.7
		c0.2,0.3,0.5,0.5,0.8,0.5h0.2c0.3,0,0.6-0.2,0.8-0.5c0.2-0.3,0.3-0.9,0.3-1.7v-5.2h-1.2V27.7z"/>
	<path class="st1" d="M74.8,11.2v11.9H78V26h-3.2v11.9h4.4V41h-8V8.1h7.8v3.1H74.8z"/>
	<path class="st1" d="M83.9,11.2v11.9h3.2V26h-3.2v11.9h4.4V41h-8V8.1H88v3.1H83.9z"/>
</g>
</svg>
