<svg data-name="Grupo 407" xmlns="http://www.w3.org/2000/svg" width="230.17" height="48.059"><defs><clipPath id="a"><path data-name="Rectángulo 4" fill="none" d="M0 0h226.855v45.388H0z"/></clipPath><clipPath id="b"><path data-name="Rectángulo 6" fill="none" d="M0 0h45.496v45.388H0z"/></clipPath></defs><path data-name="Rectángulo 2" fill="#fff" d="M0 0h230.17v48.059H0z"/><path data-name="Rectángulo 3" fill="#333" d="M94.698 1.265h133.771v45.388H94.698z"/><text transform="translate(99.707 24.49)" fill="#fff" font-size="11" font-family="Calibri"><tspan x="0" y="0">Ministerio</tspan></text><text data-name="de Energía y Minas" transform="translate(99.707 37.624)" fill="#fff" font-size="12" font-family="Calibri"><tspan x="0" y="0">de Energía y Minas</tspan></text><path data-name="Trazado 198" d="M47.113 1.273v45.382h45.515l-.007-45.382z" fill="red"/><g data-name="Grupo 3"><g data-name="Grupo 2" clip-path="url(#a)" fill="#fff" transform="translate(1.614 1.265)"><path data-name="Trazado 199" d="M58.224 20.532a3.766 3.766 0 01-.266 1.448 3.041 3.041 0 01-.756 1.1 3.372 3.372 0 01-1.207.7 5.279 5.279 0 01-1.708.249h-1.215v3.855a.185.185 0 01-.04.117.242.242 0 01-.114.078 1.119 1.119 0 01-.215.05 2.736 2.736 0 01-.687 0 1.151 1.151 0 01-.219-.05.214.214 0 01-.116-.078.205.205 0 01-.033-.117v-9.875a.573.573 0 01.173-.474.608.608 0 01.388-.139h2.292q.348 0 .666.029a6.618 6.618 0 01.753.122 3.163 3.163 0 01.883.357 2.826 2.826 0 01.765.641 2.738 2.738 0 01.484.881 3.431 3.431 0 01.17 1.105m-1.5.115a2.213 2.213 0 00-.244-1.092 1.688 1.688 0 00-.6-.654 2.021 2.021 0 00-.745-.274 5.125 5.125 0 00-.747-.057h-1.315v4.295h1.281a2.96 2.96 0 001.071-.166 1.98 1.98 0 00.715-.462 1.91 1.91 0 00.438-.7 2.582 2.582 0 00.148-.891"/><path data-name="Trazado 200" d="M66.013 27.516a1.644 1.644 0 01-.017.261.506.506 0 01-.057.185.307.307 0 01-.1.108.214.214 0 01-.118.032h-5.137a.576.576 0 01-.36-.129.529.529 0 01-.17-.449v-9.55a.535.535 0 01.17-.451.589.589 0 01.36-.128h5.076a.225.225 0 01.121.034.253.253 0 01.087.106.811.811 0 01.053.186 1.488 1.488 0 01.022.278 1.374 1.374 0 01-.022.261.733.733 0 01-.053.183.252.252 0 01-.087.1.224.224 0 01-.121.033h-4.176v3.358h3.589a.2.2 0 01.119.039.294.294 0 01.091.1.5.5 0 01.053.182 1.81 1.81 0 01.017.274 1.593 1.593 0 01-.017.258.484.484 0 01-.053.173.224.224 0 01-.091.094.244.244 0 01-.119.029h-3.589v3.832h4.243a.231.231 0 01.118.033.3.3 0 01.1.1.464.464 0 01.057.184 1.763 1.763 0 01.017.278"/><path data-name="Trazado 201" d="M75.126 27.888a.27.27 0 01-.025.116.186.186 0 01-.109.082.9.9 0 01-.23.051 3.356 3.356 0 01-.4.017 2.687 2.687 0 01-.352-.017.734.734 0 01-.218-.056.284.284 0 01-.129-.1.7.7 0 01-.079-.165l-.982-2.524a10.233 10.233 0 00-.36-.79 2.512 2.512 0 00-.444-.62 1.79 1.79 0 00-.6-.4 2.16 2.16 0 00-.835-.145h-.951v4.558a.186.186 0 01-.037.116.246.246 0 01-.114.077 1.181 1.181 0 01-.216.051 2.731 2.731 0 01-.687 0 1.274 1.274 0 01-.219-.051.218.218 0 01-.115-.077.2.2 0 01-.033-.116v-9.92a.533.533 0 01.169-.452.589.589 0 01.359-.128h2.274a9.4 9.4 0 011.157.067 4.062 4.062 0 011.095.339 2.579 2.579 0 01.8.588 2.364 2.364 0 01.484.814 3.048 3.048 0 01.161 1.014 2.99 2.99 0 01-.145.964 2.31 2.31 0 01-.417.753 2.756 2.756 0 01-.654.568 4.24 4.24 0 01-.851.405 1.892 1.892 0 01.48.3 2.347 2.347 0 01.4.425 3.9 3.9 0 01.351.572c.11.213.221.455.331.729l.959 2.355c.079.2.127.34.15.419a.791.791 0 01.033.186m-2.142-7.522a1.925 1.925 0 00-.282-1.065 1.58 1.58 0 00-.942-.624 2.827 2.827 0 00-.468-.083 7.74 7.74 0 00-.682-.024h-1.2v3.607h1.39a3.127 3.127 0 00.973-.137 1.941 1.941 0 00.681-.381 1.491 1.491 0 00.4-.575 2.02 2.02 0 00.128-.721"/><path data-name="Trazado 202" d="M84.891 24.149a4.957 4.957 0 01-.285 1.74 3.6 3.6 0 01-.814 1.295 3.454 3.454 0 01-1.29.8 5.064 5.064 0 01-1.729.275 4.748 4.748 0 01-1.613-.258 3.393 3.393 0 01-1.249-.758 3.327 3.327 0 01-.8-1.251 4.972 4.972 0 01-.281-1.738V17.61a.2.2 0 01.033-.116.223.223 0 01.116-.078 1.487 1.487 0 01.215-.051 2.48 2.48 0 01.347-.021 2.558 2.558 0 01.34.021 1.251 1.251 0 01.218.051.219.219 0 01.113.078.209.209 0 01.032.116v6.472a4.132 4.132 0 00.183 1.3 2.445 2.445 0 00.525.923 2.207 2.207 0 00.827.554 3.024 3.024 0 001.088.186 3.152 3.152 0 001.1-.183 2.068 2.068 0 00.818-.547 2.4 2.4 0 00.513-.9 4.034 4.034 0 00.177-1.258V17.61a.2.2 0 01.033-.116.217.217 0 01.117-.078 1.428 1.428 0 01.219-.051 2.528 2.528 0 01.343-.021 2.452 2.452 0 01.335.021 1.328 1.328 0 01.215.051.245.245 0 01.116.078.185.185 0 01.036.116zm-3.175-9.709a.859.859 0 01.178-.165.808.808 0 01.194-.091 1.2 1.2 0 01.257-.045c.1-.008.217-.013.356-.013a1.548 1.548 0 01.387.038.468.468 0 01.2.094.131.131 0 01.037.134.428.428 0 01-.1.156l-1.878 1.755a1.016 1.016 0 01-.151.129.712.712 0 01-.161.074 1.3 1.3 0 01-.212.042 3.427 3.427 0 01-.295.012 1.654 1.654 0 01-.3-.022.248.248 0 01-.148-.066.115.115 0 01-.025-.112.425.425 0 01.09-.157z"/></g></g><path data-name="Rectángulo 5" fill="#fff" d="M1.614 1.265H47.11v45.388H1.614z"/><g data-name="Grupo 5"><g data-name="Grupo 4" clip-path="url(#b)" transform="translate(1.614 1.265)"><path data-name="Trazado 203" d="M22.712 38.17l-8.205-18.807-6.766-5.484.24 18.761c.06 4.137 4.551 10.346 14.731 5.53" fill="#0b070c" fill-rule="evenodd"/><path data-name="Trazado 204" d="M23.259 37.855l-8.372-18.504-6.905-5.4.252 18.464c.06 4.071 4.635 10.176 15.026 5.443" fill="#fc0918" fill-rule="evenodd"/><path data-name="Trazado 205" d="M11.06 16.482l-3.344-2.519.041-.148c.007-.029 1.9 1.475 3.441 2.523.064.043-.1.006-.138.143" fill="#0b070c" fill-rule="evenodd"/><path data-name="Trazado 206" d="M11.06 16.482l-3.344-2.519.041-.148c.007-.029 1.9 1.475 3.441 2.523.064.044-.098.007-.138.144z" fill="none" stroke="#0b070c" stroke-miterlimit="2.613" stroke-width=".044"/><path data-name="Trazado 207" d="M7.719 13.388l-.674-.323v.708s0 .006.008.006v.027l.72.223z" fill="#0b070c" fill-rule="evenodd"/><path data-name="Trazado 208" d="M7.719 13.388l-.674-.323v.708s0 .006.008.006v.027l.72.223z" fill="none" stroke="#0b070c" stroke-miterlimit="2.613" stroke-width=".044"/><path data-name="Trazado 209" d="M7.751 14.008l-.079-.622-.6-.314.017.673c0 .07.645.184.657.263" fill="#daef41" fill-rule="evenodd"/><path data-name="Trazado 210" d="M7.751 14.008l-.079-.622-.6-.314.017.673c.004.07.65.183.662.263z" fill="none" stroke="#0b070c" stroke-miterlimit="2.613" stroke-width=".044"/><path data-name="Trazado 211" d="M7.751 14.007l-.669-.891.012.655c0 .073.612.174.657.236" fill="#daef41" fill-rule="evenodd"/><path data-name="Trazado 212" d="M7.751 14.007l-.669-.891.012.655c.004.074.612.174.657.236z" fill="none" stroke="#0b070c" stroke-miterlimit="2.613" stroke-width=".044"/><path data-name="Trazado 213" d="M7.758 13.762a.191.191 0 01.2.191.2.2 0 01-.2.2.206.206 0 01-.2-.2.2.2 0 01.2-.191" fill="#0b070c" fill-rule="evenodd"/><path data-name="Trazado 214" d="M7.758 13.762a.191.191 0 01.2.191.2.2 0 01-.2.2.206.206 0 01-.2-.2.2.2 0 01.2-.191z" fill="none" stroke="#0b070c" stroke-miterlimit="2.613" stroke-width=".044"/><path data-name="Trazado 215" d="M7.757 13.816a.132.132 0 01.14.137.142.142 0 01-.14.143.144.144 0 01-.142-.143.135.135 0 01.142-.137" fill="#daef41" fill-rule="evenodd"/><path data-name="Trazado 216" d="M7.757 13.816a.132.132 0 01.14.137.142.142 0 01-.14.143.144.144 0 01-.142-.143.135.135 0 01.142-.137z" fill="none" stroke="#0b070c" stroke-miterlimit="2.613" stroke-width=".044"/><path data-name="Trazado 217" d="M8.115 25.262c.453.389 1.308.157 1.4.874.054.394.617.382.78.7.424.824 1.145.486 1.361.762a1.733 1.733 0 001.467.737c.567-.117 1.152.462 1.691.81.96.611 1.878.352 1.878 2.519a5.448 5.448 0 01-.228 2.3c-.567.768-1.606.668-2.682.907-.207.043-1.128-.863-2.006-.608-.38.1-.811-.166-1.254-.077a1.173 1.173 0 01-1.381-.467c-.293-.621-.909-.66-.909-.907 0-1.7-.108-5.972-.118-7.553" fill="#fff" fill-rule="evenodd"/><path data-name="Trazado 218" d="M8.115 25.262c.453.389 1.308.157 1.4.874.054.394.617.382.78.7.424.824 1.145.486 1.361.762a1.733 1.733 0 001.467.737c.567-.117 1.152.462 1.691.81.96.611 1.878.352 1.878 2.519a5.448 5.448 0 01-.228 2.3c-.567.768-1.606.668-2.682.907-.207.043-1.128-.863-2.006-.608-.38.1-.811-.166-1.254-.077a1.173 1.173 0 01-1.381-.467c-.293-.621-.909-.66-.909-.907.005-1.698-.108-5.968-.117-7.55z" fill="none" stroke="#0b070c" stroke-miterlimit="2.613" stroke-width=".044"/><path data-name="Trazado 219" d="M14.335 26.592c-.939-.709-4.725-2.2-5.259-3.277s.392-2.531.138-1.742c-.319.981 3.128 2.4 4.073 2.8.364.16 1.561.571 1.561 1.064 0 .074-.124.444-.124.557 0 .337-.389.523-.389.6" fill="#0b070c" fill-rule="evenodd"/><path data-name="Trazado 220" d="M14.335 26.592c-.939-.709-4.725-2.2-5.259-3.277s.392-2.531.138-1.742c-.319.981 3.128 2.4 4.073 2.8.364.16 1.561.571 1.561 1.064 0 .074-.124.444-.124.557-.001.339-.389.525-.389.598z" fill="none" stroke="#0b070c" stroke-miterlimit="2.613" stroke-width=".044"/><path data-name="Trazado 221" d="M14.574 26.451c-.963-.778-4.82-2.383-5.372-3.531-.536-1.145.4-2.731.144-1.879-.316 1.057 3.2 2.59 4.165 3.026.373.165 1.587.615 1.587 1.13 0 .084-.121.489-.121.609 0 .362-.4.56-.4.645" fill="#daef41" fill-rule="evenodd"/><path data-name="Trazado 222" d="M14.574 26.451c-.963-.778-4.82-2.383-5.372-3.531-.536-1.145.4-2.731.144-1.879-.316 1.057 3.2 2.59 4.165 3.026.373.165 1.587.615 1.587 1.13 0 .084-.121.489-.121.609-.001.361-.403.56-.403.645z" fill="none" stroke="#0b070c" stroke-miterlimit="2.613" stroke-width=".044"/><path data-name="Trazado 223" d="M16.116 26.517c.057-3.919.817-8.166.316-9.814a38.15 38.15 0 01-4.8-3.6c-.163-.147-1.88 6.62-2.431 8.129.648 1.92 3.778 2.566 6.919 5.283" fill="#fc0918" fill-rule="evenodd"/><path data-name="Trazado 224" d="M16.116 26.517c.057-3.919.817-8.166.316-9.814a38.15 38.15 0 01-4.8-3.6c-.163-.147-1.88 6.62-2.431 8.129.648 1.922 3.778 2.568 6.915 5.285z" fill="none" stroke="#0b070c" stroke-miterlimit="2.613" stroke-width=".044"/><path data-name="Trazado 225" d="M14.506 18.643c-.277-.117-.926-.74-1.231-.884-.687-.315-2.1-1.566-2.417-1.267a3.609 3.609 0 00-.856 2.134c-.057.349.259.349.534.469.483.228.694.494 1.212.548 1.3.161 2.016 1.165 2.689.865.278-.125.147-1.058.465-1.212.479-.23-.2-.386-.4-.653" fill="#fff" fill-rule="evenodd"/><path data-name="Trazado 226" d="M14.506 18.643c-.277-.117-.926-.74-1.231-.884-.687-.315-2.1-1.566-2.417-1.267a3.609 3.609 0 00-.856 2.134c-.057.349.259.349.534.469.483.228.694.494 1.212.548 1.3.161 2.016 1.165 2.689.865.278-.125.147-1.058.465-1.212.478-.23-.2-.386-.396-.653z" fill="none" stroke="#0b070c" stroke-miterlimit="2.613" stroke-width=".044"/><path data-name="Trazado 227" d="M16.312 21.662c.034.063-.045.206-.145.376a.323.323 0 00.2-.117.808.808 0 01-.177.3c.045.007.1 0 .161-.11v.077c-.016.064-.054.154-.071.208-.064.03-.071.155-.11.241a.708.708 0 01-.058-.644c-.086-.064 0-.2.077-.308a.475.475 0 01-.1.064.785.785 0 01.175-.441c.1-.065.194-.065.26.065.017.071.021.1-.134.17-.147.111-.137.12-.076.117" fill="#b86f4c" fill-rule="evenodd"/><path data-name="Trazado 228" d="M11.577 13.148c.761 2.172.82 5.953 1.4 8.31a6.954 6.954 0 00.164.731 3.237 3.237 0 00-.451-.483c-.508-.307-1.81-1.222-3-.632a2.284 2.284 0 00-.255.186c-.1.1-.158.162-.158.162-.064-.165-.081-.24.07-.383.159-.678.323-1.41.489-2.147.082-.35.169-.7.25-1.052a19.17 19.17 0 011.492-4.692" fill="#0b070c" fill-rule="evenodd"/><path data-name="Trazado 229" d="M11.577 13.148c.761 2.172.82 5.953 1.4 8.31a6.954 6.954 0 00.164.731 3.237 3.237 0 00-.451-.483c-.508-.307-1.81-1.222-3-.632a2.284 2.284 0 00-.255.186c-.1.1-.158.162-.158.162-.064-.165-.081-.24.07-.383.159-.678.323-1.41.489-2.147.082-.35.169-.7.25-1.052a19.17 19.17 0 011.491-4.692z" fill="none" stroke="#0b070c" stroke-miterlimit="2.613" stroke-width=".044"/><path data-name="Trazado 230" d="M16.207 16.709l-4.778-3.57.059-.219c.017-.046 2.714 2.1 4.9 3.591.089.063-.131.006-.186.2" fill="#0b070c" fill-rule="evenodd"/><path data-name="Trazado 231" d="M16.207 16.71l-4.779-3.571.062-.218c.016-.045 2.712 2.1 4.9 3.591.092.065-.129.007-.183.198zm-2.874 8.161v.257a.533.533 0 01-.032.117c0 .02-.039.047-.039.088s-.02.1-.02.16v.08c0 .05-.014.141.037 0m.439-.462v.255c0 .049-.037.1-.031.127s-.043.046-.043.08a1.126 1.126 0 00-.012.162v.093c0 .054-.022.14.035 0m.5-.431c0 .068.009.19.009.264 0 .046-.043.105-.043.119s-.044.053-.038.09-.019.1-.019.159v.082c0 .052-.015.137.045 0m-1.352-1.554c-.017.018-.074.064-.074.1v.054l-.021.025v.081l.007.025v.527m-.28-1.094a.747.747 0 00-.073.46c0 .062 0 .168-.022.184a1.012 1.012 0 00-.089.172l-.024.016c-.057.063.057-.016-.238.041m-.3-1.243c0 .038-.015.078-.015.119v.068l-.014.043v.593c0 .069-.013.113.039-.031m-.336-1.029c0 .054-.02.1-.02.135v.059l-.024.04v.024l.01.02v.56c0 .058-.018.1.036-.043m-1.987-2.335a.764.764 0 00-.077.088l-.013.01v.026l-.02.02v.021l-.023.02v.02l-.017.045v.043l-.025.013v.044c.011.04-.016.082-.016.124 0 .023-.013.04-.013.064v.208c0 .063-.023.063.041.023m.646-.231c-.02 0-.073.024-.073.05l-.024.016v.041l-.024.027.008.015v.036h-.025v.1l-.014.05v.037c0 .019-.019.063-.019.088s-.024 0-.024.039v.19c0 .016-.006.041-.006.057m2.4.739a.675.675 0 00-.063.454c0 .063 0 .169-.022.186a1.269 1.269 0 00-.094.168l-.024.024c-.059.063.054-.024-.242.044m-1.354-2.178a3.157 3.157 0 00-.071.523v.369c0 .062-.032.121.024 0m.486-.546a1.747 1.747 0 00-.09.569v.2c0 .065.023.188-.032.188m3.428 1.046c0 .025.039.089.039.1v.294l-.01.048v.02l-.019.016v.04c-.023.024-.061.024-.061.068 0 .018-.04.06-.04.081s-.017.045-.017.061l-.024.025v.124m-.674-1.383c0 .02-.031.085-.031.106v.038l-.024.025v.015l-.021.029v.023l-.013.024v.041l-.024.022v.113a.125.125 0 00-.016.084l.008.061v.164s0 .064.016.044m-3.572-3.172c-.02.026-.059.065-.075.088l-.026.02v.023l-.018.021v.014l-.022.03v.017l-.02.043v.04l-.013.023v.036c0 .049-.02.085-.02.133 0 .015-.016.04-.016.051v.216c0 .062-.02.062.04.017m.654-.17v.25l-.018.043v.045l-.02.042v.02a.4.4 0 00-.015.086v.083a.157.157 0 00-.018.057v.123c0 .062-.014.062.04.022m.467-.569c0 .043-.014.082-.014.125v.06l-.024.049.007.016v.583c.007.058-.014.1.036-.044m.734-.16l-.016.076v.025l-.021.019v.063h-.012v.065l-.027.014v.067c0 .043-.011.081-.011.122v.248c0 .02 0 .064.024.064m-.235-1.064c0 .021-.022.079-.022.105v.1l.006.022v.024l-.016.019v.145c0 .032 0 .122.006.189v.325m3.691 1.037c0 .016-.023.088-.023.1 0 .027-.016.041-.016.074l-.017.012-.024.036v.027h-.016v.019l-.023.019v.013l-.019.013v.021l-.015.019v.039l-.024.029v.127l.011.057v.245m-1.791-1.869c0 .044-.041.108-.041.147v.311c0 .021.008.062.008.088v.057c0 .045-.024 0-.024.045v.037l-.023.022v.033h-.02c-.024.011-.06.1.02.011m-.652-1.067l-.012.081v.041l-.017.026v.008l-.022.02v.091c0 .033-.021.059-.021.1v.316m-.226-.933c-.093.023-.073.038-.073.12v.87m.754-.487l-.058.107v.096l-.024.017.006.044v.521m.755-.391c-.022.025-.076.067-.076.106v.067l-.028.02v.532a.251.251 0 01.012.091m.742-.574v.266a.868.868 0 01-.031.122c0 .018-.043.05-.043.086s-.017.1-.017.15v.092c0 .055-.013.138.043 0m-3.862-3.218a.389.389 0 00-.077.091l-.018.012v.027l-.023.02v.019l-.02.021v.013l-.02.05v.038l-.018.019v.043c0 .035-.02.081-.02.122 0 .017-.019.044-.019.067v.208c0 .062-.013.062.047.015" fill="none" stroke="#0b070c" stroke-miterlimit="2.613" stroke-width=".044"/><path data-name="Trazado 232" d="M8.94 22.279c-.02.093.162-.692.243-.967.059-.19.712-.938 1.021-.938.161 0 .435-.044.634-.044a2.172 2.172 0 011.7.87c.077.078.3.235.311.356a3.556 3.556 0 01.328.723c-1.331-.981-3.915-1.146-4.235 0" fill="#0b070c" fill-rule="evenodd"/><path data-name="Trazado 233" d="M8.94 22.279c-.02.093.162-.692.243-.967.059-.19.712-.938 1.021-.938.161 0 .435-.044.634-.044a2.172 2.172 0 011.7.87c.077.078.3.235.311.356a3.556 3.556 0 01.328.723c-1.332-.981-3.916-1.146-4.237 0z" fill="none" stroke="#0b070c" stroke-miterlimit="2.613" stroke-width=".044"/><path data-name="Trazado 234" d="M8.94 22.131c-.02.08.162-.642.243-.885.059-.178.712-.877 1.021-.877.161 0 .435-.039.634-.039a2.214 2.214 0 011.7.8c.077.067.281.219.311.323a5.2 5.2 0 01.2.638c-1.336-.915-3.789-1.017-4.109.036" fill="#daef41" fill-rule="evenodd"/><path data-name="Trazado 235" d="M8.94 22.131c-.02.08.162-.642.243-.885.059-.178.712-.877 1.021-.877.161 0 .435-.039.634-.039a2.214 2.214 0 011.7.8c.077.067.281.219.311.323a5.2 5.2 0 01.2.638c-1.337-.91-3.788-1.013-4.109.04z" fill="none" stroke="#0b070c" stroke-miterlimit="2.613" stroke-width=".044"/><path data-name="Trazado 236" d="M11.468 13.038c.77 2.239.761 6.149 1.432 8.421a3.313 3.313 0 00-3.27-.61 1.556 1.556 0 00-.448.38c1.261-4.422 1.612-6.634 2.286-8.19" fill="#fc0918" fill-rule="evenodd"/><path data-name="Trazado 237" d="M11.468 13.038c.77 2.239.761 6.149 1.432 8.421a3.313 3.313 0 00-3.27-.61 1.556 1.556 0 00-.448.38c1.261-4.422 1.612-6.633 2.286-8.191z" fill="none" stroke="#0b070c" stroke-miterlimit="2.613" stroke-width=".044"/><path data-name="Trazado 238" d="M12.206 16.66c.041.438.1 1.121.136 1.6 0 .09-1.82-.393-2.536.689.269-.915.319-1.424.493-1.931.02-.042.04-.094.065-.146.395-.361 1.814-.4 1.842-.214" fill="#fff" fill-rule="evenodd"/><path data-name="Trazado 239" d="M12.206 16.66c.041.438.1 1.121.136 1.6 0 .09-1.82-.393-2.536.689.269-.915.319-1.424.493-1.931.02-.042.04-.094.065-.146.395-.359 1.815-.4 1.842-.212z" fill="none" stroke="#0b070c" stroke-miterlimit="2.613" stroke-width=".044"/><path data-name="Trazado 240" d="M11.436 12.306l-.956-.456v1.055l1.033.313z" fill="#0b070c" fill-rule="evenodd"/><path data-name="Trazado 241" d="M11.436 12.306l-.956-.456v1.055l1.033.313z" fill="none" stroke="#0b070c" stroke-miterlimit="2.613" stroke-width=".044"/><path data-name="Trazado 242" d="M11.482 13.19l-.1-.885-.858-.444.016.953c.011.1.921.262.945.376" fill="#daef41" fill-rule="evenodd"/><path data-name="Trazado 243" d="M11.482 13.19l-.1-.885-.858-.444.016.953c.007.105.918.262.942.376z" fill="none" stroke="#0b070c" stroke-miterlimit="2.613" stroke-width=".044"/><path data-name="Trazado 244" d="M11.482 13.19l-.948-1.273.016.938c0 .1.861.253.932.335" fill="#daef41" fill-rule="evenodd"/><path data-name="Trazado 245" d="M11.482 13.19l-.948-1.273.016.938c0 .101.861.253.932.335z" fill="none" stroke="#0b070c" stroke-miterlimit="2.613" stroke-width=".044"/><path data-name="Trazado 246" d="M11.489 12.828a.28.28 0 11-.282.285.284.284 0 01.282-.285" fill="#0b070c" fill-rule="evenodd"/><path data-name="Trazado 247" d="M11.489 12.828a.28.28 0 11-.282.285.284.284 0 01.282-.285z" fill="none" stroke="#0b070c" stroke-miterlimit="2.613" stroke-width=".044"/><path data-name="Trazado 248" d="M11.49 12.926a.2.2 0 01.206.194.2.2 0 01-.206.192.2.2 0 01-.2-.192.194.194 0 01.2-.194" fill="#daef41" fill-rule="evenodd"/><path data-name="Trazado 249" d="M11.49 12.926a.2.2 0 01.206.194.2.2 0 01-.206.192.2.2 0 01-.2-.192.194.194 0 01.2-.194z" fill="none" stroke="#0b070c" stroke-miterlimit="2.613" stroke-width=".044"/><path data-name="Trazado 250" d="M12.831 26.988a3.6 3.6 0 00.141 1.181 1.876 1.876 0 010 .442l.04.106c.006.04-.053.43-.053.43l.019.076c-.019.171.077.426-.113.489m-.872-3.281c.046.416.1.885.15 1.3.049.375-.023.764.024 1.151.013.154.13.763-.161.676m-1.426-3.987a12.547 12.547 0 00-.033 1.77c0 .226-.16.57-.16.8v.506m.747-3.035a4.044 4.044 0 01.13 2.377 2.506 2.506 0 00-.089.621v.659m-1.312-3.822c-.6.687-.4 2.886-.4 3.872m-.595-4.682a6 6 0 00-.159 2.267c0 .762-.04 1.531-.04 2.269m4.128-7.71c-.033.023-.033.023-.033.066v.158c0 .017.021.036.021.057v.1c0 .038-.018.044-.034.078m-.2-.577c-.008.1.029.227.029.345v.135h0m-.222-.6v.505m-.268-.617v.575m-.219-.645c-.02.157.01.392-.02.519m-.239-.593c-.011.119 0 .246 0 .371v.16c0 .015-.011.092-.011-.017m-.171-.557v.3c0 .082-.033.14-.033.231m-.189-.567v.156c0 .059-.023.123-.023.179v.185m-.154-.538v.527h-.02m-.15-.572c-.008.1-.008.211-.008.3v.245c0 .023-.016.045-.016.016m-.184-.586v.516c0 .019-.031.045-.031.054m-.16-.494c-.01-.095-.01 0-.01.011v.294c0 .014-.034.091-.034.112s-.007.024-.007.043v.034M9.874 21v.082a1.011 1.011 0 00-.057.2c0 .03-.012.092-.012.129 0 .017 0 .153-.021.057m.478-.561c-.008-.1-.022 0-.022.016 0 .142-.007.323-.007.474m-.194-.457a.449.449 0 00-.041.272v.125c0 .029-.04.074-.055.091m-.18-.392c0 .084-.07.162-.07.246 0 .03-.021.068-.021.114 0 .031-.012.06-.012.115m-.1-.349c.01-.1-.007-.019-.007 0s-.021.03-.03.049-.034.1-.034.109c0 .07-.013.1-.013.147a.135.135 0 01-.014.076.236.236 0 00-.009.045c-.013.013-.013.04-.024.013m-.093-.357c-.06.051-.06.152-.06.235s-.03.164-.024.224" fill="none" stroke="#0b070c" stroke-miterlimit="2.613" stroke-width=".058"/><path data-name="Trazado 251" d="M8.94 31.841a9.954 9.954 0 00.162 2.186 3.285 3.285 0 01.315 1 2.029 2.029 0 00.159.374c.036.043.08.089.121.089s.16.1.16-.047m-.074-3.3c.218.828.345 1.767.486 2.613a2.517 2.517 0 00.392.9c.06.086.373.514.454.5m.22-3.984a9.007 9.007 0 00.393 1.9c.077.207.134.563.2.756a3.976 3.976 0 01.242.664 2.648 2.648 0 00.139.612c0 .051.225.286.238.39.007.055.121.19.094.04m-.451-3.44c.08.233.183.588.26.815.087.3.392.589.487.888.111.347.4.579.49.871.077.232.275.689.363.984m-3.3-3.959a19.4 19.4 0 01.483 1.991 1.747 1.747 0 00.394.681c.058.066.378.4.447.391" fill="none" stroke="#0b070c" stroke-miterlimit="2.613" stroke-width=".044"/><path data-name="Trazado 252" d="M22.95 38.233l8.214-18.806 6.764-5.485-.242 18.762c-.057 4.143-4.541 10.341-14.736 5.529" fill="#0b070c" fill-rule="evenodd"/><path data-name="Trazado 253" d="M22.404 37.919l8.381-18.507 6.9-5.394-.249 18.457c-.053 4.076-4.642 10.175-15.032 5.443" fill="#fc0918" fill-rule="evenodd"/><path data-name="Trazado 254" d="M34.608 16.546l3.361-2.518-.054-.149c-.008-.02-1.9 1.475-3.436 2.518-.066.042.092.015.129.149" fill="#0b070c" fill-rule="evenodd"/><path data-name="Trazado 255" d="M34.608 16.546l3.361-2.518-.054-.149c-.008-.02-1.9 1.475-3.436 2.518-.067.042.091.014.129.149z" fill="none" stroke="#0b070c" stroke-miterlimit="2.613" stroke-width=".044"/><path data-name="Trazado 256" d="M37.952 13.454l.672-.315v.7l-.007.017v.01l-.722.223z" fill="#0b070c" fill-rule="evenodd"/><path data-name="Trazado 257" d="M37.952 13.454l.672-.315v.7l-.007.017v.01l-.722.223z" fill="none" stroke="#0b070c" stroke-miterlimit="2.613" stroke-width=".044"/><path data-name="Trazado 258" d="M37.922 14.072l.072-.617.594-.315v.665c-.011.065-.651.184-.664.268" fill="#daef41" fill-rule="evenodd"/><path data-name="Trazado 259" d="M37.922 14.072l.072-.617.594-.315v.665c-.012.065-.653.183-.666.267z" fill="none" stroke="#0b070c" stroke-miterlimit="2.613" stroke-width=".044"/><path data-name="Trazado 260" d="M37.922 14.072l.664-.893-.011.665c0 .066-.607.175-.654.228" fill="#daef41" fill-rule="evenodd"/><path data-name="Trazado 261" d="M37.922 14.072l.664-.893-.011.665c.001.066-.606.175-.653.228z" fill="none" stroke="#0b070c" stroke-miterlimit="2.613" stroke-width=".044"/><path data-name="Trazado 262" d="M37.915 13.821a.2.2 0 00-.2.2.2.2 0 00.2.192.192.192 0 00.2-.192.2.2 0 00-.2-.2" fill="#0b070c" fill-rule="evenodd"/><path data-name="Trazado 263" d="M37.915 13.821a.2.2 0 00-.2.2.2.2 0 00.2.192.192.192 0 00.2-.192.2.2 0 00-.2-.2z" fill="none" stroke="#0b070c" stroke-miterlimit="2.613" stroke-width=".044"/><path data-name="Trazado 264" d="M37.919 13.88a.135.135 0 00-.141.136.133.133 0 00.141.137.139.139 0 00.137-.137.142.142 0 00-.137-.136" fill="#daef41" fill-rule="evenodd"/><path data-name="Trazado 265" d="M37.919 13.88a.135.135 0 00-.141.136.133.133 0 00.141.137.139.139 0 00.137-.137.142.142 0 00-.137-.136z" fill="none" stroke="#0b070c" stroke-miterlimit="2.613" stroke-width=".044"/><path data-name="Trazado 266" d="M37.554 25.329c-.452.389-1.306.163-1.4.872-.059.4-.618.378-.778.7-.42.826-1.149.494-1.366.767a1.753 1.753 0 01-1.467.735c-.566-.121-1.149.462-1.689.808-.962.616-1.877.355-1.877 2.51a5.449 5.449 0 00.227 2.315c.563.768 1.6.669 2.68.9.2.041 1.136-.859 2-.611.382.1.819-.163 1.258-.077a1.178 1.178 0 001.382-.463c.294-.615.908-.662.908-.916 0-1.686.1-5.962.117-7.542" fill="#fff" fill-rule="evenodd"/><path data-name="Trazado 267" d="M37.554 25.329c-.452.389-1.306.163-1.4.872-.059.4-.618.378-.778.7-.42.826-1.149.494-1.366.767a1.753 1.753 0 01-1.467.735c-.566-.121-1.149.462-1.689.808-.962.616-1.877.355-1.877 2.51a5.449 5.449 0 00.227 2.315c.563.768 1.6.669 2.68.9.2.041 1.136-.859 2-.611.382.1.819-.163 1.258-.077a1.178 1.178 0 001.382-.463c.294-.615.908-.662.908-.916.005-1.68.108-5.96.122-7.54z" fill="none" stroke="#0b070c" stroke-miterlimit="2.613" stroke-width=".044"/><path data-name="Trazado 268" d="M31.334 26.655c.944-.717 4.73-2.2 5.271-3.268.523-1.058-.393-2.537-.152-1.745.32.979-3.123 2.4-4.067 2.8-.368.159-1.563.562-1.563 1.056 0 .076.12.452.12.559 0 .339.391.524.391.593" fill="#0b070c" fill-rule="evenodd"/><path data-name="Trazado 269" d="M31.334 26.655c.944-.717 4.73-2.2 5.271-3.268.523-1.058-.393-2.537-.152-1.745.32.979-3.123 2.4-4.067 2.8-.368.159-1.563.562-1.563 1.056 0 .076.12.452.12.559 0 .343.391.526.391.598z" fill="none" stroke="#0b070c" stroke-miterlimit="2.613" stroke-width=".044"/><path data-name="Trazado 270" d="M31.097 26.515c.96-.768 4.819-2.371 5.368-3.534.54-1.141-.4-2.742-.141-1.877.322 1.063-3.2 2.586-4.166 3.026-.373.173-1.587.6-1.587 1.127 0 .089.128.49.128.623 0 .357.4.554.4.636" fill="#daef41" fill-rule="evenodd"/><path data-name="Trazado 271" d="M31.097 26.515c.96-.768 4.819-2.371 5.368-3.534.54-1.141-.4-2.742-.141-1.877.322 1.063-3.2 2.586-4.166 3.026-.373.173-1.587.6-1.587 1.127 0 .089.128.49.128.623.001.354.398.55.398.635z" fill="none" stroke="#0b070c" stroke-miterlimit="2.613" stroke-width=".044"/><path data-name="Trazado 272" d="M29.55 26.581c-.052-3.918-.826-8.17-.317-9.81a38.21 38.21 0 004.807-3.6c.161-.146 1.875 6.625 2.427 8.13-.647 1.917-3.777 2.556-6.918 5.281" fill="#fc0918" fill-rule="evenodd"/><path data-name="Trazado 273" d="M29.55 26.581c-.052-3.918-.826-8.17-.317-9.81a38.21 38.21 0 004.807-3.6c.161-.146 1.875 6.625 2.427 8.13-.646 1.916-3.776 2.551-6.917 5.28z" fill="none" stroke="#0b070c" stroke-miterlimit="2.613" stroke-width=".044"/><path data-name="Trazado 274" d="M31.163 18.707c.282-.117.925-.747 1.23-.885.687-.308 2.106-1.56 2.424-1.264a3.658 3.658 0 01.858 2.133c.053.347-.261.353-.535.48-.479.22-.692.479-1.2.546-1.311.163-2.026 1.157-2.7.86-.265-.127-.142-1.064-.467-1.221-.467-.233.2-.383.4-.649" fill="#fff" fill-rule="evenodd"/><path data-name="Trazado 275" d="M31.163 18.707c.282-.117.925-.747 1.23-.885.687-.308 2.106-1.56 2.424-1.264a3.658 3.658 0 01.858 2.133c.053.347-.261.353-.535.48-.479.22-.692.479-1.2.546-1.311.163-2.026 1.157-2.7.86-.265-.127-.142-1.064-.467-1.221-.477-.233.195-.384.39-.649z" fill="none" stroke="#0b070c" stroke-miterlimit="2.613" stroke-width=".044"/><path data-name="Trazado 276" d="M29.358 21.726c-.026.066.044.206.147.369a.29.29 0 01-.2-.1.664.664 0 00.185.287c-.047.025-.108 0-.171-.1v.073c.021.057.05.153.077.219.054.016.073.14.11.238a.756.756 0 00.059-.647c.077-.069-.008-.2-.075-.306.016 0 .07.05.094.06a.772.772 0 00-.182-.45.155.155 0 00-.251.061c-.024.087-.024.107.124.183.157.114.146.114.083.114" fill="#b86f4c" fill-rule="evenodd"/><path data-name="Trazado 277" d="M34.097 13.214c-.755 2.169-.826 5.959-1.405 8.31a4.33 4.33 0 01-.164.728 5.114 5.114 0 01.456-.479c.515-.314 1.811-1.228 3-.634a1.318 1.318 0 01.251.192c.1.1.164.151.164.151.069-.164.08-.235-.077-.381-.153-.677-.318-1.4-.486-2.148-.087-.347-.168-.7-.251-1.052a19.6 19.6 0 00-1.489-4.687" fill="#0b070c" fill-rule="evenodd"/><path data-name="Trazado 278" d="M34.097 13.214c-.755 2.169-.826 5.959-1.405 8.31a4.33 4.33 0 01-.164.728 5.114 5.114 0 01.456-.479c.515-.314 1.811-1.228 3-.634a1.318 1.318 0 01.251.192c.1.1.164.151.164.151.069-.164.08-.235-.077-.381-.153-.677-.318-1.4-.486-2.148-.087-.347-.168-.7-.251-1.052a19.6 19.6 0 00-1.488-4.687z" fill="none" stroke="#0b070c" stroke-miterlimit="2.613" stroke-width=".044"/><path data-name="Trazado 279" d="M29.466 16.776l4.779-3.586-.064-.206c-.013-.037-2.715 2.091-4.906 3.6-.083.057.141 0 .191.2" fill="#0b070c" fill-rule="evenodd"/><path data-name="Trazado 280" d="M29.465 16.776l4.779-3.587-.064-.2c-.013-.037-2.715 2.091-4.905 3.594-.083.054.14-.004.19.193zm2.869 8.157v.259a.387.387 0 00.04.121c0 .024.037.058.037.093s.02.105.02.148v.089c0 .057.021.142-.043 0m-.437-.462v.259a.352.352 0 00.035.114c0 .025.046.064.046.089s.019.113.019.16c0 .023-.009.076-.009.087 0 .046.021.137-.034 0m-.507-.43v.259a.334.334 0 00.045.119c0 .023.03.057.03.092a.643.643 0 01.009.156v.085c0 .055.024.139-.029 0m1.349-1.55c.023.024.081.062.076.106v.058l.013.019v.353l-.005.062v.2m.288-1.081a.736.736 0 01.07.461.532.532 0 00.017.184.993.993 0 01.1.167l.018.021c.057.063-.057-.021.239.049m.306-1.253c0 .039.019.087.019.125v.056l.017.048v.27a.371.371 0 00-.007.081v.252c0 .064.016.11-.041-.044m.342-1.016c0 .04.019.075.019.116v.065l.021.036v.171l-.01.037v.375l-.006.023c0 .058.016.1-.038-.042m1.983-2.339a.485.485 0 00.083.084l.016.02v.021l.024.025v.026l.013.018v.024l.024.042v.034l.02.03v.041c0 .042.01.087.01.117s.024.049.024.069v.208c0 .065.015.065-.041.011m-.655-.219c.027 0 .089.021.089.041l.01.024v.043l.024.011v.073h.019v.058l-.011.023v.022l.025.04v.04c0 .024.019.06.019.089s.025 0 .025.035l-.008.062v.132c0 .016.019.036.019.056m-2.415.74a.739.739 0 01.072.464.606.606 0 00.017.185.671.671 0 01.1.161l.019.021c.05.063-.06-.021.236.046m1.361-2.181a3.3 3.3 0 01.074.518 2.034 2.034 0 01-.01.248v.124c0 .064.04.122-.013 0m-.494-.547a1.7 1.7 0 01.093.562v.209c0 .059-.025.183.033.183m-3.43 1.056c0 .024-.047.09-.047.106v.29l.017.046v.023l.022.016v.042c.017.018.057.021.057.059s.037.067.037.086.025.04.025.062l.02.021v.129m.675-1.386c0 .023.042.09.042.107v.046l.01.01v.025l.02.019v.027l.025.017v.036l.015.023v.124a.148.148 0 01.014.088v.232s0 .063-.016.033m3.572-3.179a.779.779 0 01.073.09l.023.02v.024l.016.02v.017l.023.018v.027l.022.041v.042l.016.021v.036c0 .041.02.081.018.119s.02.051.02.073l-.008.081v.125c0 .065.024.065-.037.019m-.654-.167v.245l.017.044v.041l.023.045v.016c0 .027.018.04.018.08v.083a.233.233 0 01.019.068v.12c0 .062.01.062-.047.022m-.469-.563c0 .042.017.089.017.117v.073l.018.037v.599c0 .059.013.1-.045-.049m-.722-.159l.019.078v.026l.014.018v.062h.016v.062l.02.02v.063c0 .037.019.086.019.124v.247c0 .027 0 .063-.026.063m.235-1.063c0 .017.023.081.023.107v.142l.015.023v.15a1.546 1.546 0 01-.008.181v.334m-3.7 1.024c0 .026.022.083.022.113s.03.041.017.054l.023.031.019.036-.007.023h.028v.018l.018.022v.022h.019v.024l.019.019v.044l.019.008v.3l-.007.023v.119m1.8-1.863c0 .04.034.1.034.143v.313a.617.617 0 000 .089v.047c0 .05.015 0 .015.05v.041l.026.023-.008.02h.021c.017.015.057.107-.021.015m.654-1.054l.01.075v.04l.03.024v.019l.013.018v.083c0 .043.024.067.024.1v.115c0 .016-.007.039-.007.063v.133m.228-.925c.1.017.079.043.073.121 0 .275 0 .608-.014.878m-.742-.486l.057.1v.081l.017.023v.185c0 .023-.007.064-.007.086v.29m-.747-.387c.017.021.081.067.081.106v.077l.017.02v.477l-.009.013v.133m-.745-.568v.258a.548.548 0 00.023.124c0 .012.047.052.047.092s.02.093.02.154a.441.441 0 01-.006.083c0 .052.02.138-.037 0m3.86-3.218a.792.792 0 00.077.082l.017.025v.019l.027.026v.02l.013.017v.017l.02.041v.043l.017.024v.041c0 .043.024.083.024.122 0 .022.013.045.013.064v.205c0 .062.018.068-.041.02" fill="none" stroke="#0b070c" stroke-miterlimit="2.613" stroke-width=".044"/><path data-name="Trazado 281" d="M36.729 22.348c.024.09-.157-.7-.237-.97-.062-.18-.711-.94-1.028-.94-.164 0-.433-.043-.63-.043a2.14 2.14 0 00-1.69.872c-.084.072-.311.231-.321.356a3.883 3.883 0 00-.322.73c1.327-.985 3.913-1.153 4.231 0" fill="#0b070c" fill-rule="evenodd"/><path data-name="Trazado 282" d="M36.729 22.348c.024.09-.157-.7-.237-.97-.062-.18-.711-.94-1.028-.94-.164 0-.433-.043-.63-.043a2.14 2.14 0 00-1.69.872c-.084.072-.311.231-.321.356a3.883 3.883 0 00-.322.73c1.324-.985 3.91-1.153 4.228-.005z" fill="none" stroke="#0b070c" stroke-miterlimit="2.613" stroke-width=".044"/><path data-name="Trazado 283" d="M36.73 22.196c.024.083-.157-.64-.237-.888-.062-.175-.711-.876-1.028-.876-.164 0-.433-.037-.63-.037a2.2 2.2 0 00-1.694.805c-.084.073-.289.215-.321.322a4.939 4.939 0 00-.2.634c1.333-.922 3.788-1.013 4.106.04" fill="#daef41" fill-rule="evenodd"/><path data-name="Trazado 284" d="M36.73 22.196c.024.083-.157-.64-.237-.888-.062-.175-.711-.876-1.028-.876-.164 0-.433-.037-.63-.037a2.2 2.2 0 00-1.694.805c-.084.073-.289.215-.321.322a4.939 4.939 0 00-.2.634c1.337-.925 3.792-1.012 4.11.04z" fill="none" stroke="#0b070c" stroke-miterlimit="2.613" stroke-width=".044"/><path data-name="Trazado 285" d="M34.2 13.107c-.775 2.236-.765 6.147-1.421 8.406a3.279 3.279 0 013.263-.589 1.493 1.493 0 01.452.372c-1.269-4.437-1.613-6.64-2.294-8.189" fill="#fc0918" fill-rule="evenodd"/><path data-name="Trazado 286" d="M34.2 13.107c-.775 2.236-.765 6.147-1.421 8.406a3.279 3.279 0 013.263-.589 1.493 1.493 0 01.452.372c-1.269-4.437-1.613-6.64-2.294-8.189z" fill="none" stroke="#0b070c" stroke-miterlimit="2.613" stroke-width=".044"/><path data-name="Trazado 287" d="M33.467 16.719c-.053.438-.1 1.12-.136 1.609-.011.084 1.817-.394 2.533.7-.267-.917-.321-1.441-.5-1.929a.412.412 0 00-.064-.153c-.4-.364-1.808-.414-1.835-.224" fill="#fff" fill-rule="evenodd"/><path data-name="Trazado 288" d="M33.467 16.719c-.053.438-.1 1.12-.136 1.609-.011.084 1.817-.394 2.533.7-.267-.917-.321-1.441-.5-1.929a.412.412 0 00-.064-.153c-.391-.363-1.807-.418-1.833-.227z" fill="none" stroke="#0b070c" stroke-miterlimit="2.613" stroke-width=".044"/><path data-name="Trazado 289" d="M34.24 12.374l.951-.457v1.058l-1.038.316z" fill="#0b070c" fill-rule="evenodd"/><path data-name="Trazado 290" d="M34.24 12.374l.951-.457v1.058l-1.038.316z" fill="none" stroke="#0b070c" stroke-miterlimit="2.613" stroke-width=".044"/><path data-name="Trazado 291" d="M34.194 13.256l.1-.882.853-.447-.02.948c0 .1-.929.263-.935.381" fill="#daef41" fill-rule="evenodd"/><path data-name="Trazado 292" d="M34.194 13.256l.1-.882.853-.447-.02.948c.002.102-.927.263-.933.381z" fill="none" stroke="#0b070c" stroke-miterlimit="2.613" stroke-width=".044"/><path data-name="Trazado 293" d="M34.194 13.256l.941-1.279-.017.942c0 .1-.855.253-.924.337" fill="#daef41" fill-rule="evenodd"/><path data-name="Trazado 294" d="M34.194 13.256l.941-1.279-.017.942c0 .102-.854.254-.924.337z" fill="none" stroke="#0b070c" stroke-miterlimit="2.613" stroke-width=".044"/><path data-name="Trazado 295" d="M34.176 12.904a.275.275 0 00-.285.275.284.284 0 00.568 0 .274.274 0 00-.283-.275" fill="#0b070c" fill-rule="evenodd"/><path data-name="Trazado 296" d="M34.176 12.904a.275.275 0 00-.285.275.284.284 0 00.568 0 .274.274 0 00-.283-.275z" fill="none" stroke="#0b070c" stroke-miterlimit="2.613" stroke-width=".044"/><path data-name="Trazado 297" d="M34.179 12.984a.2.2 0 00-.2.2.2.2 0 10.2-.2" fill="#daef41" fill-rule="evenodd"/><path data-name="Trazado 298" d="M34.18 12.984a.2.2 0 100 .392.2.2 0 100-.392zm-1.309 8.529c.033.044.033.044.033.079v.154c0 .016-.016.041-.016.065v.1c0 .034.01.041.034.069m.189-.575a2.155 2.155 0 01-.019.345v.135h0m.222-.594v.505m.271-.624v.578m.215-.645c.019.155-.007.4.019.526m.238-.592c.011.115 0 .242 0 .367v.164c0 .012.011.083.011-.008m.18-.571v.313c0 .075.027.132.027.214m.192-.555v.155c0 .054.016.121.016.186v.185m.161-.551v.53s.016 0 .016-.006m.156-.567v.55c0 .016.008.042.008.009m.191-.58v.521c0 .015.024.04.024.05m.168-.494c.01-.1.01 0 .01.011v.288c0 .02.026.1.026.115s.01.03.01.045.013 0 .013.024v.01m.527-.377v.084a.866.866 0 01.057.2c0 .026.007.088.007.13 0 .015 0 .148.024.051m-.476-.568c.011-.1.024.011.024.02 0 .149.007.324.007.471m.191-.45a.473.473 0 01.05.268v.125c0 .03.042.083.047.1m.175-.4c0 .087.078.166.078.253 0 .026.022.063.022.1s.009.067.009.119m.1-.348c-.013-.093.01-.012.01 0 .009.027.016.027.031.047s.026.1.026.116c0 .059.024.092.024.143a.255.255 0 00.006.074.39.39 0 01.009.039c.011.017.011.052.024.017m.1-.355a.309.309 0 01.057.23c0 .086.031.163.024.235m.379 2.921a6.156 6.156 0 01.155 2.267c0 .762.04 1.535.04 2.27m-4.154-2.169a4.267 4.267 0 01-.142 1.171 1.68 1.68 0 000 .443l-.037.121a2.96 2.96 0 00.052.419l-.025.081c.02.164-.074.422.118.478m.874-3.27l-.161 1.294c-.043.381.024.783-.007 1.156-.023.154-.143.765.148.669m1.421-3.979a12.4 12.4 0 01.044 1.77c0 .227.154.576.154.807v.5m-.746-3.04a4.059 4.059 0 00-.125 2.387 2.643 2.643 0 01.084.609v.653m1.313-3.826c.6.694.4 2.885.4 3.877m.517 2.522a9.448 9.448 0 01-.164 2.189 3.3 3.3 0 00-.313 1 2.146 2.146 0 01-.157.371c-.04.055-.081.094-.122.094s-.154.1-.154-.04m.074-3.309c-.225.829-.348 1.781-.489 2.625a2.65 2.65 0 01-.4.9c-.05.084-.37.508-.446.506m-.211-3.984a8.94 8.94 0 01-.392 1.9c-.077.2-.131.564-.207.762a3.121 3.121 0 00-.235.657 3.28 3.28 0 01-.145.608c0 .049-.218.286-.235.389-.013.049-.121.2-.094.034m.451-3.446c-.072.238-.188.587-.26.822-.093.285-.4.582-.488.881-.109.349-.4.571-.485.872-.076.232-.268.691-.367.981m3.3-3.955a18.891 18.891 0 00-.487 2 1.925 1.925 0 01-.389.676c-.06.066-.373.4-.452.392" fill="none" stroke="#0b070c" stroke-miterlimit="2.613" stroke-width=".044"/><path data-name="Trazado 299" d="M22.87 39.309c.22-.272.55-.671-.108-.8-.448.17-.084.556.108.8m.822-2.763a23.3 23.3 0 001.073 2.339c.05.117.117.246.05.345-.443.591.372.9.305 1.023s.13.133.164.244c.081.288-.258.24-.527.232-.291-.009.456 1.066.352 1.04-.891-.229-2.148-.057-2.169-.866 0-.356.479-.546.419-.831-.007-.044-.239.036-.426-.017a.262.262 0 01-.124-.06.06.06 0 01-.038.017c-.193.049-.419-.038-.439.016-.053.282.424.469.424.825-.024.819-1.278.638-2.174.859-.093.033.658-1.039.359-1.033-.268.006-.6.064-.519-.222.031-.113.222-.132.158-.251s.741-.434.309-1.022c-.073-.1 0-.234.047-.345a23.272 23.272 0 001.073-2.341c.187.029.375-.28.408-.317.233-.282.162-.262.158-.032a2.271 2.271 0 00.285.93 2.22 2.22 0 00.274-.875c-.013-.241-.083-.253.149.025.03.039.225.346.41.318" fill="#0b070c" fill-rule="evenodd"/><path data-name="Trazado 300" d="M22.87 39.309c.22-.272.55-.671-.108-.8-.449.173-.085.559.108.8zm.822-2.763a23.3 23.3 0 001.073 2.339c.05.117.117.246.05.345-.443.591.372.9.305 1.023s.13.133.164.244c.081.288-.258.24-.527.232-.291-.009.456 1.066.352 1.04-.891-.229-2.148-.057-2.169-.866 0-.356.479-.546.419-.831-.007-.044-.239.036-.426-.017a.262.262 0 01-.124-.06.06.06 0 01-.038.017c-.193.049-.419-.038-.439.016-.053.282.424.469.424.825-.024.819-1.278.638-2.174.859-.093.033.658-1.039.359-1.033-.268.006-.6.064-.519-.222.031-.113.222-.132.158-.251s.741-.434.309-1.022c-.073-.1 0-.234.047-.345a23.272 23.272 0 001.073-2.341c.187.029.375-.28.408-.317.233-.282.162-.262.158-.032a2.271 2.271 0 00.285.93 2.22 2.22 0 00.274-.875c-.013-.241-.083-.253.149.025.029.038.223.346.409.318z" fill="none" stroke="#0b070c" stroke-miterlimit="2.613" stroke-width=".044"/><path data-name="Trazado 301" d="M22.067 36.673a22.7 22.7 0 01-1.018 2.267c-.037.109-.108.233-.037.332.412.569-.35.872-.3.982s-.116.134-.143.245c-.077.278.238.226.492.226s-.43 1.023-.332.989c.832-.208 2.013-.042 2.039-.833 0-.342-.452-.52-.4-.79.009-.053.22.036.405-.022a.272.272 0 00.2-.286 1.011 1.011 0 00-.016-.227c-.041-.219-.911-.874.087-1 .084 0 .366.131.366.057-.04-.631-.842-1.634-.822-2.268 0-.232.064-.239-.147.023-.031.03-.2.341-.38.31" fill="#fc0918" fill-rule="evenodd"/><path data-name="Trazado 302" d="M22.068 36.672a22.716 22.716 0 01-1.018 2.268c-.038.109-.108.232-.038.332.413.569-.349.872-.3.981.064.125-.116.134-.143.245-.077.278.238.225.492.225s-.43 1.024-.332.99c.833-.207 2.013-.042 2.039-.834 0-.342-.452-.52-.4-.789.009-.053.221.036.405-.023a.272.272 0 00.2-.286.99.99 0 00-.017-.227c-.04-.218-.911-.873.088-1 .083 0 .366.131.366.058-.041-.632-.843-1.635-.824-2.269 0-.232.065-.239-.146.023-.025.026-.199.337-.372.306zm-1.338 5.042c1.026-.11 1.849-.242 1.989-.537.382-.79-2.156-.31-2.17-.5-.036-1.132 2.362-.272 2.432-.748.131-.914-1.985-.359-1.971-.659.064-1.162 2.538-.679 2.273-.63" fill="none" stroke="#0b070c" stroke-miterlimit="2.613" stroke-width=".044"/><path data-name="Trazado 303" d="M23.643 36.717a22.915 22.915 0 001.013 2.266c.043.108.108.238.043.326-.412.579.349.876.3.986-.071.126.114.139.144.253.075.278-.238.22-.491.215-.272 0 .424 1.029.332 1.005-.833-.219-2.016-.053-2.039-.836 0-.347.446-.535.395-.8-.007-.043-.221.031-.4-.017a.278.278 0 01-.207-.292.936.936 0 01.02-.221c.04-.22.918-.874-.1-1-.073-.01-.362.119-.362.053.043-.634.844-1.646.827-2.27-.006-.232-.069-.24.143.032.021.033.21.33.381.3" fill="#fc0918" fill-rule="evenodd"/><path data-name="Trazado 304" d="M23.642 36.717a23.069 23.069 0 001.013 2.267c.043.108.108.238.043.326-.412.579.349.876.295.986-.07.126.115.138.146.252.074.278-.239.221-.492.215-.272 0 .424 1.03.331 1.006-.832-.22-2.016-.053-2.038-.837 0-.347.446-.534.395-.8-.007-.043-.223.032-.4-.017a.277.277 0 01-.207-.291.971.971 0 01.019-.222c.04-.22.919-.873-.1-1-.073-.01-.361.119-.361.054.043-.635.845-1.647.827-2.271-.007-.232-.069-.24.144.033.026.029.214.327.385.299zm1.33 5.054c-1.026-.121-1.852-.248-1.989-.548-.375-.787 2.165-.318 2.171-.5.043-1.124-2.358-.278-2.426-.752-.131-.915 1.983-.363 1.97-.662-.066-1.161-2.536-.672-2.284-.628" fill="none" stroke="#0b070c" stroke-miterlimit="2.613" stroke-width=".044"/><path data-name="Trazado 305" d="M22.86 38.187a2.383 2.383 0 00-1.611-.923c-1.7-.245-3.366.032-4.962-.659-1.03-.44-3.531-1.992-3.256-4.831.318-3.349 1.71-4.345 1.861-8.013a5.891 5.891 0 00-1.626-3.655c.979-1.057 2.146-2.5 3.128-3.559 1.976 1.572 4.581 1.081 6.466.013 1.9 1.082 4.5 1.559 6.473-.008.99 1.052 2.146 2.5 3.132 3.564a5.888 5.888 0 00-1.626 3.645c.151 3.668 1.543 4.669 1.864 8.013.275 2.845-2.234 4.4-3.259 4.837-1.6.686-3.265.417-4.965.653a2.518 2.518 0 00-1.619.923" fill="#0b070c" fill-rule="evenodd"/><path data-name="Trazado 306" d="M22.86 38.187a2.383 2.383 0 00-1.611-.923c-1.7-.245-3.366.032-4.962-.659-1.03-.44-3.531-1.992-3.256-4.831.318-3.349 1.71-4.345 1.861-8.013a5.891 5.891 0 00-1.626-3.655c.979-1.057 2.146-2.5 3.128-3.559 1.976 1.572 4.581 1.081 6.466.013 1.9 1.082 4.5 1.559 6.473-.008.99 1.052 2.146 2.5 3.132 3.564a5.888 5.888 0 00-1.626 3.645c.151 3.668 1.543 4.669 1.864 8.013.275 2.845-2.234 4.4-3.259 4.837-1.6.686-3.265.417-4.965.653a2.518 2.518 0 00-1.619.923z" fill="none" stroke="#0b070c" stroke-miterlimit="2.613" stroke-width=".044"/><path data-name="Trazado 307" d="M23.267 26.985v-9.308a6.224 6.224 0 005.759 0c.92.986 1.5 1.537 2.411 2.536a5.854 5.854 0 00-1.3 3.852 10.288 10.288 0 00.56 2.926z" fill="#fff" fill-rule="evenodd"/><path data-name="Trazado 308" d="M15.179 26.989a8.449 8.449 0 00.511-2.978c0-1.146-.413-3.129-1.378-3.965.908-1 1.358-1.538 2.273-2.52 1.7 1.35 4.154.906 5.9.033v9.429z" fill="#63c0d3" fill-rule="evenodd"/><path data-name="Trazado 309" d="M31.038 27.488H14.827a12.992 12.992 0 00-1.214 4.016c-.254 2.685 2.1 4.13 3.068 4.546 1.5.646 3.069.391 4.661.621a2.273 2.273 0 011.516.861 2.352 2.352 0 011.519-.86c1.606-.226 3.173.034 4.664-.615.981-.416 3.321-1.868 3.076-4.547a15.178 15.178 0 00-1.08-4.022m-7.938-.357h7.821a8.341 8.341 0 01-.557-3.155c.041-1.157.362-2.942 1.341-3.79-.922-1-1.7-1.812-2.629-2.813a5.857 5.857 0 01-5.975-.029zm-8.14 0h7.692v-9.814c-1.77.938-4.319 1.412-6.1-.008-.932 1-1.617 1.756-2.549 2.758a5.874 5.874 0 011.493 3.9 8.839 8.839 0 01-.54 3.161m7.9 10.87a2.4 2.4 0 00-1.59-.862c-1.683-.235-3.33.043-4.9-.638-1.015-.444-3.493-1.978-3.215-4.784.309-3.3 1.695-4.289 1.835-7.917a6.015 6.015 0 00-1.518-3.715c.974-1.052 1.991-2.3 2.97-3.35 1.949 1.555 4.558 1.01 6.422-.05 1.881 1.063 4.511 1.637 6.463.08.976 1.043 2.013 2.279 2.984 3.325a5.991 5.991 0 00-1.563 3.711c.145 3.625 1.526 4.621 1.84 7.926.267 2.8-2.2 4.329-3.225 4.779-1.57.675-3.217.4-4.893.639a2.456 2.456 0 00-1.607.855" fill="#daef41" fill-rule="evenodd"/><path data-name="Trazado 310" d="M22.859 37.371a2.247 2.247 0 00-1.5-.815c-1.578-.217-3.129.033-4.607-.606-.956-.41-3.226-1.859-2.972-4.49a12.168 12.168 0 011.16-3.868c5.35 0 10.614.021 15.977.021a14.643 14.643 0 011.015 3.848c.249 2.643-2 4.087-2.967 4.5-1.479.634-3.025.383-4.6.608a2.262 2.262 0 00-1.512.806" fill="#fc0918" fill-rule="evenodd"/><path data-name="Trazado 311" d="M24.099 28.768c.4.137.823.3.851.651a.892.892 0 01.77.721c.316.149.487.207.517.438a.56.56 0 01.457.354.727.727 0 01.66.361.482.482 0 01.5.1.639.639 0 01.581 0c.078-.014.165-.024.245-.034a.583.583 0 01.473-.249.243.243 0 01.134-.291c-.088-.151-.151-.3.013-.462a.279.279 0 01.007-.378.288.288 0 01-.1-.307.373.373 0 01-.254-.259c-.229-.043-.347-.121-.394-.211a.275.275 0 01-.237.033c-.082.11-.182.1-.29.11a.577.577 0 01-.3.29.982.982 0 00.034.21c.2-.082.4.223.272.424s-.463.277-.536.009a.507.507 0 01-.353-.281c-.07-.18-.123-.243-.006-.378a.4.4 0 01.175-.552c.107-.224.243-.333.432-.309.117-.147.158-.292.486-.26a.6.6 0 01.671 0 .492.492 0 01.519.217c.158.076.352.128.389.373.191.113.425.184.352.5a.8.8 0 01.294.649.821.821 0 01.033.579 1.963 1.963 0 01-.3 1.348.853.853 0 01-.611.67c-.25.46-.547.569-.872.483a.812.812 0 01-.8.252c-.353.17-.7.325-.91.148a1.087 1.087 0 01-1.143-.045.887.887 0 01-1.047-.35.745.745 0 01-.805-.278c-.5.207-.911.241-1.191-.043a.364.364 0 01-.268.077.854.854 0 01.08.928.823.823 0 01.738.2.72.72 0 011.109.216c.757-.287 1.044-.059 1.2.508a.491.491 0 01.508-.1c.3-.511.778-.353 1.005.069s-.266.955-.826.866a.673.673 0 01-.714.124 1.127 1.127 0 01-.945-.1.79.79 0 01-.905.192c-.456.788-.9.512-1.352.25-.336.177-.615-.012-.9-.183a.6.6 0 01-.576.306.554.554 0 01-.46-.185.881.881 0 01-1.1-.086.63.63 0 01-.788-.417.569.569 0 01-.38.027.7.7 0 01-1.23-.5c-.278.008-.558-.006-.743-.53-.049-.138.013-.236.063-.376-.319-.2-.436-.367-.271-.851-.336-.159-.482-.483-.2-.985a1.031 1.031 0 01.213-1.423 2.052 2.052 0 01.962-.592c-.008-.381.184-.687.832-.793a.955.955 0 011.01-.857 1.075 1.075 0 011.2-.429c.17-.287.535-.4 1.364-.127a1.1 1.1 0 011.36.146c.2-.241 1.022.031 1.294.383" fill="#0b070c" fill-rule="evenodd"/><path data-name="Trazado 312" d="M16.007 32.367c.067 0 .125-.019.19-.019-.167-.375.081-.7.577-.719a2.7 2.7 0 011.67.773 5.1 5.1 0 001.64.88 16.474 16.474 0 011.911.41c.283.139.238.319.168.665a.585.585 0 00.39-.5c-.038-.513-.39-.93-1.244-1.221a2.994 2.994 0 01-2.164-.713 2.737 2.737 0 00-1.407-1.164 1.508 1.508 0 00-1.232.12c-.578.3-.64.621-.626.932.041.184.081.369.127.551m3.92-.193c-.559-.538-.3-.835-.849-1.637-.467-.687-1.746-1.1-1.9-.053 1.591.118 1.516.8 2.312 1.417.178.023.465.214.441.274m.92.23c-.624-.538-.624-1.876-1.1-2.68-.422-.714-1.318-1.049-1.741-.028 1.791.395 1.232 1.749 2.247 2.522a2.345 2.345 0 00.591.185m.408-.013c-.4-.655-.191-2.058-.47-2.957-.174-.608-1.186-1.368-1.854-.484 1.724.4.956 2.111 2.1 3.435.171.056.265-.048.225.006m.476.127c-.369-.762.074-2.147.124-3.064.034-.611-.791-1.678-1.668-.987 1.578.792.556 2.355 1.313 3.991.16.106.274.019.23.06m.349.163c-.244-.773.648-2.077.842-3.08a.979.979 0 00-1.286-1.179c1.013 1.036-.256 3.072.2 4.132.121.1.3.09.244.131m.292.095c.112-.721 1.251-2.08 1.546-3.077.195-.637.041-1.227-.956-1.115.742 1.239-.966 2.961-.779 4.092-.052.1.257.026.189.1m.168.018c.614.805 3.43-3.34 1.653-3.826a3.291 3.291 0 01-.615 2.019c-.446.753-1.041 1.232-1.038 1.807m.529.138c1.191.691 3.481-2.84 1.862-3.331.242.993-1.366 3.269-1.862 3.331m1.044.007c.883.684 1.771-.258 1.921-1.394a1.253 1.253 0 00-.284-1.163 3.938 3.938 0 01-1.636 2.557m1.017.368c.845.686 1.506-.34 1.565-1.272.028-.623-.09-1.161-.469-1.213.137.966-.437 2.3-1.1 2.485m.921.268c.892.556 1.355-.544 1.349-1.323 0-.609-.5-1.053-.624-.989.313.829-.2 2.249-.725 2.312m1.121-.053c.845.319 1.277-.944.829-1.621-.242-.356-.432-.373-.567-.316a1.922 1.922 0 01-.262 1.937m.93-.074c.677.105.858-.9.529-1.412-.235-.369-.439-.389-.566-.325a1.689 1.689 0 01.036 1.737m.754-.3c.672.1.686-.729.359-1.256-.239-.366-.436-.383-.575-.316a2.028 2.028 0 01.215 1.572m.745-.433a.743.743 0 00.064-1.262c-.369-.279-.586-.251-.767-.027a1.238 1.238 0 01.7 1.289m.524-.668a.59.59 0 000-.932.55.55 0 00-.8 0c.36-.028.952.618.8.932m.278-.859a.4.4 0 00-.352-.553c-.376-.055-.466.05-.492.2a.84.84 0 01.844.352m-2.231-2.569c-.115.03-.4.1-.3.407a.252.252 0 00.43.117.476.476 0 01-.128-.525m.576-.066c-.111-.025-.389-.094-.459.232a.249.249 0 00.317.321.5.5 0 01.142-.552m.566.18a.376.376 0 00-.58.085.271.271 0 00.222.446.626.626 0 01.357-.531m.413.326a.333.333 0 00-.54.023.252.252 0 00.087.41c-.016-.165.2-.4.454-.433m.332.537a.307.307 0 00-.5-.259c-.323.178-.216.462-.114.462.01-.17.338-.284.61-.2m.235.5c-.014-.181-.158-.4-.527-.269s-.393.423-.289.434c.023-.175.541-.248.816-.165m.1.476a.463.463 0 00-.624-.369c-.352.129-.366.276-.311.429a.789.789 0 01.935-.06m-2.8-.764a.43.43 0 01-.385-.051c-.034.149.118.387.309.33s.163-.188.076-.279m.052-.294c-.152.032-.262-.1-.318-.259-.053.138-.152.3 0 .393.13.069.267.093.318-.134m.042-.635a.263.263 0 00-.194.348c.079.2.263.2.407.085a.5.5 0 01-.213-.433m.092 1.083c-.016.073-.11.2-.2.208a.2.2 0 00.348.092c.124-.194.033-.327-.151-.3" fill="#eeb930" fill-rule="evenodd"/><path data-name="Trazado 313" d="M22.937 35.132a.514.514 0 01-.5.345c-.285.02-.537-.135-.551-.345v-.006a.472.472 0 00.285-.367h.007a.7.7 0 00.73.373zm-.386.936c-.01.014-.023.025-.029.025a.583.583 0 01-.718-.011.369.369 0 01.047-.56.7.7 0 00.683.066.443.443 0 00-.04.346.343.343 0 00.057.134m-2.018-.452a.507.507 0 01-.4.551.426.426 0 01-.54-.321.415.415 0 01.018-.183.57.57 0 00.355-.212.71.71 0 00.446.085.241.241 0 00.09-.019.362.362 0 01.028.1m1.012.314a.609.609 0 01-.691.22.326.326 0 01-.138-.453.729.729 0 00.556.141.534.534 0 00.374-.223.429.429 0 01-.1.314m-.825-1.027a.478.478 0 01-.031.384c-.132.2-.415.2-.642 0a.661.661 0 01-.228-.507.325.325 0 00.113-.252.043.043 0 01.024-.021.566.566 0 00.627.439.291.291 0 00.137-.042m.892.524a.606.606 0 01-.691.231.355.355 0 01-.074-.571.751.751 0 01.179-.154.713.713 0 00.645.235h.049a.443.443 0 01-.107.26m5.447-.34a.378.378 0 01-.323.483.289.289 0 01-.191-.015.535.535 0 000-.253.614.614 0 00-.311-.356.373.373 0 01.284-.191.485.485 0 01.541.332m-.672.219a.39.39 0 01-.319.489.534.534 0 01-.308-.057.47.47 0 00.13-.477.516.516 0 00-.157-.26c.035-.01.07-.024.114-.034a.484.484 0 01.539.339m-.67-.007a.389.389 0 01-.329.5.493.493 0 01-.559-.356c-.007-.019-.007-.032-.012-.05a.824.824 0 00.294.018.536.536 0 00.449-.348.437.437 0 01.158.24m-1.029.1a.356.356 0 01-.312.437.418.418 0 01-.393-.138.451.451 0 00.125-.464.889.889 0 00-.048-.108.271.271 0 01.119-.04.5.5 0 01.224.021.625.625 0 00.243.2.938.938 0 01.041.1m-1.074.471a.407.407 0 01-.389.432.577.577 0 01-.627-.343.386.386 0 01.324-.47.737.737 0 00.691.381m.343-.6a.39.39 0 01-.329.487.5.5 0 01-.558-.354.39.39 0 01.24-.465.628.628 0 00.648.332m-.74-.372a.436.436 0 01-.283.169.536.536 0 01-.6-.373.421.421 0 01.355-.533.556.556 0 01.52.213.415.415 0 00-.075.358.66.66 0 00.083.166m-3.459-.583a.367.367 0 01-.354.452.57.57 0 01-.6-.324.234.234 0 01.007-.187 1.019 1.019 0 00.1.075.644.644 0 00.762 0 .434.434 0 00.056-.087.273.273 0 01.034.071m.094 1.015a.428.428 0 01-.256.215.478.478 0 01-.562-.266.328.328 0 01.016-.309.606.606 0 00.3.014.418.418 0 00.232-.178.357.357 0 000 .274.489.489 0 00.272.251m-.364.271a.255.255 0 01-.048.194.379.379 0 01-.522 0 .363.363 0 01-.147-.494.266.266 0 01.177-.1.317.317 0 00-.017.187.379.379 0 00.419.263.316.316 0 00.138-.05m5.916-.852a.381.381 0 01-.322.474.474.474 0 01-.534-.333.372.372 0 01.323-.472.479.479 0 01.533.331m-1.166-.164a.377.377 0 01-.325.477.486.486 0 01-.538-.343.38.38 0 01.323-.473.483.483 0 01.541.339m-6.507-.7a.349.349 0 01-.033.332.459.459 0 01-.62 0 .416.416 0 01-.161-.573.34.34 0 01.3-.122.609.609 0 00.5.366zm-.7-1.479a.458.458 0 01.413.376.33.33 0 00-.2.3.227.227 0 00.018.108.458.458 0 01-.232.067.509.509 0 01-.456-.472.423.423 0 01.456-.376m-.668.042a.447.447 0 01.235.065.367.367 0 00-.178.3.54.54 0 00.246.415.463.463 0 01-.3.108.539.539 0 01-.475-.5.436.436 0 01.475-.387m1.382 1.874a.479.479 0 01.175.259.44.44 0 01-.3.549.59.59 0 01-.633-.372.362.362 0 01.032-.281s.007.01.014.01a.581.581 0 00.714-.164m.627-.778a.45.45 0 01.232.076.446.446 0 00.152.592.467.467 0 01-.384.221.534.534 0 01-.485-.49h.027a.443.443 0 00.443-.4zm-.26 2.023a.515.515 0 01-.413.211.614.614 0 01-.544-.559.128.128 0 01.018-.069.532.532 0 00.376.186.573.573 0 00.251-.065.635.635 0 00.312.3m-.08-.639s0 .014.019.017a.416.416 0 01-.183.266.438.438 0 00.164-.284m-1.118-1.482a.4.4 0 00-.2.349.6.6 0 00.185.409.485.485 0 01-.133.021.632.632 0 01-.557-.582.376.376 0 01.048-.191.34.34 0 00.123.016.514.514 0 00.336-.118.535.535 0 00.2.1m.13.978a.369.369 0 00-.2.333.455.455 0 00.1.254h-.04a.567.567 0 01-.5-.488.323.323 0 01.118-.265.411.411 0 00.259.078.906.906 0 00.122-.005.373.373 0 00.14.093m1.272.178a.461.461 0 01.45.446.429.429 0 01-.45.4.541.541 0 01-.437-.283.388.388 0 00.237-.354.384.384 0 00-.032-.17.686.686 0 01.231-.038m-.46-1.807a.542.542 0 01.5.543.5.5 0 01-.5.484.634.634 0 01-.565-.576.526.526 0 01.565-.45m3.9 1.5a.451.451 0 01.181.614.516.516 0 01-.67 0 .451.451 0 01-.168-.614.48.48 0 01.657 0m-1.123-.282a.468.468 0 01.15.61.408.408 0 01-.59 0 .491.491 0 01-.154-.615.409.409 0 01.594.005m-1.191-.607a.521.521 0 01.2.709.565.565 0 01-.757 0 .521.521 0 01-.206-.709.573.573 0 01.767 0" fill="#eeb930" fill-rule="evenodd"/><path data-name="Trazado 314" d="M22.937 35.132a.514.514 0 01-.5.345c-.285.02-.537-.135-.551-.345v-.006a.472.472 0 00.285-.367h.007a.7.7 0 00.73.373zm-.386.936c-.01.014-.023.025-.029.025a.583.583 0 01-.718-.011.369.369 0 01.047-.56.7.7 0 00.683.066.443.443 0 00-.04.346.343.343 0 00.057.133zm-2.018-.452a.507.507 0 01-.4.551.426.426 0 01-.54-.321.415.415 0 01.018-.183.57.57 0 00.355-.212.71.71 0 00.446.085.241.241 0 00.09-.019.362.362 0 01.031.099zm1.012.314a.609.609 0 01-.691.22.326.326 0 01-.138-.453.729.729 0 00.556.141.534.534 0 00.374-.223.429.429 0 01-.101.319zm-.825-1.027a.478.478 0 01-.031.384c-.132.2-.415.2-.642 0a.661.661 0 01-.228-.507.325.325 0 00.113-.252.043.043 0 01.024-.021.566.566 0 00.627.439.291.291 0 00.137-.039zm.892.524a.606.606 0 01-.691.231.355.355 0 01-.074-.571.751.751 0 01.179-.154.713.713 0 00.645.235h.049a.443.443 0 01-.108.263zm5.447-.34a.378.378 0 01-.323.483.289.289 0 01-.191-.015.535.535 0 000-.253.614.614 0 00-.311-.356.373.373 0 01.284-.191.485.485 0 01.541.336zm-.672.219a.39.39 0 01-.319.489.534.534 0 01-.308-.057.47.47 0 00.13-.477.516.516 0 00-.157-.26c.035-.01.07-.024.114-.034a.484.484 0 01.54.343zm-.67-.007a.389.389 0 01-.329.5.493.493 0 01-.559-.356c-.007-.019-.007-.032-.012-.05a.824.824 0 00.294.018.536.536 0 00.449-.348.437.437 0 01.157.24zm-1.029.1a.356.356 0 01-.312.437.418.418 0 01-.393-.138.451.451 0 00.125-.464.889.889 0 00-.048-.108.271.271 0 01.119-.04.5.5 0 01.224.021.625.625 0 00.243.2.938.938 0 01.042.099zm-1.074.471a.407.407 0 01-.389.432.577.577 0 01-.627-.343.386.386 0 01.324-.47.737.737 0 00.692.388zm.343-.6a.39.39 0 01-.329.487.5.5 0 01-.558-.354.39.39 0 01.24-.465.628.628 0 00.647.343zm-.74-.372a.436.436 0 01-.283.169.536.536 0 01-.6-.373.421.421 0 01.355-.533.556.556 0 01.52.213.415.415 0 00-.075.358.66.66 0 00.082.178zm-3.459-.583a.367.367 0 01-.354.452.57.57 0 01-.6-.324.234.234 0 01.007-.187 1.019 1.019 0 00.1.075.644.644 0 00.762 0 .434.434 0 00.056-.087.273.273 0 01.029.083zm.094 1.015a.428.428 0 01-.256.215.478.478 0 01-.562-.266.328.328 0 01.016-.309.606.606 0 00.3.014.418.418 0 00.232-.178.357.357 0 000 .274.489.489 0 00.27.262zm-.359.286a.255.255 0 01-.048.194.379.379 0 01-.522 0 .363.363 0 01-.147-.494.266.266 0 01.177-.1.317.317 0 00-.017.187.379.379 0 00.419.263.316.316 0 00.138-.05zm5.916-.852a.381.381 0 01-.322.474.474.474 0 01-.534-.333.372.372 0 01.323-.472.479.479 0 01.536.333zm-1.166-.164a.377.377 0 01-.325.477.486.486 0 01-.538-.343.38.38 0 01.323-.473.483.483 0 01.543.34zm-6.507-.7a.349.349 0 01-.033.332.459.459 0 01-.62 0 .416.416 0 01-.161-.573.34.34 0 01.3-.122.609.609 0 00.5.366zm-.7-1.479a.458.458 0 01.413.376.33.33 0 00-.2.3.227.227 0 00.018.108.458.458 0 01-.232.067.509.509 0 01-.456-.472.423.423 0 01.462-.374zm-.668.042a.447.447 0 01.235.065.367.367 0 00-.178.3.54.54 0 00.246.415.463.463 0 01-.3.108.539.539 0 01-.475-.5.436.436 0 01.477-.383zm1.382 1.874a.479.479 0 01.175.259.44.44 0 01-.3.549.59.59 0 01-.633-.372.362.362 0 01.032-.281s.007.01.014.01a.581.581 0 00.717-.159zm.627-.778a.45.45 0 01.232.076.446.446 0 00.152.592.467.467 0 01-.384.221.534.534 0 01-.485-.49h.027a.443.443 0 00.443-.4zm-.26 2.023a.515.515 0 01-.413.211.614.614 0 01-.544-.559.128.128 0 01.018-.069.532.532 0 00.376.186.573.573 0 00.251-.065.635.635 0 00.317.302zm-.08-.639s0 .014.019.017a.416.416 0 01-.183.266.438.438 0 00.169-.277zm-1.118-1.482a.4.4 0 00-.2.349.6.6 0 00.185.409.485.485 0 01-.133.021.632.632 0 01-.557-.582.376.376 0 01.048-.191.34.34 0 00.123.016.514.514 0 00.336-.118.535.535 0 00.204.103zm.13.978a.369.369 0 00-.2.333.455.455 0 00.1.254h-.04a.567.567 0 01-.5-.488.323.323 0 01.118-.265.411.411 0 00.259.078.906.906 0 00.122-.005.373.373 0 00.146.099zm1.272.178a.461.461 0 01.45.446.429.429 0 01-.45.4.541.541 0 01-.437-.283.388.388 0 00.237-.354.384.384 0 00-.032-.17.686.686 0 01.237-.033zm-.46-1.807a.542.542 0 01.5.543.5.5 0 01-.5.484.634.634 0 01-.565-.576.526.526 0 01.571-.445zm3.9 1.5a.451.451 0 01.181.614.516.516 0 01-.67 0 .451.451 0 01-.168-.614.48.48 0 01.659.006zm-1.123-.282a.468.468 0 01.15.61.408.408 0 01-.59 0 .491.491 0 01-.154-.615.409.409 0 01.596.009zm-1.191-.607a.521.521 0 01.2.709.565.565 0 01-.757 0 .521.521 0 01-.206-.709.573.573 0 01.765.005z" fill="none" stroke="#0b070c" stroke-miterlimit="2.613" stroke-width=".044"/><path data-name="Trazado 315" d="M26.75 22.42a6.391 6.391 0 00-.795-2.071c-.244-.243-.5-.464-.741-.723.3.22.608.445.916.665a6.325 6.325 0 01.736 1.74c.107-.092.158-.034.268-.126a8 8 0 001.62-1.556c-.071.171-.373.665-.45.838-.982.956-1.373 1.034-1.356 1.387-.029.114-.056.232-.087.345.188-.174.744-.731.937-.909-.178.259-.749.9-.774 1.158-.193.219-.093.433-.048.653a9.192 9.192 0 002.334-1.394c-.794.968-1.533.991-2.3 1.886-.04.366-.081.711-.113 1.061.032.305.071.6.1.913a.676.676 0 01.419.316 12.827 12.827 0 012.486.4l-6.295.012a7.686 7.686 0 012.225-.312 1.08 1.08 0 01.6-.485l.1-1.508a.78.78 0 00-.325-.675 6.5 6.5 0 01-1.546-1.662 12.882 12.882 0 001.948 1.679c.024-.1.051-.19.075-.274v-.705a5.5 5.5 0 01-1.341-1.311c.016-.017-.51-.6-.494-.622a13.342 13.342 0 001.869 1.666 1.254 1.254 0 00-.016-.161c-.048-.068-.1-.134-.151-.206a1.906 1.906 0 01.2-.019" fill="#b4562d" fill-rule="evenodd"/><path data-name="Trazado 316" d="M26.75 22.42a6.391 6.391 0 00-.795-2.071c-.244-.243-.5-.464-.741-.723.3.22.608.445.916.665a6.325 6.325 0 01.736 1.74c.107-.092.158-.034.268-.126a8 8 0 001.62-1.556c-.071.171-.373.665-.45.838-.982.956-1.373 1.034-1.356 1.387-.029.114-.056.232-.087.345.188-.174.744-.731.937-.909-.178.259-.749.9-.774 1.158-.193.219-.093.433-.048.653a9.192 9.192 0 002.334-1.394c-.794.968-1.533.991-2.3 1.886-.04.366-.081.711-.113 1.061.032.305.071.6.1.913a.676.676 0 01.419.316 12.827 12.827 0 012.486.4l-6.295.012a7.686 7.686 0 012.225-.312 1.08 1.08 0 01.6-.485l.1-1.508a.78.78 0 00-.325-.675 6.5 6.5 0 01-1.546-1.662 12.882 12.882 0 001.948 1.679c.024-.1.051-.19.075-.274v-.705a5.5 5.5 0 01-1.341-1.311c.016-.017-.51-.6-.494-.622a13.342 13.342 0 001.869 1.666 1.254 1.254 0 00-.016-.161c-.048-.068-.1-.134-.151-.206a1.906 1.906 0 01.199-.019z" fill="none" stroke="#5d4d43" stroke-miterlimit="2.613" stroke-width=".044"/><path data-name="Trazado 317" d="M29.238 22.357c.27-.768.5-.747.962-.983-.315.706-.591.98-.962.983" fill="#358346" fill-rule="evenodd"/><path data-name="Trazado 318" d="M29.238 22.357c.27-.768.5-.747.962-.983-.315.706-.592.98-.962.983z" fill="none" stroke="#339744" stroke-miterlimit="2.613" stroke-width=".044"/><path data-name="Trazado 319" d="M27.134 24.247c.838-.459 1.039.17 1.446.162-.5.382-1.141-.163-1.446-.162" fill="#358346" fill-rule="evenodd"/><path data-name="Trazado 320" d="M27.134 24.247c.838-.459 1.039.17 1.446.162-.5.383-1.141-.164-1.446-.162z" fill="none" stroke="#339744" stroke-miterlimit="2.613" stroke-width=".044"/><path data-name="Trazado 321" d="M27.752 20.005c-.451-1.049.376-1.086.419-1.53.4.651-.38 1.176-.419 1.53" fill="#358346" fill-rule="evenodd"/><path data-name="Trazado 322" d="M27.752 20.005c-.451-1.049.376-1.086.419-1.53.398.651-.379 1.176-.419 1.53z" fill="none" stroke="#339744" stroke-miterlimit="2.613" stroke-width=".044"/><path data-name="Trazado 323" d="M26.269 23.798c-.385-.53-.209-.639-.056-1.01.307.517.3.8.056 1.01" fill="#358346" fill-rule="evenodd"/><path data-name="Trazado 324" d="M26.269 23.798c-.385-.53-.209-.639-.056-1.01.307.517.301.795.056 1.01z" fill="none" stroke="#339744" stroke-miterlimit="2.613" stroke-width=".044"/><path data-name="Trazado 325" d="M25.252 22.933c-.771-.576-.07-.937-.206-1.27.584.308.106 1.011.206 1.27" fill="#358346" fill-rule="evenodd"/><path data-name="Trazado 326" d="M25.252 22.933c-.771-.576-.07-.937-.206-1.27.585.308.106 1.011.206 1.27z" fill="none" stroke="#339744" stroke-miterlimit="2.613" stroke-width=".044"/><path data-name="Trazado 327" d="M25.891 23.459c-.754-.58-.215-1.012-.386-1.362.557.3.262 1.08.386 1.362" fill="#358346" fill-rule="evenodd"/><path data-name="Trazado 328" d="M25.891 23.459c-.754-.58-.215-1.012-.386-1.362.556.302.261 1.08.386 1.362z" fill="none" stroke="#339744" stroke-miterlimit="2.613" stroke-width=".044"/><path data-name="Trazado 329" d="M28.795 20.329c-.071-1.077.51-1.228.931-1.639-.006 1-.5 1.535-.931 1.639" fill="#358346" fill-rule="evenodd"/><path data-name="Trazado 330" d="M28.795 20.329c-.071-1.077.51-1.228.931-1.639-.006.995-.505 1.535-.931 1.639z" fill="none" stroke="#339744" stroke-miterlimit="2.613" stroke-width=".044"/><path data-name="Trazado 331" d="M27.591 23.84c.828-.487 1.05.144 1.451.119-.486.4-1.138-.133-1.451-.119" fill="#358346" fill-rule="evenodd"/><path data-name="Trazado 332" d="M27.591 23.84c.828-.487 1.05.144 1.451.119-.485.397-1.138-.133-1.451-.119z" fill="none" stroke="#339744" stroke-miterlimit="2.613" stroke-width=".044"/><path data-name="Trazado 333" d="M28.221 23.45c.891-.383 1.029.276 1.434.3-.539.335-1.11-.274-1.434-.3" fill="#358346" fill-rule="evenodd"/><path data-name="Trazado 334" d="M28.221 23.45c.891-.383 1.029.276 1.434.3-.538.334-1.105-.275-1.434-.3z" fill="none" stroke="#339744" stroke-miterlimit="2.613" stroke-width=".044"/><path data-name="Trazado 335" d="M28.716 23.18c.55-.652.916-.1 1.233-.219-.294.5-.978.14-1.233.219" fill="#358346" fill-rule="evenodd"/><path data-name="Trazado 336" d="M28.716 23.18c.55-.652.916-.1 1.233-.219-.294.497-.977.14-1.233.219z" fill="none" stroke="#339744" stroke-miterlimit="2.613" stroke-width=".044"/><path data-name="Trazado 337" d="M29.141 22.766c.3-.674.69-.164.908-.3-.13.493-.728.191-.908.3" fill="#358346" fill-rule="evenodd"/><path data-name="Trazado 338" d="M29.141 22.766c.3-.674.69-.164.908-.3-.132.5-.732.2-.908.3z" fill="none" stroke="#339744" stroke-miterlimit="2.613" stroke-width=".044"/><path data-name="Trazado 339" d="M26.592 24.247c-.842-.459-1.05.17-1.455.162.5.382 1.137-.163 1.455-.162" fill="#358346" fill-rule="evenodd"/><path data-name="Trazado 340" d="M26.592 24.247c-.842-.459-1.05.17-1.455.162.503.383 1.137-.164 1.455-.162z" fill="none" stroke="#339744" stroke-miterlimit="2.613" stroke-width=".044"/><path data-name="Trazado 341" d="M26.134 23.84c-.835-.487-1.056.144-1.455.119.487.4 1.141-.133 1.455-.119" fill="#358346" fill-rule="evenodd"/><path data-name="Trazado 342" d="M26.134 23.84c-.835-.487-1.056.144-1.455.119.483.397 1.137-.133 1.455-.119z" fill="none" stroke="#339744" stroke-miterlimit="2.613" stroke-width=".044"/><path data-name="Trazado 343" d="M25.501 23.45c-.889-.383-1.037.276-1.429.3.534.335 1.1-.274 1.429-.3" fill="#358346" fill-rule="evenodd"/><path data-name="Trazado 344" d="M25.501 23.45c-.889-.383-1.037.276-1.429.3.538.334 1.101-.275 1.429-.3z" fill="none" stroke="#339744" stroke-miterlimit="2.613" stroke-width=".044"/><path data-name="Trazado 345" d="M25.012 23.18c-.567-.652-.927-.1-1.248-.219.3.5.982.14 1.248.219" fill="#358346" fill-rule="evenodd"/><path data-name="Trazado 346" d="M25.012 23.18c-.567-.652-.927-.1-1.248-.219.301.497.982.14 1.248.219z" fill="none" stroke="#339744" stroke-miterlimit="2.613" stroke-width=".044"/><path data-name="Trazado 347" d="M24.582 22.766c-.3-.674-.688-.164-.916-.3.134.493.724.191.916.3" fill="#358346" fill-rule="evenodd"/><path data-name="Trazado 348" d="M24.582 22.766c-.3-.674-.688-.164-.916-.3.135.5.725.2.916.3z" fill="none" stroke="#339744" stroke-miterlimit="2.613" stroke-width=".044"/><path data-name="Trazado 349" d="M24.617 22.306c-.269-.783-.491-.749-.952-.986.308.711.591.976.952.986" fill="#358346" fill-rule="evenodd"/><path data-name="Trazado 350" d="M24.617 22.306c-.269-.783-.491-.749-.952-.986.308.711.591.972.952.986z" fill="none" stroke="#339744" stroke-miterlimit="2.613" stroke-width=".044"/><path data-name="Trazado 351" d="M27.387 23.616a1.214 1.214 0 00.279-1.07.905.905 0 00-.279 1.07" fill="#358346" fill-rule="evenodd"/><path data-name="Trazado 352" d="M27.387 23.616a1.214 1.214 0 00.279-1.07.905.905 0 00-.279 1.07z" fill="none" stroke="#339744" stroke-miterlimit="2.613" stroke-width=".044"/><path data-name="Trazado 353" d="M28.632 22.713c.888-.37.324-.921.492-1.5a3.734 3.734 0 00-.492 1.5" fill="#358346" fill-rule="evenodd"/><path data-name="Trazado 354" d="M28.632 22.713c.888-.37.324-.921.492-1.5a3.734 3.734 0 00-.492 1.5z" fill="none" stroke="#339744" stroke-miterlimit="2.613" stroke-width=".044"/><path data-name="Trazado 355" d="M27.891 23.255c.885-.377.433-1.078.687-1.382-.527.29-.492 1.139-.687 1.382" fill="#358346" fill-rule="evenodd"/><path data-name="Trazado 356" d="M27.891 23.255c.885-.377.433-1.078.687-1.382-.526.29-.492 1.139-.687 1.382z" fill="none" stroke="#339744" stroke-miterlimit="2.613" stroke-width=".044"/><path data-name="Trazado 357" d="M25.196 21.589a1.339 1.339 0 00-1.229-.663c.519.588.872.758 1.229.663" fill="#358346" fill-rule="evenodd"/><path data-name="Trazado 358" d="M25.196 21.589a1.339 1.339 0 00-1.229-.663c.519.588.872.758 1.229.663z" fill="none" stroke="#339744" stroke-miterlimit="2.613" stroke-width=".044"/><path data-name="Trazado 359" d="M25.027 21.286c.056-.95-.2-1.01-.6-1.457.029.9.209 1.3.6 1.457" fill="#358346" fill-rule="evenodd"/><path data-name="Trazado 360" d="M25.027 21.286c.056-.95-.2-1.01-.6-1.457.031.898.211 1.296.6 1.457z" fill="none" stroke="#339744" stroke-miterlimit="2.613" stroke-width=".044"/><path data-name="Trazado 361" d="M25.454 19.779c.507-.715.254-.8.029-1.214-.4.674-.378 1.013-.029 1.214" fill="#358346" fill-rule="evenodd"/><path data-name="Trazado 362" d="M25.454 19.779c.507-.715.254-.8.029-1.214-.399.674-.374 1.013-.029 1.214z" fill="none" stroke="#339744" stroke-miterlimit="2.613" stroke-width=".044"/><path data-name="Trazado 363" d="M25.585 21.992c-.765-.575-.081-.944-.2-1.272.584.312.107 1.006.2 1.272" fill="#358346" fill-rule="evenodd"/><path data-name="Trazado 364" d="M25.585 21.992c-.765-.575-.081-.944-.2-1.272.58.312.102 1.006.2 1.272z" fill="none" stroke="#339744" stroke-miterlimit="2.613" stroke-width=".044"/><path data-name="Trazado 365" d="M26.269 22.463c-.385-.531-.209-.638-.056-1 .307.507.3.793.056 1" fill="#358346" fill-rule="evenodd"/><path data-name="Trazado 366" d="M26.269 22.463c-.385-.531-.209-.638-.056-1 .307.503.301.789.056 1z" fill="none" stroke="#339744" stroke-miterlimit="2.613" stroke-width=".044"/><path data-name="Trazado 367" d="M25.891 22.189a1.215 1.215 0 00-.007-1.094.882.882 0 00.007 1.094" fill="#358346" fill-rule="evenodd"/><path data-name="Trazado 368" d="M25.891 22.189a1.215 1.215 0 00-.007-1.094.882.882 0 00.007 1.094z" fill="none" stroke="#339744" stroke-miterlimit="2.613" stroke-width=".044"/><path data-name="Trazado 369" d="M26.085 20.196c-.764-.574-.074-.943-.2-1.275.583.313.11 1.015.2 1.275" fill="#358346" fill-rule="evenodd"/><path data-name="Trazado 370" d="M26.085 20.196c-.764-.574-.074-.943-.2-1.275.582.313.109 1.015.2 1.275z" fill="none" stroke="#339744" stroke-miterlimit="2.613" stroke-width=".044"/><path data-name="Trazado 371" d="M27.69 19.828c-.92-.276-.416-.856-.667-1.123.664.094.476.911.667 1.123" fill="#358346" fill-rule="evenodd"/><path data-name="Trazado 372" d="M27.69 19.828c-.92-.276-.416-.856-.667-1.123.667.095.481.912.667 1.123z" fill="none" stroke="#339744" stroke-miterlimit="2.613" stroke-width=".044"/><path data-name="Trazado 373" d="M27.116 21.965a1.506 1.506 0 00.023-1.365 1.137 1.137 0 00-.023 1.365" fill="#358346" fill-rule="evenodd"/><path data-name="Trazado 374" d="M27.116 21.965a1.506 1.506 0 00.023-1.365 1.137 1.137 0 00-.023 1.365z" fill="none" stroke="#339744" stroke-miterlimit="2.613" stroke-width=".044"/><path data-name="Trazado 375" d="M28.405 20.636c.745-.594.053-.972.053-1.571a3.6 3.6 0 00-.053 1.571" fill="#358346" fill-rule="evenodd"/><path data-name="Trazado 376" d="M28.405 20.636c.745-.594.053-.972.053-1.571a3.6 3.6 0 00-.053 1.571z" fill="none" stroke="#339744" stroke-miterlimit="2.613" stroke-width=".044"/><path data-name="Trazado 377" d="M27.611 21.63c.713-.789-.17-1.151-.079-1.537-.383.517.141 1.226.079 1.537" fill="#358346" fill-rule="evenodd"/><path data-name="Trazado 378" d="M27.611 21.63c.713-.789-.17-1.151-.079-1.537-.383.517.141 1.226.079 1.537z" fill="none" stroke="#339744" stroke-miterlimit="2.613" stroke-width=".044"/><path data-name="Trazado 379" d="M30.264 20.256c-.714.65-.971.462-1.648.4.726-.554 1.2-.634 1.648-.4" fill="#358346" fill-rule="evenodd"/><path data-name="Trazado 380" d="M30.264 20.256c-.714.65-.971.462-1.648.4.726-.55 1.198-.633 1.648-.4z" fill="none" stroke="#339744" stroke-miterlimit="2.613" stroke-width=".044"/><path data-name="Trazado 381" d="M28.128 21.273c.792-.554 1.021-.345 1.686-.2-.79.454-1.267.483-1.686.2" fill="#358346" fill-rule="evenodd"/><path data-name="Trazado 382" d="M28.128 21.273c.792-.554 1.021-.345 1.686-.2-.789.452-1.266.478-1.686.2z" fill="none" stroke="#339744" stroke-miterlimit="2.613" stroke-width=".044"/><path data-name="Trazado 383" d="M28.193 21.059a1.487 1.487 0 00-.289-1.3 1.1 1.1 0 00.289 1.3" fill="#358346" fill-rule="evenodd"/><path data-name="Trazado 384" d="M28.193 21.059a1.487 1.487 0 00-.289-1.3 1.1 1.1 0 00.289 1.3z" fill="none" stroke="#339744" stroke-miterlimit="2.613" stroke-width=".044"/><path data-name="Trazado 385" d="M26.629 21.214c-.263-.605-.054-.672.177-1 .181.574.111.845-.177 1" fill="#358346" fill-rule="evenodd"/><path data-name="Trazado 386" d="M26.629 21.214c-.263-.605-.054-.672.177-1 .181.573.11.844-.177 1z" fill="none" stroke="#339744" stroke-miterlimit="2.613" stroke-width=".044"/><path data-name="Trazado 387" d="M26.259 20.57a1.289 1.289 0 00.369-1.049.927.927 0 00-.369 1.049" fill="#358346" fill-rule="evenodd"/><path data-name="Trazado 388" d="M26.259 20.57a1.289 1.289 0 00.369-1.049.927.927 0 00-.369 1.049z" fill="none" stroke="#339744" stroke-miterlimit="2.613" stroke-width=".044"/><path data-name="Trazado 389" d="M25.863 20.271a1.327 1.327 0 00-1.112-.252 1 1 0 001.112.252" fill="#358346" fill-rule="evenodd"/><path data-name="Trazado 390" d="M25.863 20.271a1.327 1.327 0 00-1.112-.252 1 1 0 001.112.252z" fill="none" stroke="#339744" stroke-miterlimit="2.613" stroke-width=".044"/><path data-name="Trazado 391" d="M26.339 21.214a1.315 1.315 0 00-1.1-.252.975.975 0 001.1.252" fill="#358346" fill-rule="evenodd"/><path data-name="Trazado 392" d="M26.339 21.214a1.315 1.315 0 00-1.1-.252.975.975 0 001.1.252z" fill="none" stroke="#339744" stroke-miterlimit="2.613" stroke-width=".044"/><path data-name="Trazado 393" d="M26.27 20.826a1.3 1.3 0 00-1.109-.251 1 1 0 001.109.251" fill="#358346" fill-rule="evenodd"/><path data-name="Trazado 394" d="M26.27 20.826a1.3 1.3 0 00-1.109-.251 1 1 0 001.109.251z" fill="none" stroke="#339744" stroke-miterlimit="2.613" stroke-width=".044"/><path data-name="Trazado 395" d="M27.134 22.164c.825.484 1.057-.141 1.461-.114-.488-.4-1.136.128-1.461.114" fill="#358346" fill-rule="evenodd"/><path data-name="Trazado 396" d="M27.134 22.164c.825.484 1.057-.141 1.461-.114-.488-.4-1.136.128-1.461.114z" fill="none" stroke="#339744" stroke-miterlimit="2.613" stroke-width=".044"/><path data-name="Trazado 397" d="M27.77 21.662a1.338 1.338 0 011.395-.107c-.724.323-1.124.342-1.395.107" fill="#358346" fill-rule="evenodd"/><path data-name="Trazado 398" d="M27.77 21.662a1.338 1.338 0 011.395-.107c-.724.323-1.124.339-1.395.107z" fill="none" stroke="#339744" stroke-miterlimit="2.613" stroke-width=".044"/><path data-name="Trazado 399" d="M25.329 19.847c-.7.057-.8-.291-1.087-.55.651-.008 1.01.3 1.087.55" fill="#358346" fill-rule="evenodd"/><path data-name="Trazado 400" d="M25.329 19.847c-.7.057-.8-.291-1.087-.55.651-.008 1.01.297 1.087.55z" fill="none" stroke="#339744" stroke-miterlimit="2.613" stroke-width=".044"/><path data-name="Trazado 401" d="M22.486 26.547a2.024 2.024 0 00-.279-.042c-.224 0-.881-.195-1.023-.169-.4.136-1.036-.28-1.261-.137a5.734 5.734 0 01-1.297.048 3.333 3.333 0 00-1.592.1c-.265.127-.639-.269-.768-.138a1.366 1.366 0 01-.964.342c-.046.148-.1.292-.149.432h7.33z" fill="#5e4d55" fill-rule="evenodd"/><path data-name="Trazado 402" d="M22.486 26.547a2.024 2.024 0 00-.279-.042c-.224 0-.881-.195-1.023-.169-.4.136-1.036-.28-1.261-.137a5.734 5.734 0 01-1.297.048 3.333 3.333 0 00-1.592.1c-.265.127-.639-.269-.768-.138a1.366 1.366 0 01-.964.342c-.046.148-.1.292-.149.432h7.33z" fill="none" stroke="#0b070c" stroke-miterlimit="2.613" stroke-width=".044"/><path data-name="Trazado 403" d="M21.118 23.555c-.369.143-.613 1.14-.761 1.432-.087.16-.27.535-.1.776.075.1.2.145.218.235.251.034.392.15.375.344-.1.168-.479.13-.661.038a.148.148 0 00-.075-.135c-.016-.047-.03-.084-.045-.135-.536-.263-.167-.607-.228-1.339-.037.132-.07.265-.106.4a4.436 4.436 0 00-.051.913.662.662 0 00.287.276c.119.051.119.09.243.26.011.044.07.151.019.184-.053.094-.08.151-.512.039-.008-.061-.011-.114-.017-.169-.056.03-.093 0-.11-.066a.439.439 0 00-.165-.237c0-.116-.156-.12-.2-.28a2.463 2.463 0 01.065-.705 5.2 5.2 0 00.135-1.076.973.973 0 01-.187-.755 1.358 1.358 0 01-1.013-.245c-.164-.108-.088.718-.673 1.053a.685.685 0 00-.232.374c-.2.211.126.89.334 1.113.1.114.263.317.358.435.159.1.381.205.371.382a1.06 1.06 0 01-.711 0c-.018-.079-.13-.208-.045-.285a.5.5 0 01-.324-.131 10.831 10.831 0 00-.632-1.252c-.079 0-.111-.214-.108-.294.021-.138.037.02.2-.454-.118.227-.445.428-.428.705.043.216.248.722.285.937.133.108.09.217.385.332.138.109.36.31.36.446a1.034 1.034 0 01-.735.032c-.044-.092-.054-.235-.1-.343-.063-.014-.041-.089-.1-.106-.074-.043-.252-.03-.324-.073-.1-.479-.231-1.273-.348-1.75a.5.5 0 01.141-.423c.224-.133.362-.414.525-.592.246-.18.115-.669-.12-.927-.1.143-.043.185-.08.208-.118.063-.283-.268-.227-.443.037-.206-.013-.366.037-.641.091-.451.347-.537.6-.3a1.517 1.517 0 011.2-.43 2.4 2.4 0 011.607.135 1.907 1.907 0 01.922.494c.118.094.27.016.368-.1a5.1 5.1 0 00-.368-2.136c-.315.185-.554-.016-.879-.219-.08-.047-.077-.086-.017-.13.112 0 .2-.073.306-.073-.167-.121-.13-.176-.033-.2.262.06.5-.124.735.017.151-.232.414-.225.667-.238a.793.793 0 01.576.271c.08.123.392.151.453.224s.014.235-.024.349a.33.33 0 01-.261.159c-.06.024-.145.006-.21.026-.013.056-.122.12-.2.163a5.488 5.488 0 01.277 2.139 1.562 1.562 0 01-.476 1.3c-.168.139-.066.342-.162.5" fill="#0b070c" fill-rule="evenodd"/><path data-name="Trazado 404" d="M20.517 19.03c-.059.066-.264.248-.42.225-.177-.041-.177-.152-.377-.188-.1-.029-.085-.067.019-.1.232-.078.536-.227.758-.016-.182.022-.216.041-.422.054a.732.732 0 00.442.024" fill="#b4562d" fill-rule="evenodd"/><path data-name="Trazado 405" d="M19.853 18.788c-.087-.043-.134-.049-.033-.089.279.057.486-.124.671.046-.06.034-.045.057-.115.057-.046-.082-.4 0-.523-.014" fill="#813931" fill-rule="evenodd"/><path data-name="Trazado 406" d="M20.607 18.715a.692.692 0 01.9-.059 1.09 1.09 0 00.532.267.135.135 0 00.11.113c-.014.025-.024.1-.041.126-.061.064-.237.047-.409.047a.862.862 0 00.376.044c-.031.068-.138.186-.419.135-.075.141-.216.259-.511.15-.086.014-.209-.057-.294-.077a.759.759 0 00.465.264 6.3 6.3 0 01.34 1.914 2.781 2.781 0 01-.235 1.087c-.065.166-.188.192-.255.28-.169.229-.121.436-.186.546-.476.061-.523 1.411-.785 1.355-.19-.045-.281-.738-.036-.88.828-.47.522-1.619.567-1.517-.182.614-.054 1.208-.462 1.176-.336-.129-.494.81-.488.968a1.218 1.218 0 01-.093.426 7.679 7.679 0 00-.09.786.926.926 0 00.024.259.814.814 0 00.351.324c.179.065.256.278.213.33a.3.3 0 01-.4.019.38.38 0 01-.04-.17c-.138-.014-.138-.179-.266-.294.031-.111-.214-.146-.214-.353a8.7 8.7 0 01.2-1.075 1.781 1.781 0 00.111-.538c-.064-.161.135-.161 0-.279-.265-.245-.236-.653.13-1.055-.075-.036-.115-.16-.166-.234v.284l-.284.353a1.415 1.415 0 01-1.1-.382.552.552 0 01-.256-.5c0-.042-.168 0-.137.033.056.072-.048.149-.016.26.016.093.242.161.23.239l-.06.479a1.636 1.636 0 01-.577.9l-.224.49c-.017.285.4.847.609 1.1.08.069.147.209.225.279a.793.793 0 01.356.281.922.922 0 01-.574 0 .222.222 0 010-.264.632.632 0 01-.36-.147 11.88 11.88 0 00-.673-1.293.316.316 0 01.066-.4 1.576 1.576 0 00.181-1.265c-.218-.077-.413-.467-.463-.826a1.284 1.284 0 01.259-1.1 1.353 1.353 0 011.07-.306 3.148 3.148 0 011.976.248c.356.047.436.427.714.4a.361.361 0 00.329-.351 6.36 6.36 0 00-.359-2.055.31.31 0 01.188-.191c-.071-.058-.129-.125-.112-.185a1.37 1.37 0 01.051-.164" fill="#b4562d" fill-rule="evenodd"/><path data-name="Trazado 407" d="M21.644 18.966c-.192-.063-.2-.145-.405-.084a.321.321 0 00-.185.169c.079-.039.105-.058.157-.045.084.045.234.04.268-.033.06-.021.093.02.165-.007" fill="#0b070c" fill-rule="evenodd"/><path data-name="Trazado 408" d="M20.293 23.806a.435.435 0 01-.056.433.461.461 0 01-.071.608c.167.284-.054.435-.038.8.083.234.265.234.265.384.222.031.375.085.386.246.01.033-.043-.057-.114-.034.071.048.09.094.071.1a.645.645 0 01-.318.049c-.054-.024-.125-.029-.158-.121a.676.676 0 00.036-.148.328.328 0 01-.3-.373.936.936 0 00-.071.183.4.4 0 01-.1-.287 2.175 2.175 0 00.077-.928c0-.687.188-.782.392-.915" fill="#b4562d" fill-rule="evenodd"/><path data-name="Trazado 409" d="M16.312 21.699c.036.059-.041.206-.139.364a.252.252 0 00.191-.11.706.706 0 01-.17.3c.047.014.1 0 .17-.107v.073a2.973 2.973 0 00-.08.2c-.06.034-.071.16-.112.249a.727.727 0 01-.063-.643c-.08-.068.014-.2.084-.307-.021 0-.084.047-.1.053a.814.814 0 01.178-.445c.107-.057.191-.06.262.068.017.068.017.106-.13.187-.155.1-.137.111-.087.111" fill="#b86f4c" fill-rule="evenodd"/><path data-name="Trazado 410" d="M17.077 22.877c.007.367.088.6.083.907a2.584 2.584 0 01-.312.931c.052-.052.121-.153.167-.134a1.6 1.6 0 01.214-.5.655.655 0 00.061-.539 1.791 1.791 0 01-.213-.668" fill="#5d4d43" fill-rule="evenodd"/><path data-name="Trazado 411" d="M16.232 24.772c-.014.068-.024.141-.037.208a3 3 0 00.314.973.52.52 0 01.184.18c.051.048.1.1.154.142a.978.978 0 01.4.338.676.676 0 01-.554-.013 3.362 3.362 0 00-.127-.328c-.028-.027-.064-.047-.1-.081-.089-.041-.328-.126-.345-.221a7.581 7.581 0 00-.267-1.436.419.419 0 01.069-.469 1.991 1.991 0 00.466-.453.779.779 0 00.263-.53.748.748 0 01.173.433 1.067 1.067 0 01-.066.675c-.178.2-.353.383-.53.58" fill="#b4562d" fill-rule="evenodd"/><path data-name="Trazado 412" d="M16.602 23.429c-.039.458-.586.738-.6 1.2a.935.935 0 01.08-.568 2.175 2.175 0 00.519-.635" fill="#5d4d43" fill-rule="evenodd"/><path data-name="Trazado 413" d="M16.089 23.817a.954.954 0 00-.191.4c-.006-.1-.046-.182.024-.268a.25.25 0 01.167-.127" fill="#5d4d43" fill-rule="evenodd"/><path data-name="Trazado 414" d="M23.037 16.057a1.366 1.366 0 011.334-.555 1.3 1.3 0 011.4-.639 1.416 1.416 0 01.351-.852 2.235 2.235 0 01-.878-1.258 2.054 2.054 0 01-1.214-.553c-.278.054-.534.185-.869-.1-.194.289-.385.191-.741 0-.3.023-.7.185-1 .207a1 1 0 01-1.057.377 1.569 1.569 0 01-.361 1.259c.234.333.127.269.234.59.147.3.762.519.884.874a1.059 1.059 0 00.853.163 1.939 1.939 0 011.066.491m.965.974c.936.126 1.469-.019 1.59-.419.067.26 1.929-.3 1.637-.768a1.31 1.31 0 00.943-1.007c.026-.074-.353.122-.419.054a1.324 1.324 0 00.164-1.693c-.032-.916-.287-1.507-.811-1.613-.019.053.073 1.04-.017.576a2.475 2.475 0 00-1.255-1.292 1.831 1.831 0 00-1.834-.616 1.183 1.183 0 00-.755.1c-.351-.118-1.01-.2-1.238 0-.369-.2-.463-.118-.865 0-.681-.046-.73.127-1.244.567a1.464 1.464 0 00-1.051.92c-.357.328-.8.6-.8 1.212-.5.478-.15 1.357-.061 1.6-.127 1.333.292 1.154.763 1.315.018.749 1.026.445 1.545.809.593.581.923.5 2.77.063a3.351 3.351 0 00.939.191" fill="#0b070c" fill-rule="evenodd"/><path data-name="Trazado 415" d="M23.037 16.057a1.366 1.366 0 011.334-.555 1.3 1.3 0 011.4-.639 1.416 1.416 0 01.351-.852 2.235 2.235 0 01-.878-1.258 2.054 2.054 0 01-1.214-.553c-.278.054-.534.185-.869-.1-.194.289-.385.191-.741 0-.3.023-.7.185-1 .207a1 1 0 01-1.057.377 1.569 1.569 0 01-.361 1.259c.234.333.127.269.234.59.147.3.762.519.884.874a1.059 1.059 0 00.853.163 1.939 1.939 0 011.064.487zm.965.974c.936.126 1.469-.019 1.59-.419.067.26 1.929-.3 1.637-.768a1.31 1.31 0 00.943-1.007c.026-.074-.353.122-.419.054a1.324 1.324 0 00.164-1.693c-.032-.916-.287-1.507-.811-1.613-.019.053.073 1.04-.017.576a2.475 2.475 0 00-1.255-1.292A1.831 1.831 0 0024 10.253a1.183 1.183 0 00-.755.1c-.351-.118-1.01-.2-1.238 0-.369-.2-.463-.118-.865 0-.681-.046-.73.127-1.244.567a1.464 1.464 0 00-1.051.92c-.357.328-.8.6-.8 1.212-.5.478-.15 1.357-.061 1.6-.127 1.333.292 1.154.763 1.315.018.749 1.026.445 1.545.809.593.581.923.5 2.77.063a3.351 3.351 0 00.938.19z" fill="none" stroke="#0b070c" stroke-miterlimit="2.613" stroke-width=".044"/><path data-name="Trazado 416" d="M25.885 12.115c-.044.856.632.927 1.4 1.4a2.148 2.148 0 00-1.4-1.4" fill="#339744" fill-rule="evenodd"/><path data-name="Trazado 417" d="M25.885 12.115c-.044.856.632.927 1.4 1.4a2.148 2.148 0 00-1.4-1.4z" fill="none" stroke="#0b070c" stroke-miterlimit="2.613" stroke-width=".044"/><path data-name="Trazado 418" d="M27.345 11.832c.72 1.357-.21 1.547-.16 2.153-.593-.821.184-1.665.16-2.153" fill="#339744" fill-rule="evenodd"/><path data-name="Trazado 419" d="M27.345 11.832c.72 1.357-.21 1.547-.16 2.153-.594-.821.18-1.665.16-2.153z" fill="none" stroke="#0b070c" stroke-miterlimit="2.613" stroke-width=".044"/><path data-name="Trazado 420" d="M25.624 12.932c.389 1.151.6.765 1.329 1.114-.449-.764-.59-.925-1.329-1.114" fill="#339744" fill-rule="evenodd"/><path data-name="Trazado 421" d="M25.624 12.932c.389 1.151.6.765 1.329 1.114-.449-.765-.59-.93-1.329-1.114z" fill="none" stroke="#0b070c" stroke-miterlimit="2.613" stroke-width=".044"/><path data-name="Trazado 422" d="M27.289 15.492c-.6-1.449.53-1.5.591-2.1.539.9-.533 1.622-.591 2.1" fill="#339744" fill-rule="evenodd"/><path data-name="Trazado 423" d="M27.289 15.492c-.6-1.449.53-1.5.591-2.1.541.906-.531 1.623-.591 2.1z" fill="none" stroke="#0b070c" stroke-miterlimit="2.613" stroke-width=".044"/><path data-name="Trazado 424" d="M26.165 15.752c1.137-.929.118-1.318.3-1.808-.857.525-.162 1.425-.3 1.808" fill="#339744" fill-rule="evenodd"/><path data-name="Trazado 425" d="M26.165 15.752c1.137-.929.118-1.318.3-1.808-.855.525-.155 1.425-.3 1.808z" fill="none" stroke="#0b070c" stroke-miterlimit="2.613" stroke-width=".044"/><path data-name="Trazado 426" d="M27.122 13.671c-.791.941-.346.908-.26 1.678.429-.771.492-.98.26-1.678" fill="#339744" fill-rule="evenodd"/><path data-name="Trazado 427" d="M27.122 13.671c-.791.941-.346.908-.26 1.678.428-.77.492-.98.26-1.678z" fill="none" stroke="#0b070c" stroke-miterlimit="2.613" stroke-width=".044"/><path data-name="Trazado 428" d="M26.212 16.023c.55-1.28 1.389-.713 1.835-1.1-.219.9-1.475.8-1.835 1.1" fill="#339744" fill-rule="evenodd"/><path data-name="Trazado 429" d="M26.212 16.023c.55-1.28 1.389-.713 1.835-1.1-.224.904-1.481.808-1.835 1.1z" fill="none" stroke="#0b070c" stroke-miterlimit="2.613" stroke-width=".044"/><path data-name="Trazado 430" d="M25.351 16.014c.51-.819.777-.638 1.384-.672-.55.712-.945.871-1.384.672" fill="#339744" fill-rule="evenodd"/><path data-name="Trazado 431" d="M25.351 16.014c.51-.819.777-.638 1.384-.672-.549.712-.945.871-1.384.672z" fill="none" stroke="#0b070c" stroke-miterlimit="2.613" stroke-width=".044"/><path data-name="Trazado 432" d="M24.917 16.233c1.054-.939 1.58-.09 2.151-.251-.59.72-1.689.141-2.151.251" fill="#339744" fill-rule="evenodd"/><path data-name="Trazado 433" d="M24.917 16.233c1.054-.939 1.58-.09 2.151-.251-.59.72-1.689.14-2.151.251z" fill="none" stroke="#0b070c" stroke-miterlimit="2.613" stroke-width=".044"/><path data-name="Trazado 434" d="M24.486 15.941c.413-1.468 1.4-.7 1.845-1.1-.118 1.038-1.483.8-1.845 1.1" fill="#339744" fill-rule="evenodd"/><path data-name="Trazado 435" d="M24.486 15.941c.413-1.468 1.4-.7 1.845-1.1-.119 1.042-1.485.801-1.845 1.1z" fill="none" stroke="#0b070c" stroke-miterlimit="2.613" stroke-width=".044"/><path data-name="Trazado 436" d="M24.114 16.376c.708-.67.913-.441 1.509-.322-.705.559-1.137.617-1.509.322" fill="#339744" fill-rule="evenodd"/><path data-name="Trazado 437" d="M24.114 16.376c.708-.67.913-.441 1.509-.322-.705.559-1.137.617-1.509.322z" fill="none" stroke="#0b070c" stroke-miterlimit="2.613" stroke-width=".044"/><path data-name="Trazado 438" d="M23.032 16.556c.41-1.464 1.4-.7 1.838-1.093-.108 1.033-1.485.791-1.838 1.093" fill="#339744" fill-rule="evenodd"/><path data-name="Trazado 439" d="M23.032 16.556c.41-1.464 1.4-.7 1.838-1.093-.108 1.033-1.485.791-1.838 1.093z" fill="none" stroke="#0b070c" stroke-miterlimit="2.613" stroke-width=".044"/><path data-name="Trazado 440" d="M23.259 16.646c1.178-.787 1.57.125 2.157.057-.677.624-1.681-.107-2.157-.057" fill="#339744" fill-rule="evenodd"/><path data-name="Trazado 441" d="M23.259 16.646c1.178-.787 1.57.125 2.157.057-.677.623-1.681-.107-2.157-.057z" fill="none" stroke="#0b070c" stroke-miterlimit="2.613" stroke-width=".044"/><path data-name="Trazado 442" d="M20.077 12.237c.043.859-.638.927-1.394 1.386a2.119 2.119 0 011.394-1.386" fill="#339744" fill-rule="evenodd"/><path data-name="Trazado 443" d="M20.077 12.237c.043.859-.638.927-1.394 1.386a2.119 2.119 0 011.394-1.386z" fill="none" stroke="#0b070c" stroke-miterlimit="2.613" stroke-width=".044"/><path data-name="Trazado 444" d="M18.801 12.101c-1.079 1.121-.239 1.542-.452 2.118.8-.649.284-1.66.452-2.118" fill="#339744" fill-rule="evenodd"/><path data-name="Trazado 445" d="M18.801 12.101c-1.079 1.121-.239 1.542-.452 2.118.797-.649.284-1.66.452-2.118z" fill="none" stroke="#0b070c" stroke-miterlimit="2.613" stroke-width=".044"/><path data-name="Trazado 446" d="M20.237 12.936c-.207 1.2-.473.843-1.133 1.3.324-.83.44-1.007 1.133-1.3" fill="#339744" fill-rule="evenodd"/><path data-name="Trazado 447" d="M20.237 12.936c-.207 1.2-.473.843-1.133 1.3.324-.826.44-1.007 1.133-1.3z" fill="none" stroke="#0b070c" stroke-miterlimit="2.613" stroke-width=".044"/><path data-name="Trazado 448" d="M18.634 15.353c.6-1.448-.523-1.491-.587-2.105-.538.908.53 1.631.587 2.105" fill="#339744" fill-rule="evenodd"/><path data-name="Trazado 449" d="M18.634 15.353c.6-1.448-.523-1.491-.587-2.105-.538.908.529 1.631.587 2.105z" fill="none" stroke="#0b070c" stroke-miterlimit="2.613" stroke-width=".044"/><path data-name="Trazado 450" d="M19.619 15.827c-.886-1.16.2-1.313.135-1.825.711.705-.176 1.415-.135 1.825" fill="#339744" fill-rule="evenodd"/><path data-name="Trazado 451" d="M19.619 15.827c-.886-1.16.2-1.313.135-1.825.71.705-.176 1.411-.135 1.825z" fill="none" stroke="#0b070c" stroke-miterlimit="2.613" stroke-width=".044"/><path data-name="Trazado 452" d="M18.838 13.794c.778.936.337.893.261 1.681-.439-.787-.493-.982-.261-1.681" fill="#339744" fill-rule="evenodd"/><path data-name="Trazado 453" d="M18.838 13.794c.778.936.337.893.261 1.681-.435-.788-.489-.983-.261-1.681z" fill="none" stroke="#0b070c" stroke-miterlimit="2.613" stroke-width=".044"/><path data-name="Trazado 454" d="M19.725 16.22c-.425-1.326-1.315-.839-1.726-1.254.127.905 1.384.937 1.726 1.254" fill="#339744" fill-rule="evenodd"/><path data-name="Trazado 455" d="M19.725 16.22c-.425-1.326-1.315-.839-1.726-1.254.127.905 1.384.937 1.726 1.254z" fill="none" stroke="#0b070c" stroke-miterlimit="2.613" stroke-width=".044"/><path data-name="Trazado 456" d="M20.607 16.135c-.51-.813-.775-.644-1.387-.666.55.7.945.869 1.387.666" fill="#339744" fill-rule="evenodd"/><path data-name="Trazado 457" d="M20.607 16.135c-.51-.813-.775-.644-1.387-.666.55.702.942.869 1.387.666z" fill="none" stroke="#0b070c" stroke-miterlimit="2.613" stroke-width=".044"/><path data-name="Trazado 458" d="M21.03 16.357c-1.045-.946-1.571-.1-2.142-.251.586.713 1.69.126 2.142.251" fill="#339744" fill-rule="evenodd"/><path data-name="Trazado 459" d="M21.03 16.357c-1.045-.946-1.571-.1-2.142-.251.589.713 1.693.126 2.142.251z" fill="none" stroke="#0b070c" stroke-miterlimit="2.613" stroke-width=".044"/><path data-name="Trazado 460" d="M20.824 16.397c.539-1.24-.585-1.226-.661-1.739-.5.781.589 1.341.661 1.739" fill="#339744" fill-rule="evenodd"/><path data-name="Trazado 461" d="M20.824 16.397c.539-1.24-.585-1.226-.661-1.739-.505.781.588 1.341.661 1.739z" fill="none" stroke="#0b070c" stroke-miterlimit="2.613" stroke-width=".044"/><path data-name="Trazado 462" d="M21.836 16.497c-.7-.672-.909-.444-1.506-.318.717.552 1.136.616 1.506.318" fill="#339744" fill-rule="evenodd"/><path data-name="Trazado 463" d="M21.836 16.497c-.7-.672-.909-.444-1.506-.318.717.547 1.136.616 1.506.318z" fill="none" stroke="#0b070c" stroke-miterlimit="2.613" stroke-width=".044"/><path data-name="Trazado 464" d="M22.922 16.673c-.411-1.459-1.4-.7-1.845-1.086.118 1.033 1.5.784 1.845 1.086" fill="#339744" fill-rule="evenodd"/><path data-name="Trazado 465" d="M22.922 16.673c-.411-1.459-1.4-.7-1.845-1.086.118 1.033 1.498.784 1.845 1.086z" fill="none" stroke="#0b070c" stroke-miterlimit="2.613" stroke-width=".044"/><path data-name="Trazado 466" d="M22.704 16.769c-1.181-.787-1.584.118-2.165.041.686.635 1.69-.094 2.165-.041" fill="#339744" fill-rule="evenodd"/><path data-name="Trazado 467" d="M22.704 16.769c-1.181-.787-1.584.118-2.165.041.686.635 1.69-.094 2.165-.041z" fill="none" stroke="#0b070c" stroke-miterlimit="2.613" stroke-width=".044"/><path data-name="Trazado 468" d="M23.35 10.561c1.05-.371 1.187.313 1.663.343-.641.345-1.294-.306-1.663-.343" fill="#339744" fill-rule="evenodd"/><path data-name="Trazado 469" d="M23.35 10.561c1.05-.371 1.187.313 1.663.343-.642.346-1.291-.302-1.663-.343z" fill="none" stroke="#0b070c" stroke-miterlimit="2.613" stroke-width=".044"/><path data-name="Trazado 470" d="M24.351 10.362c1.189-.126 1.152.627 1.633.788-.748.183-1.258-.669-1.633-.788" fill="#339744" fill-rule="evenodd"/><path data-name="Trazado 471" d="M24.351 10.362c1.189-.126 1.152.627 1.633.788-.748.184-1.258-.669-1.633-.788z" fill="none" stroke="#0b070c" stroke-miterlimit="2.613" stroke-width=".044"/><path data-name="Trazado 472" d="M22.946 11.741c1.079.616 1.382-.119 1.9-.064-.633-.5-1.485.1-1.9.064" fill="#339744" fill-rule="evenodd"/><path data-name="Trazado 473" d="M22.946 11.741c1.079.616 1.382-.119 1.9-.064-.628-.497-1.48.1-1.9.064z" fill="none" stroke="#0b070c" stroke-miterlimit="2.613" stroke-width=".044"/><path data-name="Trazado 474" d="M24.347 11.977c.92.811 1.376.157 1.881.308-.516-.608-1.486-.194-1.881-.308" fill="#339744" fill-rule="evenodd"/><path data-name="Trazado 475" d="M24.347 11.977c.92.811 1.376.157 1.881.308-.516-.607-1.486-.193-1.881-.308z" fill="none" stroke="#0b070c" stroke-miterlimit="2.613" stroke-width=".044"/><path data-name="Trazado 476" d="M22.855 11.071c1.028.693 1.322.287 2.114.146a2.506 2.506 0 00-2.114-.146" fill="#339744" fill-rule="evenodd"/><path data-name="Trazado 477" d="M22.855 11.071c1.028.693 1.322.287 2.114.146a2.506 2.506 0 00-2.114-.146z" fill="none" stroke="#0b070c" stroke-miterlimit="2.613" stroke-width=".044"/><path data-name="Trazado 478" d="M24.528 11.087c.7 1 .785.582 1.585.725-.647-.62-.832-.735-1.585-.725" fill="#339744" fill-rule="evenodd"/><path data-name="Trazado 479" d="M24.528 11.087c.7 1 .785.582 1.585.725-.647-.619-.832-.733-1.585-.725z" fill="none" stroke="#0b070c" stroke-miterlimit="2.613" stroke-width=".044"/><path data-name="Trazado 480" d="M25.79 10.963c1.489.52.939 1.273 1.4 1.683-1.014-.218-1.039-1.342-1.4-1.683" fill="#339744" fill-rule="evenodd"/><path data-name="Trazado 481" d="M25.79 10.963c1.489.52.939 1.273 1.4 1.683-1.017-.218-1.042-1.343-1.4-1.683z" fill="none" stroke="#0b070c" stroke-miterlimit="2.613" stroke-width=".044"/><path data-name="Trazado 482" d="M22.399 10.678c-1.053-.372-1.195.312-1.658.351.635.339 1.287-.318 1.658-.351" fill="#339744" fill-rule="evenodd"/><path data-name="Trazado 483" d="M22.399 10.678c-1.053-.372-1.195.312-1.658.351.635.342 1.287-.317 1.658-.351z" fill="none" stroke="#0b070c" stroke-miterlimit="2.613" stroke-width=".044"/><path data-name="Trazado 484" d="M21.607 10.479c-1.194-.123-1.154.632-1.634.781.753.2 1.268-.65 1.634-.781" fill="#339744" fill-rule="evenodd"/><path data-name="Trazado 485" d="M21.607 10.479c-1.194-.123-1.154.632-1.634.781.753.196 1.268-.65 1.634-.781z" fill="none" stroke="#0b070c" stroke-miterlimit="2.613" stroke-width=".044"/><path data-name="Trazado 486" d="M23.008 11.86c-1.073.615-1.384-.118-1.907-.061.636-.5 1.491.09 1.907.061" fill="#339744" fill-rule="evenodd"/><path data-name="Trazado 487" d="M23.008 11.86c-1.073.615-1.384-.118-1.907-.061.636-.5 1.491.09 1.907.061z" fill="none" stroke="#0b070c" stroke-miterlimit="2.613" stroke-width=".044"/><path data-name="Trazado 488" d="M21.614 12.095c-.926.816-1.381.157-1.888.319.523-.618 1.486-.209 1.888-.319" fill="#339744" fill-rule="evenodd"/><path data-name="Trazado 489" d="M21.614 12.095c-.926.816-1.381.157-1.888.319.523-.619 1.486-.212 1.888-.319z" fill="none" stroke="#0b070c" stroke-miterlimit="2.613" stroke-width=".044"/><path data-name="Trazado 490" d="M23.101 11.187c-1.025.692-1.315.3-2.12.156a2.54 2.54 0 012.12-.156" fill="#339744" fill-rule="evenodd"/><path data-name="Trazado 491" d="M23.101 11.187c-1.025.692-1.315.3-2.12.156a2.54 2.54 0 012.12-.156z" fill="none" stroke="#0b070c" stroke-miterlimit="2.613" stroke-width=".044"/><path data-name="Trazado 492" d="M21.432 11.21c-.7 1-.788.584-1.589.722.655-.624.834-.737 1.589-.722" fill="#339744" fill-rule="evenodd"/><path data-name="Trazado 493" d="M21.432 11.21c-.7 1-.788.584-1.589.722.655-.623.834-.737 1.589-.722z" fill="none" stroke="#0b070c" stroke-miterlimit="2.613" stroke-width=".044"/><path data-name="Trazado 494" d="M20.167 11.083c-1.478.518-.932 1.27-1.394 1.679 1.012-.209 1.042-1.343 1.394-1.679" fill="#339744" fill-rule="evenodd"/><path data-name="Trazado 495" d="M20.167 11.083c-1.478.518-.932 1.27-1.394 1.679 1.008-.208 1.038-1.343 1.394-1.679z" fill="none" stroke="#0b070c" stroke-miterlimit="2.613" stroke-width=".044"/><path data-name="Trazado 496" d="M23.31 10.619c-1.016.7-.95.286-1.754.165.834-.38 1.042-.43 1.754-.165" fill="#339744" fill-rule="evenodd"/><path data-name="Trazado 497" d="M23.31 10.619c-1.016.7-.95.286-1.754.165.834-.379 1.042-.429 1.754-.165z" fill="none" stroke="#0b070c" stroke-miterlimit="2.613" stroke-width=".044"/><path data-name="Trazado 498" d="M38.152 9.665l.292.312-.866.766a2.474 2.474 0 00-.259.243.321.321 0 00-.074.231.55.55 0 00.38.418.275.275 0 00.214-.044 2.163 2.163 0 00.285-.223l.9-.771.29.306-.846.743a2.786 2.786 0 01-.441.327.509.509 0 01-.283.08.736.736 0 01-.306-.063 1.06 1.06 0 01-.33-.259 1.252 1.252 0 01-.258-.379.731.731 0 01-.034-.3.525.525 0 01.1-.251 1.793 1.793 0 01.38-.387zm-2.035-.614l.243.212a1.214 1.214 0 00.306.239.182.182 0 00.151.017.308.308 0 00.223-.235.248.248 0 00-.064-.175 2.427 2.427 0 00-.222-.217l-.255-.235zm-1.173.59l1.485-1.522.673.608a1.5 1.5 0 01.328.373.5.5 0 01.045.307.689.689 0 01-.162.314.646.646 0 01-.385.185.624.624 0 01-.449-.143 1.11 1.11 0 01.051.289 2.244 2.244 0 01-.061.412l-.094.47-.389-.337.093-.546a2.63 2.63 0 00.047-.382.3.3 0 00-.03-.155.57.57 0 00-.144-.158l-.06-.062-.621.647zm-1.648-1.154l1.315-1.673 1.284.94-.226.275-.934-.681-.288.366.879.634-.231.282-.863-.634-.366.456.977.714-.221.289zm-.5-2.285l-.294.526.2.121a1.491 1.491 0 00.325.123.267.267 0 00.17-.026.314.314 0 00.13-.12.258.258 0 00.028-.195.306.306 0 00-.11-.169 1.421 1.421 0 00-.266-.162zm-1.254 1.32l1.054-1.831.61.325a3.269 3.269 0 01.44.275.536.536 0 01.171.328.759.759 0 01-.319.659.639.639 0 01-.265.1.623.623 0 01-.251-.021 4.468 4.468 0 01-.413-.182l-.247-.141-.4.69zm-2.482-.989l.731-1.956.413.147-.614 1.619 1.026.367-.125.33zm-1.975-.519l.524-2.032 1.568.376-.093.335-1.134-.27-.12.452 1.066.252-.1.341-1.054-.254-.144.553 1.177.284-.087.344zm-1.466-2.012l-.2 1.382.322.037a1.649 1.649 0 00.265.019.716.716 0 00.193-.062.517.517 0 00.137-.188 1.291 1.291 0 00.1-.373 1.124 1.124 0 00.006-.376.551.551 0 00-.087-.221.478.478 0 00-.192-.125 2.592 2.592 0 00-.348-.067zm-.385-.414l.791.108a1.84 1.84 0 01.4.094.718.718 0 01.295.237.769.769 0 01.158.377 1.4 1.4 0 010 .5 1.258 1.258 0 01-.128.427.9.9 0 01-.282.338.854.854 0 01-.329.127 1.226 1.226 0 01-.391-.01l-.816-.117zm-2.218 1.164l-.314-.766-.276.793zm.842.814l-.475.009-.209-.465-.862.026-.172.483-.457.014.769-2.125.462-.011zm-2.853-.652l.442.076a.95.95 0 01-.25.55.986.986 0 01-.544.247.963.963 0 01-.749-.191 1.114 1.114 0 01-.391-.744 1.088 1.088 0 01.162-.834.959.959 0 01.683-.386.929.929 0 01.68.133.822.822 0 01.275.357l-.417.157a.433.433 0 00-.192-.232.51.51 0 00-.315-.062.477.477 0 00-.358.226.756.756 0 00-.071.558.834.834 0 00.225.532.506.506 0 00.409.116.41.41 0 00.275-.139.649.649 0 00.134-.365M18.88 6.05l-.517-2.036.426-.1.519 2.039zm-1.743.486l-.628-2 .42-.122.527 1.657 1.04-.311.113.332zm-2.019-.2l.229.517.372-.16a1.259 1.259 0 00.271-.126.233.233 0 00.118-.135.253.253 0 00-.017-.181.305.305 0 00-.11-.13.3.3 0 00-.17-.041 1.181 1.181 0 00-.368.126zm-.332-.766l.188.443.271-.107c.155-.071.252-.106.285-.126a.3.3 0 00.138-.136.24.24 0 00-.018-.182.213.213 0 00-.114-.126.225.225 0 00-.174 0c-.048.018-.158.052-.342.136zm-.543-.163l.795-.325a2.328 2.328 0 01.363-.125.5.5 0 01.242-.006.646.646 0 01.221.1.492.492 0 01.162.211.439.439 0 01.036.27.557.557 0 01-.131.264.56.56 0 01.358.056.45.45 0 01.22.244.588.588 0 01.05.289.494.494 0 01-.081.27.774.774 0 01-.227.2c-.071.034-.231.1-.49.208l-.676.282zm-2.139 1.107l.387-.21.567 1a2.677 2.677 0 00.191.3.338.338 0 00.221.113.5.5 0 00.3-.056.409.409 0 00.2-.209.255.255 0 00.01-.209c-.03-.058-.083-.171-.157-.322l-.587-1.01.386-.209.549.964a3.024 3.024 0 01.237.483.63.63 0 01.018.295.563.563 0 01-.138.267.96.96 0 01-.339.244 1.152 1.152 0 01-.444.169.616.616 0 01-.306-.043.6.6 0 01-.226-.144 2.521 2.521 0 01-.307-.442zm-1.3 1.331l.377.477.186-.138a1.286 1.286 0 00.262-.229.306.306 0 00.048-.16.352.352 0 00-.061-.155.334.334 0 00-.178-.119.4.4 0 00-.2.03c-.04.02-.127.084-.26.17zm.735 1.657l-1.305-1.688.572-.409a2.587 2.587 0 01.43-.275.53.53 0 01.382-.021.789.789 0 01.5.556.5.5 0 01-.024.269.553.553 0 01-.117.213 2.244 2.244 0 01-.342.288l-.227.173.489.624zm-1.519 1.3L8.543 9.264 9.72 8.201l.251.254-.858.778.328.342.792-.724.259.259-.8.719.408.421.882-.792.244.241zm-2.142.408l.228-.233a1.375 1.375 0 00.239-.311.214.214 0 00.009-.14.235.235 0 00-.091-.129.247.247 0 00-.168-.077.252.252 0 00-.17.065c-.034.033-.1.1-.222.228l-.235.237zm.648 1.125l-1.623-1.4.623-.666a1.416 1.416 0 01.379-.319.515.515 0 01.325-.055.7.7 0 01.317.162.573.573 0 01.2.365.659.659 0 01-.146.432 1.557 1.557 0 01.3-.049 2.76 2.76 0 01.43.046l.486.084-.349.38-.562-.074a1.878 1.878 0 00-.382-.043.389.389 0 00-.164.036.771.771 0 00-.169.141l-.057.064.675.583zm30.28-2.211l.414-.157.239.247-.508.059z" fill="#0b070c" fill-rule="evenodd"/><path data-name="Trazado 499" d="M12.716 6.002l-.044-.441.3-.166-.079.507z" fill="#0b070c"/></g></g></svg>