<svg xmlns="http://www.w3.org/2000/svg" width="80.219" height="18"><g data-name="Grupo 1624"><g data-name="Grupo 1624"><g data-name="Grupo 1462" fill="#fff"><path data-name="Trazado 3158" d="M6.862 17.95c-.351-.058-.7-.1-1.051-.176a7.451 7.451 0 01-5.667-5.737 9.619 9.619 0 01.072-3.673 12.115 12.115 0 012.976-5.686A15.283 15.283 0 016.128.09c.033-.022.068-.042.147-.089a6.122 6.122 0 002.361 4.414 3.83 3.83 0 00.534-1.981.285.285 0 01.067.019 11.772 11.772 0 014.229 4.74 7.8 7.8 0 01.257 6.506 6.7 6.7 0 01-5.035 4.11c-.3.067-.609.1-.915.142zm.272-12.264c-.41.361-.814.7-1.195 1.057a11.1 11.1 0 00-2.483 3.254 4.827 4.827 0 00-.492 2.921 4.232 4.232 0 007.927 1.264 4.354 4.354 0 00.059-3.9 12.463 12.463 0 00-3.816-4.597z" style="isolation:isolate"/><path data-name="Trazado 3159" d="M7.163 7.019c.343.327.7.642 1.023.98a7.943 7.943 0 011.885 2.837 3.426 3.426 0 01-.126 2.883c-.081.151-.181.292-.3.48-.012-.223-.01-.39-.032-.555a3.71 3.71 0 00-.707-1.64 8.613 8.613 0 00-1.781-1.823c-.314.287-.638.562-.938.861a6.09 6.09 0 00-1.232 1.67 3.148 3.148 0 00-.331 1.441c-.036-.045-.075-.088-.107-.135a3.326 3.326 0 01-.374-2.982 6.394 6.394 0 011.349-2.353c.473-.539 1-1.028 1.506-1.538a1.765 1.765 0 01.165-.126z"/><path data-name="Trazado 3160" d="M7.134 11.512a4.128 4.128 0 011.424 2.158 1.445 1.445 0 01-2.212 1.492 1.461 1.461 0 01-.625-1.494 3.328 3.328 0 01.846-1.567c.176-.202.371-.386.567-.589z" style="isolation:isolate"/></g></g><g data-name="Grupo 1625"><text data-name="BALANCENACIONAL DE ENERGÍA ÚTIL" transform="translate(16.219 7)" fill="#fff" font-size="7" font-family="Prototype"><tspan x="0" y="0">BALANCENACIONAL</tspan><tspan x="0" y="9">DE ENERGÍA ÚTIL</tspan></text></g></g></svg>