<svg data-name="Grupo 2030" xmlns="http://www.w3.org/2000/svg" width="33.23" height="33.23"><circle data-name="Elipse 509" cx="16.616" cy="16.616" r="16.616" fill="#4467ad"/><g data-name="Grupo 2029"><g data-name="Grupo 2028" fill="#fefefe"><path data-name="Trazado 3251" d="M17.901 14.349c.273-.307.5-.618.778-.882a4.27 4.27 0 013.071-1.212 7.109 7.109 0 011.931.235 3.774 3.774 0 012.68 2.818 11.814 11.814 0 01.357 3.229c0 2.3-.007 4.591 0 6.886 0 .215-.06.271-.271.27q-1.773-.014-3.547 0c-.208 0-.253-.063-.252-.259q.01-3.276 0-6.552a5.9 5.9 0 00-.19-1.626 1.829 1.829 0 00-2.012-1.426 2.2 2.2 0 00-2.31 2.194 8.188 8.188 0 00-.062 1.024c0 2.124 0 4.248.006 6.372 0 .212-.052.274-.269.272q-1.787-.016-3.573 0c-.191 0-.246-.05-.246-.243q.008-6.308 0-12.616c0-.208.068-.256.265-.255q1.7.012 3.393 0c.208 0 .262.065.257.263-.013.5-.006 1.006-.006 1.508z"/><path data-name="Trazado 3252" d="M11.423 19.153v6.241c0 .231-.057.3-.3.3-1.182-.013-2.364-.01-3.546 0-.189 0-.246-.046-.246-.242q.008-6.318 0-12.637c0-.174.042-.236.227-.235 1.2.008 2.4.01 3.6 0 .23 0 .262.087.261.285.002 2.095.004 4.188.004 6.288z"/><path data-name="Trazado 3253" d="M11.749 8.405a2.361 2.361 0 11-2.357-2.349 2.369 2.369 0 012.357 2.349z"/></g></g></svg>