<?xml version="1.0" encoding="utf-8"?>
<!-- Generator: Adobe Illustrator 24.1.0, SVG Export Plug-In . SVG Version: 6.00 Build 0)  -->
<svg version="1.1" id="Capa_1" xmlns="http://www.w3.org/2000/svg" xmlns:xlink="http://www.w3.org/1999/xlink" x="0px" y="0px"
	 viewBox="0 0 80.2 18" style="enable-background:new 0 0 80.2 18;" xml:space="preserve">
<style type="text/css">
	.st0{fill:#FFFFFF;}
	.st1{enable-background:new    ;}
</style>
<g id="Grupo_1624" transform="translate(-1182.512 -996)">
	<g id="Grupo_1624-2" transform="translate(1182.512 996)">
		<g id="Grupo_1462" transform="translate(0)">
			<path id="Trazado_3158" class="st0" d="M6.9,18c-0.4-0.1-0.7-0.1-1.1-0.2C3,17.1,0.7,14.9,0.1,12C-0.1,10.8,0,9.6,0.2,8.4
				c0.5-2.1,1.5-4.1,3-5.7c0.9-1,1.9-1.9,2.9-2.6c0,0,0.1,0,0.1-0.1c0.1,1.7,1,3.3,2.4,4.4c0.4-0.6,0.5-1.3,0.5-2c0,0,0,0,0.1,0
				c1.8,1.2,3.3,2.8,4.2,4.7c1,2,1.1,4.4,0.3,6.5c-0.9,2.1-2.8,3.7-5,4.1c-0.3,0.1-0.6,0.1-0.9,0.1L6.9,18z M7.1,5.7
				C6.7,6,6.3,6.4,5.9,6.7c-1,0.9-1.9,2-2.5,3.3C3,10.9,2.8,11.9,3,12.9c0.4,2.3,2.6,3.9,4.9,3.5c1.3-0.2,2.4-1,3.1-2.2
				c0.6-1.2,0.7-2.7,0.1-3.9C10.1,8.5,8.8,6.9,7.1,5.7L7.1,5.7z"/>
			<path id="Trazado_3159" class="st0" d="M7.2,7c0.3,0.3,0.7,0.6,1,1c0.8,0.8,1.5,1.8,1.9,2.8c0.4,0.9,0.3,2-0.1,2.9
				c-0.1,0.2-0.2,0.3-0.3,0.5c0-0.2,0-0.4,0-0.6C9.5,13,9.3,12.5,8.9,12c-0.5-0.7-1.1-1.3-1.8-1.8c-0.3,0.3-0.6,0.6-0.9,0.9
				c-0.5,0.5-0.9,1-1.2,1.7c-0.2,0.4-0.3,0.9-0.3,1.4c0,0-0.1-0.1-0.1-0.1c-0.6-0.9-0.7-2-0.4-3c0.3-0.9,0.7-1.7,1.3-2.4
				c0.5-0.5,1-1,1.5-1.5C7.1,7.1,7.1,7.1,7.2,7z"/>
			<path id="Trazado_3160" class="st0" d="M7.1,11.5c0.7,0.5,1.2,1.3,1.4,2.2c0.2,0.8-0.3,1.5-1.1,1.7c-0.4,0.1-0.8,0-1.1-0.2
				c-0.5-0.3-0.7-0.9-0.6-1.5c0.1-0.6,0.4-1.1,0.8-1.6C6.7,11.9,6.9,11.7,7.1,11.5z"/>
		</g>
	</g>
	<g id="Grupo_1625" transform="translate(1198.731 996)">
		<g class="st1">
			<path class="st0" d="M0.3,2.1C0.3,2,0.3,2,0.3,2.1L2.9,2C3,2,3.2,2,3.3,2.1c0.1,0.1,0.3,0.1,0.4,0.2C3.8,2.4,3.9,2.5,4,2.7
				C4,2.8,4.1,3,4.1,3.2c0,0.3,0,0.5-0.1,0.6c0,0.1-0.1,0.3-0.1,0.3C3.8,4.2,3.7,4.3,3.7,4.3c0,0-0.1,0-0.1,0.1c0,0,0,0.1,0.1,0.1
				C3.8,4.6,3.9,4.6,4,4.7c0,0,0.1,0.1,0.1,0.1c0,0.1,0,0.1,0.1,0.2s0,0.1,0,0.2c0,0.1,0,0.1,0,0.2c0,0.2,0,0.4-0.1,0.6
				c0,0.2-0.1,0.4-0.2,0.5C3.8,6.7,3.7,6.8,3.5,6.9S3.1,7,2.8,7H0.4c0,0-0.1,0-0.1-0.1V2.1z M1.3,3.9C1.3,4,1.3,4,1.3,3.9L2.6,4
				c0.2,0,0.3,0,0.4-0.1c0.1-0.1,0.1-0.2,0.1-0.4C3.1,3.2,3,3.1,2.9,3S2.7,2.9,2.6,2.9H1.4c0,0-0.1,0-0.1,0.1V3.9z M1.3,6
				C1.3,6.1,1.3,6.1,1.3,6l1.5,0.1C2.9,6.1,3,6.1,3,6c0.1,0,0.1-0.1,0.1-0.2c0-0.1,0.1-0.1,0.1-0.2s0-0.1,0-0.2c0-0.1,0-0.2,0-0.3
				S3.2,5.1,3.1,5C3.1,5,3,5,3,5c0,0-0.1,0-0.1,0H1.4c0,0-0.1,0-0.1,0.1V6z"/>
			<path class="st0" d="M5.8,2.4c0.1-0.2,0.2-0.3,0.3-0.3C6.2,2,6.4,2,6.7,2C7,2,7.2,2,7.3,2.1c0.2,0,0.3,0.2,0.3,0.3L9.1,7
				c0,0,0,0,0,0H8.1C8,7,8,7,8,6.9L7.6,5.7c0,0,0-0.1-0.1-0.1H5.9c0,0-0.1,0-0.1,0.1L5.4,6.9c0,0,0,0.1-0.1,0.1H4.4c0,0-0.1,0-0.1,0
				L5.8,2.4z M6.8,3c0-0.1,0-0.1,0-0.1c0,0,0,0,0,0s0,0-0.1,0.1L6.1,4.6c0,0,0,0,0,0c0,0,0,0,0,0c0,0,0,0,0.1,0h1c0,0,0.1,0,0.1,0
				c0,0,0,0,0,0c0,0,0,0,0,0L6.8,3z"/>
			<path class="st0" d="M12.7,6.2v0.8c0,0,0,0.1-0.1,0.1h-1.9c0,0-0.1,0-0.1,0c0,0-0.1,0-0.1,0c-0.4,0-0.7-0.1-0.8-0.3
				C9.6,6.5,9.5,6.2,9.5,5.8V2.1c0,0,0-0.1,0.1-0.1h0.9c0,0,0.1,0,0.1,0.1v3.8c0,0.2,0.1,0.2,0.3,0.2L12.7,6.2
				C12.7,6.1,12.7,6.1,12.7,6.2z"/>
			<path class="st0" d="M14.3,2.4c0.1-0.2,0.2-0.3,0.3-0.3C14.8,2,15,2,15.3,2c0.3,0,0.5,0,0.6,0.1c0.2,0,0.3,0.2,0.3,0.3L17.6,7
				c0,0,0,0,0,0h-0.9c0,0-0.1,0-0.1-0.1l-0.4-1.2c0,0,0-0.1-0.1-0.1h-1.6c0,0-0.1,0-0.1,0.1L14,6.9c0,0,0,0.1-0.1,0.1H13
				c0,0-0.1,0-0.1,0L14.3,2.4z M15.4,3c0-0.1,0-0.1,0-0.1c0,0,0,0,0,0s0,0-0.1,0.1l-0.5,1.6c0,0,0,0,0,0c0,0,0,0,0,0c0,0,0,0,0.1,0
				h1c0,0,0.1,0,0.1,0c0,0,0,0,0,0c0,0,0,0,0,0L15.4,3z"/>
			<path class="st0" d="M18,3c0-0.2,0-0.3,0-0.5c0-0.1,0.1-0.2,0.2-0.3s0.2-0.1,0.3-0.2C18.7,2,18.9,2,19.1,2c0.3,0,0.5,0,0.6,0.1
				s0.2,0.2,0.3,0.4L20.9,6C20.9,6,21,6,21,6c0,0,0,0,0-0.1V2.1c0,0,0-0.1,0.1-0.1H22c0,0,0.1,0,0.1,0.1v4.1c0,0.1,0,0.2-0.1,0.3
				c0,0.1-0.1,0.2-0.2,0.3c-0.1,0.1-0.1,0.1-0.2,0.2C21.5,7,21.4,7,21.3,7h-0.6c-0.1,0-0.1,0-0.2,0c-0.1,0-0.1-0.1-0.2-0.1
				c-0.1,0-0.1-0.1-0.1-0.2s-0.1-0.1-0.1-0.2L19.2,3c0,0,0-0.1-0.1-0.1c0,0,0,0,0,0.1v3.9C19.1,7,19,7,19,7h-0.9c0,0-0.1,0-0.1-0.1
				V3z"/>
			<path class="st0" d="M22.6,3.5c0-0.2,0-0.4,0.1-0.6c0-0.1,0.1-0.2,0.1-0.3c0-0.1,0.1-0.1,0.2-0.2c0.1-0.2,0.3-0.3,0.5-0.4
				C23.7,2,23.9,2,24.1,2H26C26,2,26,2,26,2.1v0.8c0,0,0,0.1-0.1,0.1h-1.8c-0.2,0-0.3,0.1-0.4,0.3c-0.1,0.2-0.1,0.3-0.1,0.6v1.8
				c0,0.2,0.1,0.3,0.2,0.4s0.2,0.2,0.4,0.2H26c0,0,0.1,0,0.1,0.1v0.8C26,7,26,7,26,7h-1.8c-0.1,0-0.3,0-0.4,0
				c-0.1,0-0.2-0.1-0.3-0.1c-0.2-0.1-0.3-0.2-0.5-0.3c-0.1-0.1-0.3-0.3-0.3-0.5c0-0.1,0-0.1-0.1-0.2c0-0.1,0-0.2,0-0.3V3.5z"/>
			<path class="st0" d="M26.6,3.1c0-0.3,0.1-0.6,0.3-0.8C27,2.1,27.3,2,27.6,2H30c0.1,0,0.1,0,0.1,0.1v0.8c0,0,0,0.1-0.1,0.1h-2.3
				c0,0-0.1,0-0.1,0.1v1c0,0,0,0.1,0.1,0.1h2.1c0,0,0.1,0,0.1,0.1v0.8c0,0,0,0.1-0.1,0.1h-2.1c0,0-0.1,0-0.1,0.1v1
				c0,0,0,0.1,0.1,0.1H30c0,0,0.1,0,0.1,0.1v0.8C30.1,7,30,7,30,7h-2.7c-0.1,0-0.2,0-0.3-0.1s-0.2-0.1-0.2-0.2
				c-0.1-0.1-0.1-0.1-0.2-0.2c0-0.1-0.1-0.2-0.1-0.3V3.1z"/>
			<path class="st0" d="M30.6,3c0-0.2,0-0.3,0-0.5c0-0.1,0.1-0.2,0.2-0.3S31,2.1,31.2,2C31.3,2,31.5,2,31.7,2c0.3,0,0.5,0,0.6,0.1
				s0.2,0.2,0.3,0.4L33.5,6c0,0,0,0.1,0.1,0.1c0,0,0,0,0-0.1V2.1c0,0,0-0.1,0.1-0.1h0.9c0,0,0.1,0,0.1,0.1v4.1c0,0.1,0,0.2-0.1,0.3
				c0,0.1-0.1,0.2-0.2,0.3c-0.1,0.1-0.1,0.1-0.2,0.2C34.1,7,34,7,33.9,7h-0.6c-0.1,0-0.1,0-0.2,0c-0.1,0-0.1-0.1-0.2-0.1
				c-0.1,0-0.1-0.1-0.1-0.2s-0.1-0.1-0.1-0.2L31.8,3c0,0,0-0.1-0.1-0.1c0,0,0,0,0,0.1v3.9c0,0,0,0.1-0.1,0.1h-0.9c0,0-0.1,0-0.1-0.1
				V3z"/>
			<path class="st0" d="M36.4,2.4c0.1-0.2,0.2-0.3,0.3-0.3C36.9,2,37.1,2,37.3,2c0.3,0,0.5,0,0.6,0.1c0.2,0,0.3,0.2,0.3,0.3L39.7,7
				c0,0,0,0,0,0h-0.9c0,0-0.1,0-0.1-0.1l-0.4-1.2c0,0,0-0.1-0.1-0.1h-1.6c0,0-0.1,0-0.1,0.1L36,6.9C36,7,36,7,36,7H35
				C35,7,35,7,35,7L36.4,2.4z M37.4,3c0-0.1,0-0.1,0-0.1c0,0,0,0,0,0s0,0-0.1,0.1l-0.5,1.6c0,0,0,0,0,0c0,0,0,0,0,0c0,0,0,0,0.1,0h1
				c0,0,0.1,0,0.1,0c0,0,0,0,0,0c0,0,0,0,0,0L37.4,3z"/>
			<path class="st0" d="M39.8,3.5c0-0.2,0-0.4,0.1-0.6c0-0.1,0.1-0.2,0.1-0.3s0.1-0.1,0.2-0.2c0.1-0.2,0.3-0.3,0.5-0.4
				C40.9,2,41.1,2,41.3,2h1.9c0,0,0.1,0,0.1,0.1v0.8c0,0,0,0.1-0.1,0.1h-1.8c-0.2,0-0.3,0.1-0.4,0.3c-0.1,0.2-0.1,0.3-0.1,0.6v1.8
				c0,0.2,0.1,0.3,0.2,0.4s0.2,0.2,0.4,0.2h1.8c0,0,0.1,0,0.1,0.1v0.8c0,0,0,0.1-0.1,0.1h-1.8c-0.1,0-0.3,0-0.4,0
				c-0.1,0-0.2-0.1-0.3-0.1c-0.2-0.1-0.3-0.2-0.5-0.3C40.1,6.4,40,6.2,39.9,6c0-0.1,0-0.1-0.1-0.2c0-0.1,0-0.2,0-0.3V3.5z"/>
			<path class="st0" d="M43.9,2h0.9c0,0,0.1,0,0.1,0.1v4.9c0,0,0,0.1-0.1,0.1h-0.9c0,0-0.1,0-0.1-0.1L43.9,2C43.8,2,43.9,2,43.9,2z"
				/>
			<path class="st0" d="M45.4,4.5c0-0.3,0-0.5,0-0.7c0-0.2,0-0.4,0-0.5c0-0.2,0.1-0.3,0.1-0.5s0.1-0.3,0.2-0.4
				c0.1-0.1,0.2-0.2,0.4-0.3C46.2,2,46.4,2,46.5,1.9c0.1,0,0.3,0,0.4,0s0.4,0,0.7,0s0.5,0,0.7,0c0.2,0,0.3,0,0.4,0
				C48.9,2,49,2,49.2,2.1c0.1,0.1,0.3,0.2,0.3,0.3c0.1,0.1,0.1,0.2,0.2,0.4s0.1,0.3,0.1,0.5c0,0.1,0,0.3,0,0.5c0,0.2,0,0.4,0,0.7v0
				c0,0.3,0,0.5,0,0.7c0,0.2,0,0.4,0,0.5c0,0.2-0.1,0.3-0.1,0.5c0,0.1-0.1,0.3-0.2,0.4c-0.1,0.1-0.2,0.2-0.3,0.3
				C49,7,48.9,7.1,48.7,7.1c-0.1,0-0.3,0-0.4,0c-0.2,0-0.4,0-0.7,0s-0.5,0-0.7,0s-0.3,0-0.4,0c-0.2,0-0.3-0.1-0.4-0.2
				c-0.1-0.1-0.3-0.2-0.4-0.3c-0.1-0.1-0.1-0.2-0.2-0.4c0-0.1-0.1-0.3-0.1-0.5c0-0.1,0-0.3,0-0.5C45.4,5,45.4,4.8,45.4,4.5L45.4,4.5
				z M47.2,2.9c-0.1,0-0.2,0-0.3,0c-0.2,0-0.3,0.1-0.4,0.2s-0.1,0.3-0.1,0.6v1.6c0,0.2,0,0.4,0.1,0.6c0.1,0.1,0.2,0.2,0.4,0.2
				c0.1,0,0.2,0,0.3,0c0.1,0,0.3,0,0.4,0s0.3,0,0.4,0c0.1,0,0.2,0,0.3,0c0.2,0,0.3-0.1,0.4-0.2c0.1-0.1,0.1-0.3,0.1-0.6V3.7
				c0-0.2,0-0.4-0.1-0.6c-0.1-0.1-0.2-0.2-0.4-0.2c-0.1,0-0.2,0-0.3,0c-0.1,0-0.3,0-0.4,0S47.3,2.8,47.2,2.9z"/>
			<path class="st0" d="M50.4,3c0-0.2,0-0.3,0-0.5c0-0.1,0.1-0.2,0.2-0.3s0.2-0.1,0.3-0.2C51.1,2,51.2,2,51.4,2c0.3,0,0.5,0,0.6,0.1
				s0.2,0.2,0.3,0.4L53.3,6c0,0,0,0.1,0.1,0.1c0,0,0,0,0-0.1V2.1c0,0,0-0.1,0.1-0.1h0.9c0,0,0.1,0,0.1,0.1v4.1c0,0.1,0,0.2-0.1,0.3
				c0,0.1-0.1,0.2-0.2,0.3c-0.1,0.1-0.1,0.1-0.2,0.2C53.9,7,53.8,7,53.7,7h-0.6c-0.1,0-0.1,0-0.2,0c-0.1,0-0.1-0.1-0.2-0.1
				c-0.1,0-0.1-0.1-0.1-0.2s-0.1-0.1-0.1-0.2L51.5,3c0,0,0-0.1-0.1-0.1c0,0,0,0,0,0.1v3.9c0,0,0,0.1-0.1,0.1h-0.9c0,0-0.1,0-0.1-0.1
				V3z"/>
			<path class="st0" d="M56.2,2.4c0.1-0.2,0.2-0.3,0.3-0.3C56.6,2,56.8,2,57.1,2c0.3,0,0.5,0,0.6,0.1c0.2,0,0.3,0.2,0.3,0.3L59.4,7
				c0,0,0,0,0,0h-0.9c0,0-0.1,0-0.1-0.1L58,5.7c0,0,0-0.1-0.1-0.1h-1.6c0,0-0.1,0-0.1,0.1l-0.4,1.2c0,0,0,0.1-0.1,0.1h-0.9
				c0,0-0.1,0-0.1,0L56.2,2.4z M57.2,3c0-0.1,0-0.1,0-0.1c0,0,0,0,0,0s0,0-0.1,0.1l-0.5,1.6c0,0,0,0,0,0c0,0,0,0,0,0c0,0,0,0,0.1,0
				h1c0,0,0.1,0,0.1,0c0,0,0,0,0,0c0,0,0,0,0,0L57.2,3z"/>
			<path class="st0" d="M63.1,6.2v0.8c0,0,0,0.1-0.1,0.1h-1.9c0,0-0.1,0-0.1,0c0,0-0.1,0-0.1,0c-0.4,0-0.7-0.1-0.8-0.3
				c-0.2-0.2-0.2-0.5-0.2-0.9V2.1c0,0,0-0.1,0.1-0.1h0.9c0,0,0.1,0,0.1,0.1v3.8c0,0.2,0.1,0.2,0.3,0.2L63.1,6.2
				C63.1,6.1,63.1,6.1,63.1,6.2z"/>
		</g>
		<g class="st1">
			<path class="st0" d="M0.3,15.9v-4.9c0,0,0-0.1,0.1-0.1h2.4C3,11,3.2,11,3.4,11.1s0.4,0.2,0.5,0.4c0.1,0.2,0.2,0.3,0.3,0.6
				s0.1,0.4,0.1,0.6v1.7c0,0.2,0,0.4-0.1,0.6c-0.1,0.2-0.2,0.4-0.3,0.5c-0.1,0.2-0.3,0.3-0.5,0.4S3,16,2.8,16L0.3,15.9
				C0.3,16,0.3,16,0.3,15.9z M1.3,15C1.3,15.1,1.3,15.1,1.3,15l1.3,0.1c0.1,0,0.2,0,0.2-0.1c0.1,0,0.1-0.1,0.2-0.2
				c0.1-0.1,0.1-0.1,0.1-0.2c0-0.1,0.1-0.2,0.1-0.2v-1.9c0-0.1,0-0.2-0.1-0.2c0-0.1-0.1-0.2-0.2-0.2S2.9,12,2.8,12
				c-0.1,0-0.2-0.1-0.2-0.1H1.4c0,0-0.1,0-0.1,0.1V15z"/>
			<path class="st0" d="M4.8,12.1c0-0.3,0.1-0.6,0.3-0.8C5.2,11.1,5.5,11,5.8,11h2.4c0.1,0,0.1,0,0.1,0.1v0.8c0,0,0,0.1-0.1,0.1H5.9
				c0,0-0.1,0-0.1,0.1v1c0,0,0,0.1,0.1,0.1H8c0,0,0.1,0,0.1,0.1v0.8c0,0,0,0.1-0.1,0.1H5.9c0,0-0.1,0-0.1,0.1v1c0,0,0,0.1,0.1,0.1
				h2.3c0,0,0.1,0,0.1,0.1v0.8c0,0,0,0.1-0.1,0.1H5.5c-0.1,0-0.2,0-0.3-0.1S5.1,15.8,5,15.8c-0.1-0.1-0.1-0.1-0.2-0.2
				c0-0.1-0.1-0.2-0.1-0.3V12.1z"/>
			<path class="st0" d="M10.8,12.1c0-0.3,0.1-0.6,0.3-0.8s0.4-0.3,0.7-0.3h2.4c0.1,0,0.1,0,0.1,0.1v0.8c0,0,0,0.1-0.1,0.1h-2.3
				c0,0-0.1,0-0.1,0.1v1c0,0,0,0.1,0.1,0.1h2.1c0,0,0.1,0,0.1,0.1v0.8c0,0,0,0.1-0.1,0.1h-2.1c0,0-0.1,0-0.1,0.1v1
				c0,0,0,0.1,0.1,0.1h2.3c0,0,0.1,0,0.1,0.1v0.8c0,0,0,0.1-0.1,0.1h-2.7c-0.1,0-0.2,0-0.3-0.1s-0.2-0.1-0.2-0.2
				c-0.1-0.1-0.1-0.1-0.2-0.2c0-0.1-0.1-0.2-0.1-0.3V12.1z"/>
			<path class="st0" d="M14.9,12c0-0.2,0-0.3,0-0.5c0-0.1,0.1-0.2,0.2-0.3s0.2-0.1,0.3-0.2c0.1,0,0.3-0.1,0.5-0.1
				c0.3,0,0.5,0,0.6,0.1s0.2,0.2,0.3,0.4l0.9,3.5c0,0,0,0.1,0.1,0.1c0,0,0,0,0-0.1v-3.9c0,0,0-0.1,0.1-0.1h0.9c0,0,0.1,0,0.1,0.1
				v4.1c0,0.1,0,0.2-0.1,0.3c0,0.1-0.1,0.2-0.2,0.3c-0.1,0.1-0.1,0.1-0.2,0.2c-0.1,0-0.2,0.1-0.3,0.1h-0.6c-0.1,0-0.1,0-0.2,0
				c-0.1,0-0.1-0.1-0.2-0.1c-0.1,0-0.1-0.1-0.1-0.2s-0.1-0.1-0.1-0.2L16,12c0,0,0-0.1-0.1-0.1c0,0,0,0,0,0.1v3.9c0,0,0,0.1-0.1,0.1
				h-0.9c0,0-0.1,0-0.1-0.1V12z"/>
			<path class="st0" d="M19.4,12.1c0-0.3,0.1-0.6,0.3-0.8s0.4-0.3,0.7-0.3h2.4c0.1,0,0.1,0,0.1,0.1v0.8c0,0,0,0.1-0.1,0.1h-2.3
				c0,0-0.1,0-0.1,0.1v1c0,0,0,0.1,0.1,0.1h2.1c0,0,0.1,0,0.1,0.1v0.8c0,0,0,0.1-0.1,0.1h-2.1c0,0-0.1,0-0.1,0.1v1
				c0,0,0,0.1,0.1,0.1h2.3c0,0,0.1,0,0.1,0.1v0.8c0,0,0,0.1-0.1,0.1h-2.7c-0.1,0-0.2,0-0.3-0.1s-0.2-0.1-0.2-0.2
				c-0.1-0.1-0.1-0.1-0.2-0.2c0-0.1-0.1-0.2-0.1-0.3V12.1z"/>
			<path class="st0" d="M23.6,11h2.6c0.1,0,0.3,0,0.4,0.1c0.1,0.1,0.3,0.1,0.4,0.3c0.2,0.2,0.3,0.6,0.3,1v0.2c0,0.4,0,0.7-0.1,0.9
				c-0.1,0.1-0.1,0.2-0.2,0.3c-0.1,0.1-0.2,0.1-0.3,0.2c0,0,0,0,0,0c0,0,0,0,0,0c0,0,0,0,0,0c0.1,0.1,0.2,0.3,0.2,0.4
				c0,0.1,0.1,0.2,0.1,0.3l0.4,1.2c0,0,0,0.1,0.1,0.1c0,0,0,0.1,0,0.1c0,0,0,0,0,0h-1c0,0-0.1,0-0.1-0.1c0,0-0.1-0.1-0.1-0.1
				l-0.4-1.2c-0.1-0.3-0.2-0.4-0.4-0.4h-0.9c0,0-0.1,0-0.1,0.1v1.7c0,0,0,0.1-0.1,0.1h-0.9c0,0-0.1,0-0.1-0.1L23.6,11
				C23.5,11,23.5,11,23.6,11z M24.6,11.9C24.5,11.9,24.5,11.9,24.6,11.9l-0.1,1.2c0,0,0,0.1,0.1,0.1h1.3c0.1,0,0.1,0,0.2-0.1
				c0.1-0.1,0.1-0.1,0.2-0.2c0-0.1,0.1-0.2,0.1-0.4c0-0.1,0-0.1,0-0.2c0-0.1,0-0.1,0-0.2c-0.1-0.2-0.2-0.2-0.3-0.3H24.6z"/>
			<path class="st0" d="M31.5,11C31.6,11,31.6,11,31.5,11l0.1,0.8c0,0,0,0.1-0.1,0.1h-2.1c0,0-0.1,0-0.1,0.1c-0.1,0-0.1,0.1-0.2,0.1
				S29,12.2,29,12.2c0,0.1-0.1,0.1-0.1,0.2v1.8c0,0.3,0.1,0.5,0.2,0.6c0.1,0.2,0.3,0.2,0.4,0.2h0.9c0.1,0,0.2,0,0.2,0
				c0.1,0,0.1-0.1,0.2-0.1c0,0,0.1-0.1,0.1-0.2c0-0.1,0-0.1,0-0.1V14c0,0,0-0.1-0.1-0.1h-1.1c0,0-0.1,0-0.1-0.1v-0.8
				c0,0,0-0.1,0.1-0.1h2.2c0,0,0.1,0,0.1,0.1v1.6c0,0.1,0,0.2-0.1,0.4s-0.1,0.3-0.2,0.4c-0.1,0.1-0.3,0.3-0.4,0.4
				C31,15.9,30.8,16,30.5,16h-1.2c-0.2,0-0.4-0.1-0.6-0.2s-0.3-0.2-0.4-0.4c-0.1-0.2-0.2-0.3-0.3-0.5c-0.1-0.2-0.1-0.4-0.1-0.5v-2
				c0-0.2,0-0.3,0.1-0.5c0.1-0.2,0.2-0.3,0.3-0.5c0.1-0.1,0.3-0.3,0.4-0.3C28.8,11,29,11,29.2,11h1.4H31.5z"/>
			<path class="st0" d="M32.4,10.3c0.2-0.1,0.3-0.2,0.5-0.3c0.2-0.1,0.3-0.2,0.5-0.3c0.2-0.1,0.3-0.1,0.4-0.1c0.1,0,0.2,0,0.3,0.1
				c0.1,0.1,0.1,0.1,0.1,0.2c0,0.1,0,0.2-0.1,0.3s-0.1,0.2-0.3,0.2c-0.1,0.1-0.3,0.1-0.6,0.2c-0.3,0.1-0.6,0.1-1,0.2c0,0,0,0-0.1,0
				c-0.1,0-0.1,0-0.1,0c0,0-0.1,0-0.1-0.1c0,0,0,0,0,0c0,0,0,0,0.1-0.1C32.1,10.5,32.2,10.4,32.4,10.3z M32.6,11h0.9
				c0,0,0.1,0,0.1,0.1v4.9c0,0,0,0.1-0.1,0.1h-0.9c0,0-0.1,0-0.1-0.1L32.6,11C32.5,11,32.5,11,32.6,11z"/>
			<path class="st0" d="M35.5,11.4c0.1-0.2,0.2-0.3,0.3-0.3c0.1,0,0.4-0.1,0.6-0.1c0.3,0,0.5,0,0.6,0.1c0.2,0,0.3,0.2,0.3,0.3
				l1.4,4.6c0,0,0,0,0,0h-0.9c0,0-0.1,0-0.1-0.1l-0.4-1.2c0,0,0-0.1-0.1-0.1h-1.6c0,0-0.1,0-0.1,0.1l-0.4,1.2c0,0,0,0.1-0.1,0.1
				h-0.9c0,0-0.1,0-0.1,0L35.5,11.4z M36.5,12c0-0.1,0-0.1,0-0.1c0,0,0,0,0,0s0,0-0.1,0.1l-0.5,1.6c0,0,0,0,0,0c0,0,0,0,0,0
				c0,0,0,0,0.1,0h1c0,0,0.1,0,0.1,0c0,0,0,0,0,0c0,0,0,0,0,0L36.5,12z"/>
			<path class="st0" d="M44,11h0.9c0,0,0.1,0,0.1,0.1v3.3c0,0.2,0,0.3,0,0.4c0,0.1,0,0.2-0.1,0.3c0,0.1-0.1,0.2-0.1,0.2
				c-0.1,0.1-0.1,0.2-0.2,0.2c-0.1,0.1-0.2,0.1-0.2,0.2c-0.1,0-0.2,0.1-0.3,0.1c-0.1,0-0.2,0.1-0.3,0.1c-0.1,0-0.2,0-0.3,0h-0.8
				c-0.2,0-0.3,0-0.4,0c-0.1,0-0.2-0.1-0.3-0.1c-0.1-0.1-0.2-0.1-0.3-0.2c-0.1-0.1-0.2-0.2-0.2-0.3c-0.1-0.1-0.1-0.2-0.1-0.3
				s-0.1-0.2-0.1-0.4v-3.6c0,0,0-0.1,0.1-0.1h0.9c0,0,0.1,0,0.1,0.1v3.4c0,0.1,0,0.1,0,0.2c0,0.1,0.1,0.1,0.1,0.2
				c0,0.1,0.1,0.1,0.2,0.2c0.1,0,0.1,0.1,0.2,0.1h0.7c0.1,0,0.2,0,0.2-0.1c0.1,0,0.1-0.1,0.2-0.2c0-0.1,0.1-0.1,0.1-0.2
				c0-0.1,0-0.1,0-0.2L44,11C43.9,11,43.9,11,44,11z M42.4,10.4c0.2-0.1,0.3-0.2,0.5-0.3c0.2-0.1,0.3-0.2,0.5-0.3s0.3-0.1,0.4-0.1
				c0.1,0,0.2,0,0.3,0.1c0.1,0.1,0.1,0.1,0.1,0.2c0,0.1,0,0.2-0.1,0.3s-0.1,0.2-0.3,0.2s-0.3,0.1-0.6,0.2c-0.3,0.1-0.6,0.1-1,0.2
				c0,0,0,0-0.1,0c-0.1,0-0.1,0-0.1,0c0,0-0.1,0-0.1-0.1c0,0,0,0,0,0c0,0,0,0,0.1-0.1C42.1,10.6,42.3,10.5,42.4,10.4z"/>
			<path class="st0" d="M47.8,15.9C47.8,16,47.8,16,47.8,15.9L46.8,16c0,0-0.1,0-0.1-0.1v-4c0,0,0-0.1-0.1-0.1h-1.1
				c0,0-0.1,0-0.1-0.1v-0.8c0,0,0-0.1,0.1-0.1H49c0,0,0.1,0,0.1,0.1v0.8c0,0,0,0.1-0.1,0.1h-1.1c0,0-0.1,0-0.1,0.1V15.9z"/>
			<path class="st0" d="M49.6,11h0.9c0,0,0.1,0,0.1,0.1v4.9c0,0,0,0.1-0.1,0.1h-0.9c0,0-0.1,0-0.1-0.1L49.6,11
				C49.5,11,49.5,11,49.6,11z"/>
			<path class="st0" d="M54.3,15.2v0.8c0,0,0,0.1-0.1,0.1h-1.9c0,0-0.1,0-0.1,0c0,0-0.1,0-0.1,0c-0.4,0-0.7-0.1-0.8-0.3
				c-0.2-0.2-0.2-0.5-0.2-0.9v-3.7c0,0,0-0.1,0.1-0.1H52c0,0,0.1,0,0.1,0.1v3.8c0,0.2,0.1,0.2,0.3,0.2L54.3,15.2
				C54.3,15.1,54.3,15.1,54.3,15.2z"/>
		</g>
	</g>
</g>
</svg>
