<?xml version="1.0" encoding="utf-8"?>
<!-- Generator: Adobe Illustrator 24.1.0, SVG Export Plug-In . SVG Version: 6.00 Build 0)  -->
<svg version="1.1" id="Capa_1" xmlns="http://www.w3.org/2000/svg" xmlns:xlink="http://www.w3.org/1999/xlink" x="0px" y="0px"
	 viewBox="0 0 161 32.1" style="enable-background:new 0 0 161 32.1;" xml:space="preserve">
<style type="text/css">
	.st0{fill:#BCE0FD;}
	.st1{fill:#0B489D;}
	.st2{fill:#4DAF4A;}
	.st3{enable-background:new    ;}
	.st4{fill:#37992F;}
</style>
<g id="Grupo_2148" transform="translate(22601.979 18911)">
	<g id="Grupo_1463" transform="translate(-22601.979 -18911)">
		<g id="Grupo_1462" transform="translate(0)">
			<path id="Trazado_3158" class="st0" d="M14.2,31.2c-0.6-0.1-1.2-0.2-1.8-0.3c-4.9-1.1-8.8-5-9.8-10c-0.4-2.1-0.3-4.3,0.1-6.4
				c0.8-3.7,2.6-7.1,5.2-9.9c1.5-1.7,3.2-3.2,5.1-4.5C13,0.1,13,0.1,13.2,0c0.1,3.3,1.9,5.6,4.1,7.7c0.6-1,0.9-2.2,0.9-3.4
				c0,0,0.1,0,0.1,0c3.2,2,5.7,4.9,7.3,8.2c1.8,3.5,2,7.6,0.4,11.3c-1.5,3.7-4.8,6.4-8.7,7.1c-0.5,0.1-1.1,0.2-1.6,0.2L14.2,31.2z
				 M14.7,9.9c-0.7,0.6-1.4,1.2-2.1,1.8c-1.8,1.6-3.2,3.5-4.3,5.6c-0.8,1.6-1.1,3.3-0.9,5.1c0.7,4,4.5,6.7,8.5,6
				c2.3-0.4,4.2-1.8,5.3-3.8c1.1-2.1,1.1-4.6,0.1-6.8C19.9,14.6,17.4,12.1,14.7,9.9L14.7,9.9z"/>
			<path id="Trazado_3159" class="st1" d="M14.7,12.2c0.6,0.6,1.2,1.1,1.8,1.7c1.4,1.4,2.6,3.1,3.3,4.9c0.7,1.6,0.6,3.4-0.2,5
				c-0.1,0.3-0.3,0.5-0.5,0.8c0-0.4,0-0.7-0.1-1c-0.2-1-0.6-2-1.2-2.8c-0.9-1.2-1.9-2.3-3.1-3.2c-0.5,0.5-1.1,1-1.6,1.5
				c-0.9,0.8-1.6,1.8-2.1,2.9c-0.4,0.8-0.6,1.6-0.6,2.5c-0.1-0.1-0.1-0.2-0.2-0.2c-1-1.5-1.3-3.4-0.6-5.2c0.5-1.5,1.3-2.9,2.3-4.1
				c0.8-0.9,1.7-1.8,2.6-2.7C14.5,12.3,14.6,12.3,14.7,12.2z"/>
			<path id="Trazado_3160" class="st2" d="M14.7,20c1.2,1,2.1,2.3,2.5,3.7c0.3,1.4-0.6,2.7-2,3c-0.6,0.1-1.3,0-1.9-0.4
				c-0.9-0.6-1.3-1.6-1.1-2.6c0.2-1,0.7-2,1.5-2.7C14,20.7,14.3,20.3,14.7,20z"/>
		</g>
	</g>
	<g class="st3">
		<path class="st4" d="M-22571-18908c0-0.1,0-0.1,0.1-0.1h4.9c0.3,0,0.6,0.1,0.9,0.2c0.3,0.1,0.5,0.3,0.7,0.5
			c0.2,0.2,0.4,0.5,0.5,0.7c0.1,0.3,0.2,0.6,0.2,1c0,0.5,0,0.9-0.1,1.2c-0.1,0.3-0.2,0.5-0.3,0.7c-0.1,0.2-0.2,0.3-0.3,0.3
			c-0.1,0.1-0.1,0.1-0.1,0.1c0,0,0.1,0.1,0.2,0.3s0.3,0.3,0.5,0.5c0.1,0.1,0.1,0.2,0.2,0.3c0,0.1,0.1,0.2,0.1,0.3
			c0,0.1,0.1,0.2,0.1,0.3c0,0.1,0,0.2,0,0.3c0,0.4,0,0.8-0.1,1.2s-0.2,0.7-0.4,1c-0.2,0.3-0.5,0.5-0.8,0.7c-0.3,0.2-0.8,0.2-1.3,0.2
			h-4.8c-0.1,0-0.1,0-0.1-0.1V-18908z M-22569-18904.4c0,0.1,0,0.1,0.1,0.1h2.4c0.4,0,0.6-0.1,0.8-0.2s0.2-0.4,0.2-0.9
			c0-0.4-0.1-0.7-0.3-0.8c-0.2-0.1-0.4-0.2-0.7-0.2h-2.4c-0.1,0-0.1,0-0.1,0.1V-18904.4z M-22569-18900.3c0,0.1,0,0.1,0.1,0.1h2.9
			c0.2,0,0.3,0,0.4-0.1s0.2-0.2,0.2-0.3c0.1-0.1,0.1-0.3,0.1-0.4c0-0.1,0-0.3,0-0.4c0-0.2,0-0.4-0.1-0.5c-0.1-0.1-0.1-0.3-0.2-0.3
			c-0.1-0.1-0.2-0.1-0.3-0.2s-0.2,0-0.3,0h-2.9c-0.1,0-0.1,0-0.1,0.1V-18900.3z"/>
		<path class="st4" d="M-22560.3-18907.3c0.1-0.4,0.3-0.6,0.6-0.7c0.3-0.1,0.7-0.1,1.2-0.1c0.5,0,0.9,0,1.2,0.1
			c0.3,0.1,0.5,0.3,0.6,0.7l2.7,8.9c0,0.1,0,0.1-0.1,0.1h-1.8c-0.1,0-0.2,0-0.2-0.1l-0.7-2.4c0-0.1-0.1-0.1-0.2-0.1h-3.2
			c-0.1,0-0.2,0-0.2,0.2l-0.7,2.3c0,0.1-0.1,0.1-0.2,0.1h-1.8c-0.1,0-0.1,0-0.1-0.1L-22560.3-18907.3z M-22558.4-18906.1
			c0-0.1,0-0.2-0.1-0.2c0,0,0,0-0.1,0c0,0-0.1,0.1-0.2,0.2l-1,3.1c0,0,0,0,0,0c0,0,0,0,0,0c0,0.1,0,0.1,0.1,0.1h2
			c0.1,0,0.1,0,0.1-0.1c0,0,0,0,0,0c0,0,0,0,0,0L-22558.4-18906.1z"/>
		<path class="st4" d="M-22546.8-18900v1.5c0,0.1,0,0.1-0.1,0.1h-3.7c-0.1,0-0.1,0-0.2,0c-0.1,0-0.1,0-0.2,0
			c-0.8-0.1-1.3-0.3-1.6-0.7c-0.3-0.4-0.5-0.9-0.5-1.7v-7.2c0-0.1,0-0.1,0.1-0.1h1.7c0.1,0,0.1,0,0.1,0.1v7.4c0,0.3,0.2,0.4,0.5,0.4
			h3.7C-22546.8-18900.1-22546.8-18900.1-22546.8-18900z"/>
		<path class="st4" d="M-22543.7-18907.3c0.1-0.4,0.3-0.6,0.6-0.7c0.3-0.1,0.7-0.1,1.2-0.1c0.5,0,0.9,0,1.2,0.1
			c0.3,0.1,0.5,0.3,0.6,0.7l2.7,8.9c0,0.1,0,0.1-0.1,0.1h-1.8c-0.1,0-0.2,0-0.2-0.1l-0.7-2.4c0-0.1-0.1-0.1-0.2-0.1h-3.2
			c-0.1,0-0.2,0-0.2,0.2l-0.7,2.3c0,0.1-0.1,0.1-0.2,0.1h-1.8c-0.1,0-0.1,0-0.1-0.1L-22543.7-18907.3z M-22541.7-18906.1
			c0-0.1,0-0.2-0.1-0.2c0,0-0.1,0-0.1,0s-0.1,0.1-0.2,0.2l-1,3.1c0,0,0,0,0,0c0,0,0,0,0,0c0,0.1,0,0.1,0.1,0.1h2
			c0.1,0,0.1,0,0.1-0.1c0,0,0,0,0,0c0,0,0,0,0,0L-22541.7-18906.1z"/>
		<path class="st4" d="M-22536.5-18906.1c0-0.4,0-0.7,0.1-0.9c0.1-0.3,0.2-0.5,0.3-0.6c0.2-0.2,0.4-0.3,0.6-0.4
			c0.3-0.1,0.6-0.1,1-0.1c0.6,0,1,0.1,1.2,0.3c0.3,0.2,0.4,0.4,0.5,0.7l1.8,6.7c0,0.1,0.1,0.1,0.1,0.1c0.1,0,0.1,0,0.1-0.1v-7.6
			c0-0.1,0-0.1,0.1-0.1h1.7c0.1,0,0.1,0,0.1,0.1v8.1c0,0.2,0,0.4-0.1,0.5s-0.2,0.3-0.3,0.5c-0.1,0.2-0.3,0.3-0.4,0.4
			s-0.3,0.1-0.5,0.1h-1.3c-0.1,0-0.2,0-0.3-0.1c-0.1-0.1-0.2-0.1-0.3-0.2s-0.2-0.2-0.3-0.3c-0.1-0.1-0.1-0.2-0.2-0.4l-1.8-6.8
			c0-0.1-0.1-0.1-0.1-0.1c-0.1,0-0.1,0-0.1,0.1v7.6c0,0.1,0,0.1-0.1,0.1h-1.7c-0.1,0-0.1,0-0.1-0.1V-18906.1z"/>
		<path class="st4" d="M-22527.6-18905.1c0-0.4,0.1-0.8,0.2-1.1c0.1-0.2,0.1-0.4,0.2-0.5c0.1-0.1,0.2-0.3,0.3-0.4
			c0.3-0.3,0.6-0.6,1-0.8s0.8-0.3,1.3-0.3h3.6c0.1,0,0.1,0,0.1,0.1v1.5c0,0.1,0,0.1-0.1,0.1h-3.5c-0.4,0.1-0.6,0.3-0.8,0.6
			c-0.2,0.3-0.3,0.7-0.3,1.1v3.4c0,0.3,0.1,0.6,0.3,0.8s0.4,0.3,0.7,0.3h3.5c0.1,0,0.1,0,0.1,0.1v1.5c0,0.1,0,0.1-0.1,0.1h-3.5
			c-0.3,0-0.5,0-0.7-0.1c-0.2,0-0.4-0.1-0.5-0.2c-0.3-0.1-0.7-0.3-0.9-0.6s-0.5-0.6-0.7-1c0-0.1-0.1-0.2-0.1-0.4s-0.1-0.4-0.1-0.6
			V-18905.1z"/>
		<path class="st4" d="M-22519.9-18906c0-0.6,0.2-1.1,0.5-1.5c0.3-0.4,0.8-0.6,1.5-0.6h4.6c0.1,0,0.2,0,0.2,0.1v1.5
			c0,0.1,0,0.1-0.1,0.1h-4.5c-0.1,0-0.1,0-0.1,0.1v1.9c0,0.1,0,0.1,0.1,0.1h4.2c0.1,0,0.1,0,0.1,0.1v1.6c0,0.1,0,0.1-0.1,0.1h-4.2
			c-0.1,0-0.1,0-0.1,0.1v2c0,0.1,0,0.1,0.1,0.1h4.5c0.1,0,0.1,0,0.1,0.1v1.5c0,0.1,0,0.1-0.1,0.1h-5.3c-0.2,0-0.3,0-0.5-0.1
			c-0.2-0.1-0.3-0.2-0.4-0.3c-0.1-0.1-0.2-0.3-0.3-0.5c-0.1-0.2-0.1-0.3-0.1-0.5V-18906z"/>
		<path class="st4" d="M-22508.2-18906.1c0-0.4,0-0.7,0.1-0.9c0.1-0.3,0.2-0.5,0.3-0.6c0.2-0.2,0.4-0.3,0.6-0.4
			c0.3-0.1,0.6-0.1,1-0.1c0.6,0,1,0.1,1.2,0.3s0.4,0.4,0.5,0.7l1.8,6.7c0,0.1,0.1,0.1,0.1,0.1c0.1,0,0.1,0,0.1-0.1v-7.6
			c0-0.1,0-0.1,0.1-0.1h1.7c0.1,0,0.1,0,0.1,0.1v8.1c0,0.2,0,0.4-0.1,0.5s-0.2,0.3-0.3,0.5c-0.1,0.2-0.3,0.3-0.4,0.4
			c-0.2,0.1-0.3,0.1-0.5,0.1h-1.3c-0.1,0-0.2,0-0.3-0.1c-0.1-0.1-0.2-0.1-0.3-0.2c-0.1-0.1-0.2-0.2-0.3-0.3
			c-0.1-0.1-0.1-0.2-0.2-0.4l-1.8-6.8c0-0.1-0.1-0.1-0.1-0.1c-0.1,0-0.1,0-0.1,0.1v7.6c0,0.1,0,0.1-0.1,0.1h-1.7
			c-0.1,0-0.1,0-0.1-0.1V-18906.1z"/>
		<path class="st4" d="M-22496.9-18907.3c0.1-0.4,0.3-0.6,0.6-0.7c0.3-0.1,0.7-0.1,1.2-0.1c0.5,0,0.9,0,1.2,0.1
			c0.3,0.1,0.5,0.3,0.6,0.7l2.7,8.9c0,0.1,0,0.1-0.1,0.1h-1.8c-0.1,0-0.1,0-0.2-0.1l-0.7-2.4c0-0.1-0.1-0.1-0.2-0.1h-3.2
			c-0.1,0-0.2,0-0.2,0.2l-0.7,2.3c0,0.1-0.1,0.1-0.2,0.1h-1.8c-0.1,0-0.1,0-0.1-0.1L-22496.9-18907.3z M-22495-18906.1
			c0-0.1-0.1-0.2-0.1-0.2c0,0-0.1,0-0.1,0s-0.1,0.1-0.2,0.2l-1,3.1c0,0,0,0,0,0c0,0,0,0,0,0c0,0.1,0,0.1,0.1,0.1h2
			c0.1,0,0.1,0,0.1-0.1c0,0,0,0,0,0c0,0,0,0,0,0L-22495-18906.1z"/>
		<path class="st4" d="M-22490.3-18905.1c0-0.4,0.1-0.8,0.2-1.1c0.1-0.2,0.1-0.4,0.2-0.5c0.1-0.1,0.2-0.3,0.3-0.4
			c0.3-0.3,0.6-0.6,1-0.8c0.4-0.2,0.8-0.3,1.3-0.3h3.6c0.1,0,0.1,0,0.1,0.1v1.5c0,0.1,0,0.1-0.1,0.1h-3.5c-0.4,0.1-0.6,0.3-0.8,0.6
			c-0.2,0.3-0.3,0.7-0.3,1.1v3.4c0,0.3,0.1,0.6,0.3,0.8c0.2,0.2,0.4,0.3,0.7,0.3h3.5c0.1,0,0.1,0,0.1,0.1v1.5c0,0.1,0,0.1-0.1,0.1
			h-3.5c-0.3,0-0.5,0-0.7-0.1c-0.2,0-0.4-0.1-0.5-0.2c-0.3-0.1-0.7-0.3-0.9-0.6c-0.3-0.3-0.5-0.6-0.7-1c0-0.1-0.1-0.2-0.1-0.4
			c0-0.2-0.1-0.4-0.1-0.6V-18905.1z"/>
		<path class="st4" d="M-22482.4-18908.1h1.7c0.1,0,0.1,0,0.1,0.1v9.5c0,0.1,0,0.1-0.1,0.1h-1.7c-0.1,0-0.1,0-0.1-0.1v-9.5
			C-22482.5-18908.1-22482.5-18908.1-22482.4-18908.1z"/>
		<path class="st4" d="M-22479.5-18903.3c0-0.5,0-1,0-1.4c0-0.4,0-0.7,0.1-1c0.1-0.4,0.2-0.7,0.2-1s0.2-0.5,0.3-0.7
			c0.2-0.2,0.4-0.4,0.7-0.6c0.3-0.2,0.6-0.3,0.9-0.4c0.2,0,0.5-0.1,0.9-0.1c0.4,0,0.8,0,1.3,0s0.9,0,1.3,0c0.4,0,0.6,0,0.9,0.1
			c0.3,0.1,0.6,0.2,0.9,0.4c0.3,0.2,0.5,0.4,0.7,0.6c0.1,0.2,0.2,0.4,0.3,0.7s0.2,0.6,0.2,1c0,0.2,0.1,0.6,0.1,1c0,0.4,0,0.9,0,1.4
			v0.1c0,0.5,0,1,0,1.4s0,0.7-0.1,1c-0.1,0.4-0.1,0.7-0.2,1c-0.1,0.3-0.2,0.5-0.3,0.7c-0.2,0.2-0.4,0.4-0.7,0.6
			c-0.3,0.2-0.6,0.3-0.9,0.4c-0.2,0-0.5,0.1-0.9,0.1s-0.8,0-1.3,0s-0.9,0-1.3,0s-0.6,0-0.9-0.1c-0.3-0.1-0.6-0.2-0.9-0.4
			c-0.3-0.2-0.5-0.4-0.7-0.6c-0.1-0.2-0.2-0.4-0.3-0.7c-0.1-0.3-0.2-0.6-0.2-1c0-0.2-0.1-0.6-0.1-1
			C-22479.5-18902.2-22479.5-18902.6-22479.5-18903.3L-22479.5-18903.3z M-22475.9-18906.4c-0.3,0-0.5,0-0.7,0.1
			c-0.3,0.1-0.6,0.2-0.7,0.5c-0.1,0.2-0.2,0.6-0.2,1.1v3.1c0,0.5,0.1,0.8,0.2,1.1c0.1,0.2,0.4,0.4,0.7,0.5c0.2,0,0.4,0.1,0.7,0.1
			s0.5,0,0.8,0s0.5,0,0.8,0s0.5,0,0.7-0.1c0.3-0.1,0.6-0.2,0.7-0.5c0.1-0.2,0.2-0.6,0.2-1.1v-3.1c0-0.5-0.1-0.8-0.2-1.1
			c-0.1-0.2-0.4-0.4-0.7-0.5c-0.2,0-0.4-0.1-0.7-0.1s-0.5,0-0.8,0S-22475.7-18906.4-22475.9-18906.4z"/>
		<path class="st4" d="M-22469.8-18906.1c0-0.4,0-0.7,0.1-0.9c0.1-0.3,0.2-0.5,0.3-0.6c0.2-0.2,0.4-0.3,0.6-0.4
			c0.3-0.1,0.6-0.1,1-0.1c0.6,0,1,0.1,1.2,0.3c0.3,0.2,0.4,0.4,0.5,0.7l1.8,6.7c0,0.1,0.1,0.1,0.1,0.1c0.1,0,0.1,0,0.1-0.1v-7.6
			c0-0.1,0-0.1,0.1-0.1h1.7c0.1,0,0.1,0,0.1,0.1v8.1c0,0.2,0,0.4-0.1,0.5s-0.2,0.3-0.3,0.5c-0.1,0.2-0.3,0.3-0.4,0.4
			s-0.3,0.1-0.5,0.1h-1.3c-0.1,0-0.2,0-0.3-0.1c-0.1-0.1-0.2-0.1-0.3-0.2s-0.2-0.2-0.3-0.3c-0.1-0.1-0.1-0.2-0.2-0.4l-1.8-6.8
			c0-0.1-0.1-0.1-0.1-0.1c-0.1,0-0.1,0-0.1,0.1v7.6c0,0.1,0,0.1-0.1,0.1h-1.7c-0.1,0-0.1,0-0.1-0.1V-18906.1z"/>
		<path class="st4" d="M-22458.6-18907.3c0.1-0.4,0.3-0.6,0.6-0.7c0.3-0.1,0.7-0.1,1.2-0.1c0.5,0,0.9,0,1.2,0.1
			c0.3,0.1,0.5,0.3,0.6,0.7l2.7,8.9c0,0.1,0,0.1-0.1,0.1h-1.8c-0.1,0-0.2,0-0.2-0.1l-0.7-2.4c0-0.1-0.1-0.1-0.2-0.1h-3.2
			c-0.1,0-0.2,0-0.2,0.2l-0.7,2.3c0,0.1-0.1,0.1-0.2,0.1h-1.8c-0.1,0-0.1,0-0.1-0.1L-22458.6-18907.3z M-22456.6-18906.1
			c0-0.1,0-0.2-0.1-0.2c0,0-0.1,0-0.1,0s-0.1,0.1-0.2,0.2l-1,3.1c0,0,0,0,0,0c0,0,0,0,0,0c0,0.1,0,0.1,0.1,0.1h2
			c0.1,0,0.1,0,0.1-0.1c0,0,0,0,0,0c0,0,0,0,0,0L-22456.6-18906.1z"/>
		<path class="st4" d="M-22445.1-18900v1.5c0,0.1,0,0.1-0.1,0.1h-3.7c-0.1,0-0.1,0-0.2,0c-0.1,0-0.1,0-0.2,0
			c-0.8-0.1-1.3-0.3-1.6-0.7c-0.3-0.4-0.5-0.9-0.5-1.7v-7.2c0-0.1,0-0.1,0.1-0.1h1.7c0.1,0,0.1,0,0.1,0.1v7.4c0,0.3,0.2,0.4,0.5,0.4
			h3.7C-22445.1-18900.1-22445.1-18900.1-22445.1-18900z"/>
	</g>
	<g class="st3">
		<path class="st4" d="M-22571-18882v-9.5c0-0.1,0-0.1,0.1-0.1h4.6c0.5,0,1,0.1,1.3,0.3s0.7,0.5,0.9,0.8c0.2,0.3,0.4,0.7,0.5,1.1
			s0.2,0.8,0.2,1.2v3.3c0,0.4-0.1,0.7-0.2,1.1s-0.3,0.7-0.5,1c-0.2,0.3-0.6,0.5-0.9,0.7c-0.4,0.2-0.8,0.3-1.3,0.3h-4.7
			C-22570.9-18881.8-22571-18881.9-22571-18882z M-22569-18883.8c0,0.1,0,0.1,0.1,0.1h2.4c0.1,0,0.3,0,0.4-0.1
			c0.1-0.1,0.3-0.2,0.4-0.3c0.1-0.1,0.2-0.3,0.3-0.4c0.1-0.1,0.1-0.3,0.1-0.5v-3.6c0-0.2,0-0.3-0.1-0.5c-0.1-0.2-0.2-0.3-0.3-0.4
			c-0.1-0.1-0.3-0.2-0.4-0.3c-0.2-0.1-0.3-0.1-0.5-0.1h-2.3c-0.1,0-0.1,0-0.1,0.1V-18883.8z"/>
		<path class="st4" d="M-22562.2-18889.5c0-0.6,0.2-1.1,0.5-1.5c0.3-0.4,0.8-0.6,1.5-0.6h4.6c0.1,0,0.2,0,0.2,0.1v1.5
			c0,0.1,0,0.1-0.1,0.1h-4.5c-0.1,0-0.1,0.1-0.1,0.2v1.8c0,0.1,0,0.1,0.1,0.1h4.2c0.1,0,0.1,0,0.1,0.1v1.6c0,0.1,0,0.1-0.1,0.1h-4.2
			c-0.1,0-0.1,0-0.1,0.1v2c0,0.1,0,0.1,0.1,0.1h4.5c0.1,0,0.1,0,0.1,0.1v1.5c0,0.1,0,0.1-0.1,0.1h-5.3c-0.2,0-0.3,0-0.5-0.1
			c-0.2-0.1-0.3-0.2-0.4-0.3c-0.1-0.1-0.2-0.3-0.3-0.5c-0.1-0.2-0.1-0.3-0.1-0.5V-18889.5z"/>
		<path class="st4" d="M-22550.5-18889.5c0-0.6,0.2-1.1,0.5-1.5c0.3-0.4,0.8-0.6,1.5-0.6h4.6c0.1,0,0.2,0,0.2,0.1v1.5
			c0,0.1,0,0.1-0.1,0.1h-4.5c-0.1,0-0.1,0.1-0.1,0.2v1.8c0,0.1,0,0.1,0.1,0.1h4.2c0.1,0,0.1,0,0.1,0.1v1.6c0,0.1,0,0.1-0.1,0.1h-4.2
			c-0.1,0-0.1,0-0.1,0.1v2c0,0.1,0,0.1,0.1,0.1h4.5c0.1,0,0.1,0,0.1,0.1v1.5c0,0.1,0,0.1-0.1,0.1h-5.3c-0.2,0-0.3,0-0.5-0.1
			c-0.2-0.1-0.3-0.2-0.4-0.3c-0.1-0.1-0.2-0.3-0.3-0.5c-0.1-0.2-0.1-0.3-0.1-0.5V-18889.5z"/>
		<path class="st4" d="M-22542.7-18889.6c0-0.4,0-0.7,0.1-0.9c0.1-0.3,0.2-0.5,0.3-0.6s0.4-0.3,0.6-0.4c0.3-0.1,0.6-0.1,1-0.1
			c0.6,0,1,0.1,1.2,0.3s0.4,0.4,0.5,0.7l1.8,6.7c0,0.1,0.1,0.1,0.1,0.1c0.1,0,0.1,0,0.1-0.1v-7.6c0-0.1,0-0.1,0.1-0.1h1.7
			c0.1,0,0.1,0,0.1,0.1v8.1c0,0.2,0,0.4-0.1,0.5c-0.1,0.2-0.2,0.3-0.3,0.5c-0.1,0.2-0.3,0.3-0.4,0.4s-0.3,0.1-0.5,0.1h-1.3
			c-0.1,0-0.2,0-0.3-0.1s-0.2-0.1-0.3-0.2c-0.1-0.1-0.2-0.2-0.3-0.3s-0.1-0.2-0.2-0.4l-1.8-6.8c0-0.1-0.1-0.1-0.1-0.1
			c-0.1,0-0.1,0-0.1,0.1v7.6c0,0.1,0,0.1-0.1,0.1h-1.7c-0.1,0-0.1,0-0.1-0.1V-18889.6z"/>
		<path class="st4" d="M-22533.8-18889.5c0-0.6,0.2-1.1,0.5-1.5c0.3-0.4,0.8-0.6,1.5-0.6h4.6c0.1,0,0.2,0,0.2,0.1v1.5
			c0,0.1,0,0.1-0.1,0.1h-4.5c-0.1,0-0.1,0.1-0.1,0.2v1.8c0,0.1,0,0.1,0.1,0.1h4.2c0.1,0,0.1,0,0.1,0.1v1.6c0,0.1,0,0.1-0.1,0.1h-4.2
			c-0.1,0-0.1,0-0.1,0.1v2c0,0.1,0,0.1,0.1,0.1h4.5c0.1,0,0.1,0,0.1,0.1v1.5c0,0.1,0,0.1-0.1,0.1h-5.3c-0.2,0-0.3,0-0.5-0.1
			c-0.2-0.1-0.3-0.2-0.4-0.3c-0.1-0.1-0.2-0.3-0.3-0.5c-0.1-0.2-0.1-0.3-0.1-0.5V-18889.5z"/>
		<path class="st4" d="M-22525.8-18891.6h5.1c0.3,0,0.5,0,0.7,0.1c0.2,0.1,0.5,0.3,0.7,0.5c0.4,0.4,0.6,1.1,0.7,1.9v0.3
			c0,0.8-0.1,1.4-0.3,1.7c-0.1,0.2-0.3,0.3-0.4,0.5c-0.1,0.2-0.3,0.3-0.6,0.4c0,0,0,0,0,0c0,0,0,0,0,0.1c0,0,0,0,0,0.1
			c0.2,0.3,0.4,0.5,0.4,0.7s0.2,0.4,0.2,0.6l0.7,2.3c0,0.1,0.1,0.1,0.1,0.2c0.1,0.1,0.1,0.1,0.1,0.1c0,0,0,0.1-0.1,0.1h-1.9
			c-0.1,0-0.1,0-0.2-0.1c-0.1-0.1-0.1-0.2-0.1-0.2l-0.8-2.4c-0.1-0.5-0.4-0.8-0.8-0.8h-1.7c-0.1,0-0.1,0-0.1,0.1v3.3
			c0,0.1,0,0.1-0.1,0.1h-1.7c-0.1,0-0.1,0-0.1-0.1v-9.5C-22525.9-18891.6-22525.8-18891.6-22525.8-18891.6z M-22523.8-18889.8
			c-0.1,0-0.1,0-0.1,0.1v2.2c0,0.1,0,0.1,0.1,0.1h2.5c0.1,0,0.3-0.1,0.4-0.2c0.1-0.1,0.2-0.3,0.3-0.5c0.1-0.2,0.1-0.4,0.1-0.7
			c0-0.1,0-0.2,0-0.3s0-0.2-0.1-0.3c-0.1-0.3-0.3-0.5-0.5-0.5H-22523.8z"/>
		<path class="st4" d="M-22510.2-18891.6c0.1,0,0.1,0,0.1,0.1v1.5c0,0.1,0,0.1-0.1,0.1h-4.2c-0.1,0-0.2,0-0.3,0.1
			c-0.1,0.1-0.2,0.2-0.3,0.3s-0.2,0.2-0.2,0.3c-0.1,0.1-0.1,0.2-0.1,0.3v3.6c0,0.5,0.1,0.9,0.3,1.2s0.5,0.5,0.9,0.5h1.7
			c0.2,0,0.3,0,0.5-0.1c0.1-0.1,0.2-0.1,0.3-0.2c0.1-0.1,0.1-0.2,0.2-0.3c0-0.1,0.1-0.2,0.1-0.3v-1.3c0-0.1,0-0.1-0.1-0.1h-2.2
			c-0.1,0-0.1,0-0.1-0.1v-1.5c0-0.1,0-0.1,0.1-0.1h4.2c0.1,0,0.1,0,0.1,0.1v3.1c0,0.2,0,0.5-0.1,0.8c-0.1,0.3-0.3,0.6-0.5,0.9
			c-0.2,0.3-0.5,0.5-0.9,0.7c-0.4,0.2-0.8,0.3-1.3,0.3h-2.4c-0.4,0-0.8-0.1-1.2-0.3s-0.6-0.5-0.8-0.8c-0.2-0.3-0.4-0.6-0.5-1
			c-0.1-0.4-0.2-0.7-0.2-1.1v-3.9c0-0.3,0.1-0.6,0.2-0.9s0.3-0.6,0.5-0.9c0.2-0.3,0.5-0.5,0.8-0.7c0.3-0.2,0.6-0.3,1-0.3h2.8
			H-22510.2z"/>
		<path class="st4" d="M-22508.6-18892.9c0.3-0.2,0.6-0.4,1-0.6c0.3-0.2,0.7-0.4,1-0.5s0.6-0.2,0.8-0.2c0.2,0,0.4,0.1,0.5,0.2
			c0.1,0.1,0.2,0.2,0.2,0.4c0,0.2,0,0.4-0.1,0.5c-0.1,0.2-0.3,0.3-0.5,0.4c-0.3,0.1-0.6,0.3-1.1,0.4s-1.2,0.2-2,0.3c0,0-0.1,0-0.2,0
			c-0.1,0-0.2,0-0.2,0c-0.1,0-0.1,0-0.1-0.1c0,0,0,0,0-0.1s0.1-0.1,0.1-0.1C-22509.2-18892.4-22508.9-18892.6-22508.6-18892.9z
			 M-22508.3-18891.6h1.7c0.1,0,0.1,0,0.1,0.1v9.5c0,0.1,0,0.1-0.1,0.1h-1.7c-0.1,0-0.1,0-0.1-0.1v-9.5
			C-22508.4-18891.6-22508.3-18891.6-22508.3-18891.6z"/>
		<path class="st4" d="M-22502.6-18890.8c0.1-0.4,0.3-0.6,0.6-0.7c0.3-0.1,0.7-0.1,1.2-0.1c0.5,0,0.9,0,1.2,0.1
			c0.3,0.1,0.5,0.3,0.6,0.7l2.7,8.9c0,0.1,0,0.1-0.1,0.1h-1.8c-0.1,0-0.2,0-0.2-0.1l-0.7-2.4c0-0.1-0.1-0.1-0.2-0.1h-3.2
			c-0.1,0-0.2,0-0.2,0.1l-0.7,2.3c0,0.1-0.1,0.1-0.2,0.1h-1.8c-0.1,0-0.1,0-0.1-0.1L-22502.6-18890.8z M-22500.6-18889.6
			c0-0.1,0-0.2-0.1-0.2c0,0-0.1,0-0.1,0s-0.1,0.1-0.2,0.2l-1,3.1c0,0,0,0,0,0s0,0,0,0c0,0.1,0,0.1,0.1,0.1h2c0.1,0,0.1,0,0.1-0.1
			c0,0,0,0,0,0c0,0,0,0,0,0L-22500.6-18889.6z"/>
		<path class="st4" d="M-22486-18891.6h1.7c0.1,0,0.1,0,0.1,0.1v6.5c0,0.3,0,0.6-0.1,0.9c0,0.2-0.1,0.4-0.2,0.6
			c-0.1,0.1-0.1,0.3-0.2,0.5s-0.2,0.3-0.3,0.4c-0.1,0.1-0.3,0.3-0.5,0.3c-0.2,0.1-0.4,0.2-0.5,0.2c-0.2,0.1-0.3,0.1-0.5,0.1
			s-0.4,0.1-0.7,0.1h-1.6c-0.3,0-0.6,0-0.8-0.1c-0.3-0.1-0.5-0.2-0.7-0.3c-0.2-0.1-0.4-0.2-0.5-0.4c-0.2-0.2-0.3-0.3-0.4-0.5
			c-0.1-0.2-0.2-0.4-0.3-0.6c-0.1-0.2-0.1-0.5-0.1-0.7v-7c0-0.1,0-0.1,0.1-0.1h1.7c0.1,0,0.1,0,0.1,0.1v6.6c0,0.1,0,0.2,0.1,0.4
			s0.1,0.3,0.2,0.4s0.2,0.2,0.3,0.3s0.3,0.1,0.4,0.1h1.4c0.2,0,0.3,0,0.4-0.1s0.2-0.2,0.3-0.3c0.1-0.1,0.2-0.3,0.2-0.4
			c0-0.1,0.1-0.3,0.1-0.4v-6.6C-22486.2-18891.6-22486.1-18891.6-22486-18891.6z M-22489.1-18892.8c0.3-0.2,0.6-0.4,1-0.6
			c0.3-0.2,0.7-0.4,1-0.5c0.3-0.1,0.6-0.2,0.8-0.2c0.2,0,0.4,0.1,0.5,0.2c0.1,0.1,0.2,0.3,0.2,0.4c0,0.2,0,0.4-0.1,0.5
			c-0.1,0.2-0.3,0.3-0.5,0.4s-0.6,0.3-1.1,0.4s-1.2,0.2-2,0.3c0,0-0.1,0-0.2,0s-0.2,0-0.2,0c-0.1,0-0.1,0-0.1-0.1c0,0,0,0,0-0.1
			s0.1-0.1,0.1-0.1C-22489.6-18892.4-22489.4-18892.6-22489.1-18892.8z"/>
		<path class="st4" d="M-22478.7-18882c0,0.1,0,0.1-0.1,0.1h-1.7c-0.1,0-0.1,0-0.1-0.1v-7.7c0-0.1,0-0.1-0.1-0.1h-2.2
			c-0.1,0-0.1,0-0.1-0.1v-1.5c0-0.1,0-0.1,0.1-0.1h6.7c0.1,0,0.1,0,0.1,0.1v1.5c0,0.1,0,0.1-0.1,0.1h-2.2c-0.1,0-0.1,0-0.1,0.1
			V-18882z"/>
		<path class="st4" d="M-22475.2-18891.6h1.7c0.1,0,0.1,0,0.1,0.1v9.5c0,0.1,0,0.1-0.1,0.1h-1.7c-0.1,0-0.1,0-0.1-0.1v-9.5
			C-22475.4-18891.6-22475.3-18891.6-22475.2-18891.6z"/>
		<path class="st4" d="M-22465.9-18883.5v1.5c0,0.1,0,0.1-0.1,0.1h-3.7c-0.1,0-0.1,0-0.2,0c-0.1,0-0.1,0-0.2,0
			c-0.8-0.1-1.3-0.3-1.6-0.7c-0.3-0.4-0.5-0.9-0.5-1.7v-7.2c0-0.1,0-0.1,0.1-0.1h1.7c0.1,0,0.1,0,0.1,0.1v7.4c0,0.3,0.2,0.4,0.5,0.4
			h3.7C-22466-18883.6-22465.9-18883.6-22465.9-18883.5z"/>
	</g>
</g>
</svg>
