<svg data-name="Grupo 2023" xmlns="http://www.w3.org/2000/svg" width="33.23" height="33.23"><defs><linearGradient id="a" x1=".5" y1=".927" x2=".5" y2="-.073" gradientUnits="objectBoundingBox"><stop offset="0" stop-color="#78cd51"/><stop offset="1" stop-color="#a0fc84"/></linearGradient></defs><circle data-name="Elipse 506" cx="16.616" cy="16.616" r="16.616" fill="url(#a)"/><g data-name="Grupo 2022"><path data-name="WA Logo" d="M8.023 21.537a10.541 10.541 0 119.134 5.278 10.537 10.537 0 01-5.046-1.278l-5.588 1.464zm4.671 2.277a8.745 8.745 0 004.455 1.223 8.759 8.759 0 10-7.422-4.1l.208.331L9.05 24.5l3.316-.869zm6.183-2.631a15.136 15.136 0 01-1.5-.555 11.738 11.738 0 01-4.5-3.976 5.12 5.12 0 01-1.081-2.715 2.952 2.952 0 01.927-2.2.967.967 0 01.7-.329c.175 0 .351 0 .5.009h.059c.154 0 .345 0 .533.451.219.527.746 1.823.812 1.955a.485.485 0 01.022.461 1.8 1.8 0 01-.263.439c-.132.154-.277.343-.4.461s-.269.274-.115.537a7.933 7.933 0 001.472 1.825 7.184 7.184 0 002.118 1.307c.263.132.417.11.57-.066s.658-.769.834-1.032.351-.22.592-.132 1.536.725 1.8.857.439.2.5.307a2.2 2.2 0 01-.154 1.252 2.713 2.713 0 01-1.778 1.252 4.324 4.324 0 01-.639.05 3.346 3.346 0 01-1.014-.154z" fill="#fff"/></g></svg>