<svg version="1.1" id="Capa_1" xmlns="http://www.w3.org/2000/svg" x="0" y="0" viewBox="0 0 161 32.1" xml:space="preserve"><style>.st3{enable-background:new}.st4{fill:#37992f}</style><g id="Grupo_2148" transform="translate(22601.979 18911)"><g id="Grupo_1463" transform="translate(-22601.979 -18911)"><g id="Grupo_1462"><path id="Trazado_3158" d="M14.2 31.2l-1.8-.3c-4.9-1.1-8.8-5-9.8-10-.4-2.1-.3-4.3.1-6.4.8-3.7 2.6-7.1 5.2-9.9C9.4 2.9 11.1 1.4 13 .1l.2-.1c.1 3.3 1.9 5.6 4.1 7.7.6-1 .9-2.2.9-3.4h.1c3.2 2 5.7 4.9 7.3 8.2 1.8 3.5 2 7.6.4 11.3-1.5 3.7-4.8 6.4-8.7 7.1-.5.1-1.1.2-1.6.2l-1.5.1zm.5-21.3l-2.1 1.8c-1.8 1.6-3.2 3.5-4.3 5.6-.8 1.6-1.1 3.3-.9 5.1.7 4 4.5 6.7 8.5 6 2.3-.4 4.2-1.8 5.3-3.8 1.1-2.1 1.1-4.6.1-6.8-1.4-3.2-3.9-5.7-6.6-7.9z" fill="#bce0fd"/><path id="Trazado_3159" d="M14.7 12.2c.6.6 1.2 1.1 1.8 1.7 1.4 1.4 2.6 3.1 3.3 4.9.7 1.6.6 3.4-.2 5-.1.3-.3.5-.5.8 0-.4 0-.7-.1-1-.2-1-.6-2-1.2-2.8-.9-1.2-1.9-2.3-3.1-3.2-.5.5-1.1 1-1.6 1.5-.9.8-1.6 1.8-2.1 2.9-.4.8-.6 1.6-.6 2.5-.1-.1-.1-.2-.2-.2-1-1.5-1.3-3.4-.6-5.2.5-1.5 1.3-2.9 2.3-4.1.8-.9 1.7-1.8 2.6-2.7 0 0 .1 0 .2-.1z" fill="#0b489d"/><path id="Trazado_3160" d="M14.7 20c1.2 1 2.1 2.3 2.5 3.7.3 1.4-.6 2.7-2 3-.6.1-1.3 0-1.9-.4-.9-.6-1.3-1.6-1.1-2.6.2-1 .7-2 1.5-2.7.3-.3.6-.7 1-1z" fill="#4daf4a"/></g></g><g class="st3"><path class="st4" d="M-22571-18908c0-.1 0-.1.1-.1h4.9c.3 0 .6.1.9.2.3.1.5.3.7.5.2.2.4.5.5.7.1.3.2.6.2 1 0 .5 0 .9-.1 1.2-.1.3-.2.5-.3.7-.1.2-.2.3-.3.3l-.1.1s.1.1.2.3.3.3.5.5c.1.1.1.2.2.3 0 .1.1.2.1.3 0 .1.1.2.1.3v.3c0 .4 0 .8-.1 1.2s-.2.7-.4 1c-.2.3-.5.5-.8.7-.3.2-.8.2-1.3.2h-4.8c-.1 0-.1 0-.1-.1v-9.6zm2 3.6c0 .1 0 .1.1.1h2.4c.4 0 .6-.1.8-.2s.2-.4.2-.9c0-.4-.1-.7-.3-.8-.2-.1-.4-.2-.7-.2h-2.4c-.1 0-.1 0-.1.1v1.9zm0 4.1c0 .1 0 .1.1.1h2.9c.2 0 .3 0 .4-.1s.2-.2.2-.3c.1-.1.1-.3.1-.4v-.4c0-.2 0-.4-.1-.5-.1-.1-.1-.3-.2-.3-.1-.1-.2-.1-.3-.2s-.2 0-.3 0h-2.9c-.1 0-.1 0-.1.1v2zm8.7-7c.1-.4.3-.6.6-.7.3-.1.7-.1 1.2-.1s.9 0 1.2.1c.3.1.5.3.6.7l2.7 8.9c0 .1 0 .1-.1.1h-1.8c-.1 0-.2 0-.2-.1l-.7-2.4c0-.1-.1-.1-.2-.1h-3.2c-.1 0-.2 0-.2.2l-.7 2.3c0 .1-.1.1-.2.1h-1.8c-.1 0-.1 0-.1-.1l2.9-8.9zm1.9 1.2c0-.1 0-.2-.1-.2h-.1l-.2.2-1 3.1c0 .1 0 .1.1.1h2c.1 0 .1 0 .1-.1l-.8-3.1zm11.6 6.1v1.5c0 .1 0 .1-.1.1h-4.1c-.8-.1-1.3-.3-1.6-.7-.3-.4-.5-.9-.5-1.7v-7.2c0-.1 0-.1.1-.1h1.7c.1 0 .1 0 .1.1v7.4c0 .3.2.4.5.4h3.7c.2.1.2.1.2.2zm3.1-7.3c.1-.4.3-.6.6-.7.3-.1.7-.1 1.2-.1s.9 0 1.2.1c.3.1.5.3.6.7l2.7 8.9c0 .1 0 .1-.1.1h-1.8c-.1 0-.2 0-.2-.1l-.7-2.4c0-.1-.1-.1-.2-.1h-3.2c-.1 0-.2 0-.2.2l-.7 2.3c0 .1-.1.1-.2.1h-1.8c-.1 0-.1 0-.1-.1l2.9-8.9zm2 1.2c0-.1 0-.2-.1-.2h-.1l-.2.2-1 3.1c0 .1 0 .1.1.1h2c.1 0 .1 0 .1-.1l-.8-3.1zm5.2 0c0-.4 0-.7.1-.9.1-.3.2-.5.3-.6.2-.2.4-.3.6-.4.3-.1.6-.1 1-.1.6 0 1 .1 1.2.3.3.2.4.4.5.7l1.8 6.7c0 .1.1.1.1.1.1 0 .1 0 .1-.1v-7.6c0-.1 0-.1.1-.1h1.7c.1 0 .1 0 .1.1v8.1c0 .2 0 .4-.1.5s-.2.3-.3.5c-.1.2-.3.3-.4.4s-.3.1-.5.1h-1.3c-.1 0-.2 0-.3-.1-.1-.1-.2-.1-.3-.2l-.3-.3c-.1-.1-.1-.2-.2-.4l-1.8-6.8c0-.1-.1-.1-.1-.1-.1 0-.1 0-.1.1v7.6c0 .1 0 .1-.1.1h-1.7c-.1 0-.1 0-.1-.1v-7.5zm8.9 1c0-.4.1-.8.2-1.1.1-.2.1-.4.2-.5.1-.1.2-.3.3-.4.3-.3.6-.6 1-.8s.8-.3 1.3-.3h3.6c.1 0 .1 0 .1.1v1.5c0 .1 0 .1-.1.1h-3.5c-.4.1-.6.3-.8.6-.2.3-.3.7-.3 1.1v3.4c0 .3.1.6.3.8s.4.3.7.3h3.5c.1 0 .1 0 .1.1v1.5c0 .1 0 .1-.1.1h-3.5c-.3 0-.5 0-.7-.1-.2 0-.4-.1-.5-.2-.3-.1-.7-.3-.9-.6s-.5-.6-.7-1c0-.1-.1-.2-.1-.4s-.1-.4-.1-.6v-3.6zm7.7-.9c0-.6.2-1.1.5-1.5.3-.4.8-.6 1.5-.6h4.6c.1 0 .2 0 .2.1v1.5c0 .1 0 .1-.1.1h-4.5c-.1 0-.1 0-.1.1v1.9c0 .1 0 .1.1.1h4.2c.1 0 .1 0 .1.1v1.6c0 .1 0 .1-.1.1h-4.2c-.1 0-.1 0-.1.1v2c0 .1 0 .1.1.1h4.5c.1 0 .1 0 .1.1v1.5c0 .1 0 .1-.1.1h-5.3c-.2 0-.3 0-.5-.1s-.3-.2-.4-.3c-.1-.1-.2-.3-.3-.5-.1-.2-.1-.3-.1-.5v-6zm11.7-.1c0-.4 0-.7.1-.9.1-.3.2-.5.3-.6.2-.2.4-.3.6-.4.3-.1.6-.1 1-.1.6 0 1 .1 1.2.3s.4.4.5.7l1.8 6.7c0 .1.1.1.1.1.1 0 .1 0 .1-.1v-7.6c0-.1 0-.1.1-.1h1.7c.1 0 .1 0 .1.1v8.1c0 .2 0 .4-.1.5s-.2.3-.3.5c-.1.2-.3.3-.4.4-.2.1-.3.1-.5.1h-1.3c-.1 0-.2 0-.3-.1-.1-.1-.2-.1-.3-.2l-.3-.3c-.1-.1-.1-.2-.2-.4l-1.8-6.8c0-.1-.1-.1-.1-.1-.1 0-.1 0-.1.1v7.6c0 .1 0 .1-.1.1h-1.7c-.1 0-.1 0-.1-.1v-7.5zm11.3-1.2c.1-.4.3-.6.6-.7.3-.1.7-.1 1.2-.1s.9 0 1.2.1c.3.1.5.3.6.7l2.7 8.9c0 .1 0 .1-.1.1h-1.8c-.1 0-.1 0-.2-.1l-.7-2.4c0-.1-.1-.1-.2-.1h-3.2c-.1 0-.2 0-.2.2l-.7 2.3c0 .1-.1.1-.2.1h-1.8c-.1 0-.1 0-.1-.1l2.9-8.9zm1.9 1.2c0-.1-.1-.2-.1-.2h-.1l-.2.2-1 3.1c0 .1 0 .1.1.1h2c.1 0 .1 0 .1-.1l-.8-3.1zm4.7 1c0-.4.1-.8.2-1.1.1-.2.1-.4.2-.5.1-.1.2-.3.3-.4.3-.3.6-.6 1-.8.4-.2.8-.3 1.3-.3h3.6c.1 0 .1 0 .1.1v1.5c0 .1 0 .1-.1.1h-3.5c-.4.1-.6.3-.8.6-.2.3-.3.7-.3 1.1v3.4c0 .3.1.6.3.8.2.2.4.3.7.3h3.5c.1 0 .1 0 .1.1v1.5c0 .1 0 .1-.1.1h-3.5c-.3 0-.5 0-.7-.1-.2 0-.4-.1-.5-.2-.3-.1-.7-.3-.9-.6-.3-.3-.5-.6-.7-1 0-.1-.1-.2-.1-.4s-.1-.4-.1-.6v-3.6zm7.9-3h1.7c.1 0 .1 0 .1.1v9.5c0 .1 0 .1-.1.1h-1.7c-.1 0-.1 0-.1-.1v-9.5c0-.1 0-.1.1-.1zm2.9 4.8v-1.4c0-.4 0-.7.1-1 .1-.4.2-.7.2-1s.2-.5.3-.7c.2-.2.4-.4.7-.6.3-.2.6-.3.9-.4.2 0 .5-.1.9-.1h2.6c.4 0 .6 0 .9.1.3.1.6.2.9.4.3.2.5.4.7.6.1.2.2.4.3.7s.2.6.2 1c0 .2.1.6.1 1v2.9c0 .4 0 .7-.1 1-.1.4-.1.7-.2 1-.1.3-.2.5-.3.7-.2.2-.4.4-.7.6-.3.2-.6.3-.9.4-.2 0-.5.1-.9.1h-2.6c-.4 0-.6 0-.9-.1-.3-.1-.6-.2-.9-.4-.3-.2-.5-.4-.7-.6-.1-.2-.2-.4-.3-.7-.1-.3-.2-.6-.2-1 0-.2-.1-.6-.1-1v-1.5zm3.6-3.1c-.3 0-.5 0-.7.1-.3.1-.6.2-.7.5-.1.2-.2.6-.2 1.1v3.1c0 .5.1.8.2 1.1.1.2.4.4.7.5.2 0 .4.1.7.1h1.6c.3 0 .5 0 .7-.1.3-.1.6-.2.7-.5.1-.2.2-.6.2-1.1v-3.1c0-.5-.1-.8-.2-1.1-.1-.2-.4-.4-.7-.5-.2 0-.4-.1-.7-.1h-1.6zm6.1.3c0-.4 0-.7.1-.9.1-.3.2-.5.3-.6.2-.2.4-.3.6-.4.3-.1.6-.1 1-.1.6 0 1 .1 1.2.3.3.2.4.4.5.7l1.8 6.7c0 .1.1.1.1.1.1 0 .1 0 .1-.1v-7.6c0-.1 0-.1.1-.1h1.7c.1 0 .1 0 .1.1v8.1c0 .2 0 .4-.1.5s-.2.3-.3.5c-.1.2-.3.3-.4.4s-.3.1-.5.1h-1.3c-.1 0-.2 0-.3-.1-.1-.1-.2-.1-.3-.2l-.3-.3c-.1-.1-.1-.2-.2-.4l-1.8-6.8c0-.1-.1-.1-.1-.1-.1 0-.1 0-.1.1v7.6c0 .1 0 .1-.1.1h-1.7c-.1 0-.1 0-.1-.1v-7.5zm11.2-1.2c.1-.4.3-.6.6-.7.3-.1.7-.1 1.2-.1s.9 0 1.2.1c.3.1.5.3.6.7l2.7 8.9c0 .1 0 .1-.1.1h-1.8c-.1 0-.2 0-.2-.1l-.7-2.4c0-.1-.1-.1-.2-.1h-3.2c-.1 0-.2 0-.2.2l-.7 2.3c0 .1-.1.1-.2.1h-1.8c-.1 0-.1 0-.1-.1l2.9-8.9zm2 1.2c0-.1 0-.2-.1-.2h-.1l-.2.2-1 3.1c0 .1 0 .1.1.1h2c.1 0 .1 0 .1-.1l-.8-3.1zm11.5 6.1v1.5c0 .1 0 .1-.1.1h-4.1c-.8-.1-1.3-.3-1.6-.7-.3-.4-.5-.9-.5-1.7v-7.2c0-.1 0-.1.1-.1h1.7c.1 0 .1 0 .1.1v7.4c0 .3.2.4.5.4h3.7c.2.1.2.1.2.2z"/></g><g class="st3"><path class="st4" d="M-22571-18882v-9.5c0-.1 0-.1.1-.1h4.6c.5 0 1 .1 1.3.3s.7.5.9.8c.2.3.4.7.5 1.1s.2.8.2 1.2v3.3c0 .4-.1.7-.2 1.1s-.3.7-.5 1c-.2.3-.6.5-.9.7-.4.2-.8.3-1.3.3h-4.7c.1 0 0-.1 0-.2zm2-1.8c0 .1 0 .1.1.1h2.4c.1 0 .3 0 .4-.1.1-.1.3-.2.4-.3.1-.1.2-.3.3-.4.1-.1.1-.3.1-.5v-3.6c0-.2 0-.3-.1-.5s-.2-.3-.3-.4c-.1-.1-.3-.2-.4-.3-.2-.1-.3-.1-.5-.1h-2.3c-.1 0-.1 0-.1.1v6zm6.8-5.7c0-.6.2-1.1.5-1.5.3-.4.8-.6 1.5-.6h4.6c.1 0 .2 0 .2.1v1.5c0 .1 0 .1-.1.1h-4.5c-.1 0-.1.1-.1.2v1.8c0 .1 0 .1.1.1h4.2c.1 0 .1 0 .1.1v1.6c0 .1 0 .1-.1.1h-4.2c-.1 0-.1 0-.1.1v2c0 .1 0 .1.1.1h4.5c.1 0 .1 0 .1.1v1.5c0 .1 0 .1-.1.1h-5.3c-.2 0-.3 0-.5-.1s-.3-.2-.4-.3c-.1-.1-.2-.3-.3-.5-.1-.2-.1-.3-.1-.5v-6zm11.7 0c0-.6.2-1.1.5-1.5.3-.4.8-.6 1.5-.6h4.6c.1 0 .2 0 .2.1v1.5c0 .1 0 .1-.1.1h-4.5c-.1 0-.1.1-.1.2v1.8c0 .1 0 .1.1.1h4.2c.1 0 .1 0 .1.1v1.6c0 .1 0 .1-.1.1h-4.2c-.1 0-.1 0-.1.1v2c0 .1 0 .1.1.1h4.5c.1 0 .1 0 .1.1v1.5c0 .1 0 .1-.1.1h-5.3c-.2 0-.3 0-.5-.1s-.3-.2-.4-.3c-.1-.1-.2-.3-.3-.5-.1-.2-.1-.3-.1-.5v-6zm7.8-.1c0-.4 0-.7.1-.9.1-.3.2-.5.3-.6s.4-.3.6-.4c.3-.1.6-.1 1-.1.6 0 1 .1 1.2.3s.4.4.5.7l1.8 6.7c0 .1.1.1.1.1.1 0 .1 0 .1-.1v-7.6c0-.1 0-.1.1-.1h1.7c.1 0 .1 0 .1.1v8.1c0 .2 0 .4-.1.5-.1.2-.2.3-.3.5-.1.2-.3.3-.4.4s-.3.1-.5.1h-1.3c-.1 0-.2 0-.3-.1s-.2-.1-.3-.2l-.3-.3c-.1-.1-.1-.2-.2-.4l-1.8-6.8c0-.1-.1-.1-.1-.1-.1 0-.1 0-.1.1v7.6c0 .1 0 .1-.1.1h-1.7c-.1 0-.1 0-.1-.1v-7.5zm8.9.1c0-.6.2-1.1.5-1.5.3-.4.8-.6 1.5-.6h4.6c.1 0 .2 0 .2.1v1.5c0 .1 0 .1-.1.1h-4.5c-.1 0-.1.1-.1.2v1.8c0 .1 0 .1.1.1h4.2c.1 0 .1 0 .1.1v1.6c0 .1 0 .1-.1.1h-4.2c-.1 0-.1 0-.1.1v2c0 .1 0 .1.1.1h4.5c.1 0 .1 0 .1.1v1.5c0 .1 0 .1-.1.1h-5.3c-.2 0-.3 0-.5-.1s-.3-.2-.4-.3c-.1-.1-.2-.3-.3-.5-.1-.2-.1-.3-.1-.5v-6zm8-2.1h5.1c.3 0 .5 0 .7.1.2.1.5.3.7.5.4.4.6 1.1.7 1.9v.3c0 .8-.1 1.4-.3 1.7-.1.2-.3.3-.4.5-.1.2-.3.3-.6.4v.2c.2.3.4.5.4.7s.2.4.2.6l.7 2.3c0 .1.1.1.1.2l.1.1s0 .1-.1.1h-1.9c-.1 0-.1 0-.2-.1s-.1-.2-.1-.2l-.8-2.4c-.1-.5-.4-.8-.8-.8h-1.7c-.1 0-.1 0-.1.1v3.3c0 .1 0 .1-.1.1h-1.7c-.1 0-.1 0-.1-.1v-9.5h.2zm2 1.8c-.1 0-.1 0-.1.1v2.2c0 .1 0 .1.1.1h2.5c.1 0 .3-.1.4-.2.1-.1.2-.3.3-.5.1-.2.1-.4.1-.7v-.3c0-.1 0-.2-.1-.3-.1-.3-.3-.5-.5-.5h-2.7zm13.6-1.8c.1 0 .1 0 .1.1v1.5c0 .1 0 .1-.1.1h-4.2c-.1 0-.2 0-.3.1l-.3.3c-.1.1-.2.2-.2.3-.1.1-.1.2-.1.3v3.6c0 .5.1.9.3 1.2s.5.5.9.5h1.7c.2 0 .3 0 .5-.1.1-.1.2-.1.3-.2.1-.1.1-.2.2-.3 0-.1.1-.2.1-.3v-1.3c0-.1 0-.1-.1-.1h-2.2c-.1 0-.1 0-.1-.1v-1.5c0-.1 0-.1.1-.1h4.2c.1 0 .1 0 .1.1v3.1c0 .2 0 .5-.1.8-.1.3-.3.6-.5.9-.2.3-.5.5-.9.7-.4.2-.8.3-1.3.3h-2.4c-.4 0-.8-.1-1.2-.3s-.6-.5-.8-.8c-.2-.3-.4-.6-.5-1-.1-.4-.2-.7-.2-1.1v-3.9c0-.3.1-.6.2-.9s.3-.6.5-.9c.2-.3.5-.5.8-.7.3-.2.6-.3 1-.3h4.5zm1.6-1.3c.3-.2.6-.4 1-.6.3-.2.7-.4 1-.5s.6-.2.8-.2c.2 0 .4.1.5.2.1.1.2.2.2.4s0 .4-.1.5c-.1.2-.3.3-.5.4-.3.1-.6.3-1.1.4s-1.2.2-2 .3h-.4c-.1 0-.1 0-.1-.1v-.1c0-.1.1-.1.1-.1 0-.1.3-.3.6-.6zm.3 1.3h1.7c.1 0 .1 0 .1.1v9.5c0 .1 0 .1-.1.1h-1.7c-.1 0-.1 0-.1-.1v-9.5c0-.1.1-.1.1-.1zm5.7.8c.1-.4.3-.6.6-.7.3-.1.7-.1 1.2-.1s.9 0 1.2.1c.3.1.5.3.6.7l2.7 8.9c0 .1 0 .1-.1.1h-1.8c-.1 0-.2 0-.2-.1l-.7-2.4c0-.1-.1-.1-.2-.1h-3.2c-.1 0-.2 0-.2.1l-.7 2.3c0 .1-.1.1-.2.1h-1.8c-.1 0-.1 0-.1-.1l2.9-8.8zm2 1.2c0-.1 0-.2-.1-.2h-.1l-.2.2-1 3.1c0 .1 0 .1.1.1h2c.1 0 .1 0 .1-.1l-.8-3.1zm14.6-2h1.7c.1 0 .1 0 .1.1v6.5c0 .3 0 .6-.1.9 0 .2-.1.4-.2.6-.1.1-.1.3-.2.5s-.2.3-.3.4c-.1.1-.3.3-.5.3-.2.1-.4.2-.5.2-.2.1-.3.1-.5.1s-.4.1-.7.1h-1.6c-.3 0-.6 0-.8-.1-.3-.1-.5-.2-.7-.3-.2-.1-.4-.2-.5-.4-.2-.2-.3-.3-.4-.5l-.3-.6c-.1-.2-.1-.5-.1-.7v-7c0-.1 0-.1.1-.1h1.7c.1 0 .1 0 .1.1v6.6c0 .1 0 .2.1.4s.1.3.2.4l.3.3c.1.1.3.1.4.1h1.4c.2 0 .3 0 .4-.1l.3-.3c.1-.1.2-.3.2-.4 0-.1.1-.3.1-.4v-6.6c.1-.1.2-.1.3-.1zm-3.1-1.2c.3-.2.6-.4 1-.6.3-.2.7-.4 1-.5.3-.1.6-.2.8-.2.2 0 .4.1.5.2.1.1.2.3.2.4 0 .2 0 .4-.1.5-.1.2-.3.3-.5.4s-.6.3-1.1.4-1.2.2-2 .3h-.4c-.1 0-.1 0-.1-.1v-.1c0-.1.1-.1.1-.1.1-.2.3-.4.6-.6zm10.4 10.8c0 .1 0 .1-.1.1h-1.7c-.1 0-.1 0-.1-.1v-7.7c0-.1 0-.1-.1-.1h-2.2c-.1 0-.1 0-.1-.1v-1.5c0-.1 0-.1.1-.1h6.7c.1 0 .1 0 .1.1v1.5c0 .1 0 .1-.1.1h-2.2c-.1 0-.1 0-.1.1v7.7zm3.5-9.6h1.7c.1 0 .1 0 .1.1v9.5c0 .1 0 .1-.1.1h-1.7c-.1 0-.1 0-.1-.1v-9.5c-.1-.1 0-.1.1-.1zm9.3 8.1v1.5c0 .1 0 .1-.1.1h-4.1c-.8-.1-1.3-.3-1.6-.7-.3-.4-.5-.9-.5-1.7v-7.2c0-.1 0-.1.1-.1h1.7c.1 0 .1 0 .1.1v7.4c0 .3.2.4.5.4h3.7c.1.1.2.1.2.2z"/></g></g></svg>