<svg xmlns="http://www.w3.org/2000/svg" viewBox="0 0 90 50"><path d="M5.7 8.1v30.1h3.9V41H2.1V8.1h3.6zm9.2 33.2c-.5 0-1.1-.1-1.6-.3-.5-.2-1-.5-1.4-.8-.4-.4-.8-.9-1-1.5-.3-.6-.4-1.3-.4-2.2V12.6c0-.8.1-1.6.4-2.2.3-.6.6-1.1 1-1.5.4-.4.9-.7 1.4-.8.5-.2 1.1-.3 1.6-.3h.8c.5 0 1.1.1 1.6.3.5.2 1 .5 1.4.8s.8.9 1 1.5c.3.6.4 1.3.4 2.2v23.9c0 .8-.1 1.6-.4 2.2-.3.6-.6 1.1-1 1.5s-.9.7-1.4.8c-.5.2-1.1.3-1.6.3h-.8zm.3-30.3c-.7 0-1.1.7-1.1 2.2V36c0 .8.1 1.4.3 1.7s.5.5.8.5h.2c.3 0 .6-.2.8-.5s.3-.9.3-1.7V13.2c0-1.5-.4-2.2-1.1-2.2h-.2zm11.2 16.7h4.9V41h-1.8l-.5-1.1c-1 .9-1.9 1.4-2.8 1.4H26c-.5 0-1.1-.1-1.6-.3-.5-.2-1-.5-1.4-.8-.4-.4-.8-.9-1-1.5-.3-.6-.4-1.3-.4-2.2V12.6c0-.8.1-1.6.4-2.2.3-.6.6-1.1 1-1.5.4-.4.9-.7 1.4-.8.5-.1 1.1-.2 1.6-.2h.8c.5 0 1.1.1 1.6.3.5.2 1 .5 1.4.8s.8.9 1 1.5c.3.6.4 1.3.4 2.2v8.8h-3.7v-8.3c0-.8-.1-1.4-.3-1.7-.2-.3-.5-.5-.8-.5h-.2c-.3 0-.6.2-.8.5-.2.3-.3.9-.3 1.7V36c0 .8.1 1.4.3 1.7s.5.5.8.5h.2c.3 0 .6-.2.8-.5s.3-.9.3-1.7v-5.2h-1.2v-3.1zm10.7 13.6c-.5 0-1.1-.1-1.6-.3-.5-.2-1-.5-1.4-.8-.4-.4-.8-.9-1-1.5-.3-.6-.4-1.3-.4-2.2V12.6c0-.8.1-1.6.4-2.2.3-.6.6-1.1 1-1.5.4-.4.9-.7 1.4-.8.5-.1 1-.2 1.6-.2h.8c.5 0 1.1.1 1.6.3.5.2 1 .5 1.4.8s.8.9 1 1.5c.3.6.4 1.3.4 2.2v23.9c0 .8-.1 1.6-.4 2.2-.3.6-.6 1.1-1 1.5s-.9.7-1.4.8c-.5.2-1.1.3-1.6.3h-.8zm.3-30.3c-.7 0-1.1.7-1.1 2.2V36c0 .8.1 1.4.3 1.7s.5.5.8.5h.2c.3 0 .6-.2.8-.5s.3-.9.3-1.7V13.2c0-1.5-.4-2.2-1.1-2.2h-.2zm11.5 30V8.1h5.2c.6 0 1.1.1 1.6.3.5.2 1 .4 1.4.8.4.4.8.9 1 1.4.3.6.4 1.3.4 2.1v23.5c0 .8-.1 1.6-.4 2.1-.3.6-.6 1.1-1 1.4-.4.4-.9.7-1.4.8-.5.2-1.1.3-1.6.3h-5.2zm3.6-29.8v26.6h1.3c.3 0 .6-.1.8-.4.2-.3.3-.9.3-1.7V13.4c0-.8-.1-1.3-.3-1.6-.2-.3-.4-.5-.8-.5h-1.3zm12.3 16.5h4.9V41h-1.8l-.4-1.1c-1 .9-1.9 1.4-2.8 1.4h-.3c-.5 0-1.1-.1-1.6-.3-.5-.2-1-.5-1.4-.8s-.8-.9-1-1.5c-.3-.6-.4-1.3-.4-2.2V12.6c0-.8.1-1.6.4-2.2.3-.6.6-1.1 1-1.5s.9-.7 1.4-.8c.5-.2 1.1-.3 1.6-.3h.8c.5 0 1.1.1 1.6.3.5.2 1 .5 1.4.8s.8.9 1 1.5c.3.6.4 1.3.4 2.2v8.8H66v-8.3c0-.8-.1-1.4-.3-1.7-.2-.3-.5-.5-.8-.5h-.2c-.3 0-.6.2-.8.5-.2.3-.3.9-.3 1.7V36c0 .8.1 1.4.3 1.7.2.3.5.5.8.5h.2c.3 0 .6-.2.8-.5.2-.3.3-.9.3-1.7v-5.2h-1.2v-3.1zm10-16.5v11.9H78V26h-3.2v11.9h4.4V41h-8V8.1H79v3.1h-4.2zm9.1 0v11.9h3.2V26h-3.2v11.9h4.4V41h-8V8.1H88v3.1h-4.1z" fill="#fff"/></svg>