<svg version="1.1" id="Capa_1" xmlns="http://www.w3.org/2000/svg" x="0" y="0" viewBox="0 0 80.2 18" xml:space="preserve"><style>.st0{fill:#fff}.st1{enable-background:new}</style><g id="Grupo_1624" transform="translate(-1182.512 -996)"><g id="Grupo_1624-2" transform="translate(1182.512 996)"><g id="Grupo_1462"><path id="Trazado_3158" class="st0" d="M6.9 18c-.4-.1-.7-.1-1.1-.2C3 17.1.7 14.9.1 12c-.2-1.2-.1-2.4.1-3.6.5-2.1 1.5-4.1 3-5.7.9-1 1.9-1.9 2.9-2.6 0 0 .1 0 .1-.1.1 1.7 1 3.3 2.4 4.4.4-.6.5-1.3.5-2h.1c1.8 1.2 3.3 2.8 4.2 4.7 1 2 1.1 4.4.3 6.5-.9 2.1-2.8 3.7-5 4.1-.3.1-.6.1-.9.1l-.9.2zm.2-12.3c-.4.3-.8.7-1.2 1-1 .9-1.9 2-2.5 3.3-.4.9-.6 1.9-.4 2.9.4 2.3 2.6 3.9 4.9 3.5 1.3-.2 2.4-1 3.1-2.2.6-1.2.7-2.7.1-3.9-1-1.8-2.3-3.4-4-4.6z"/><path id="Trazado_3159" class="st0" d="M7.2 7c.3.3.7.6 1 1 .8.8 1.5 1.8 1.9 2.8.4.9.3 2-.1 2.9-.1.2-.2.3-.3.5v-.6c-.2-.6-.4-1.1-.8-1.6-.5-.7-1.1-1.3-1.8-1.8l-.9.9c-.5.5-.9 1-1.2 1.7-.2.4-.3.9-.3 1.4l-.1-.1c-.6-.9-.7-2-.4-3 .3-.9.7-1.7 1.3-2.4L7 7.2l.2-.2z"/><path id="Trazado_3160" class="st0" d="M7.1 11.5c.7.5 1.2 1.3 1.4 2.2.2.8-.3 1.5-1.1 1.7-.4.1-.8 0-1.1-.2-.5-.3-.7-.9-.6-1.5.1-.6.4-1.1.8-1.6l.6-.6z"/></g></g><g id="Grupo_1625"><g class="st1"><path class="st0" d="M.3 2.1c0-.1 0-.1 0 0L2.9 2c.1 0 .3 0 .4.1.1.1.3.1.4.2.1.1.2.2.3.4 0 .1.1.3.1.5 0 .3 0 .5-.1.6 0 .1-.1.3-.1.3l-.2.2s-.1 0-.1.1c0 0 0 .1.1.1.1.1.2.1.3.2l.1.1c0 .1 0 .1.1.2s0 .1 0 .2v.2c0 .2 0 .4-.1.6 0 .2-.1.4-.2.5-.1.2-.2.3-.4.4s-.4.1-.7.1H.4s-.1 0-.1-.1V2.1zm1 1.8c0 .1 0 .1 0 0l1.3.1c.2 0 .3 0 .4-.1.1-.1.1-.2.1-.4 0-.3-.1-.4-.2-.5s-.2-.1-.3-.1H1.4s-.1 0-.1.1v.9zm0 2.1c0 .1 0 .1 0 0l1.5.1c.1 0 .2 0 .2-.1.1 0 .1-.1.1-.2s.1-.1.1-.2v-.5c0-.1 0 0-.1-.1H1.4s-.1 0-.1.1V6zm4.5-3.6c.1-.2.2-.3.3-.3.1-.1.3-.1.6-.1s.5 0 .6.1c.2 0 .3.2.3.3L9.1 7h-1C8 7 8 7 8 6.9l-.4-1.2s0-.1-.1-.1H5.9s-.1 0-.1.1l-.4 1.2s0 .1-.1.1h-1l1.5-4.6zm1 .6v-.1l-.1.1-.6 1.6h1.2L6.8 3zm5.9 3.2V7s0 .1-.1.1h-2.1c-.4 0-.7-.1-.8-.3-.1-.3-.2-.6-.2-1V2.1s0-.1.1-.1h.9s.1 0 .1.1v3.8c0 .2.1.2.3.2l1.8.1c0-.1 0-.1 0 0zm1.6-3.8c.1-.2.2-.3.3-.3.2-.1.4-.1.7-.1.3 0 .5 0 .6.1.2 0 .3.2.3.3L17.6 7h-.9s-.1 0-.1-.1l-.4-1.2s0-.1-.1-.1h-1.6s-.1 0-.1.1L14 6.9s0 .1-.1.1h-1l1.4-4.6zm1.1.6v-.1l-.1.1-.5 1.6H16L15.4 3zM18 3v-.5c0-.1.1-.2.2-.3s.2-.1.3-.2h.6c.3 0 .5 0 .6.1s.2.2.3.4l.9 3.5h.1V2.1s0-.1.1-.1h.9s.1 0 .1.1v4.1c0 .1 0 .2-.1.3 0 .1-.1.2-.2.3l-.2.2h-1.1c-.1 0-.1-.1-.2-.1s-.1-.1-.1-.2-.1-.1-.1-.2L19.2 3s0-.1-.1-.1v4c0 .1-.1.1-.1.1h-.9s-.1 0-.1-.1V3zm4.6.5c0-.2 0-.4.1-.6 0-.1.1-.2.1-.3 0-.1.1-.1.2-.2.1-.2.3-.3.5-.4H26v.9s0 .1-.1.1h-1.8c-.2 0-.3.1-.4.3-.1.2-.1.3-.1.6v1.8c0 .2.1.3.2.4s.2.2.4.2H26s.1 0 .1.1v.8L26 7h-2.2c-.1 0-.2-.1-.3-.1-.2-.1-.3-.2-.5-.3-.1-.1-.3-.3-.3-.5 0-.1 0-.1-.1-.2V3.5zm4-.4c0-.3.1-.6.3-.8.1-.2.4-.3.7-.3H30c.1 0 .1 0 .1.1v.8s0 .1-.1.1h-2.3s-.1 0-.1.1v1s0 .1.1.1h2.1s.1 0 .1.1v.8s0 .1-.1.1h-2.1s-.1 0-.1.1v1s0 .1.1.1H30s.1 0 .1.1v.8c0-.3-.1-.3-.1-.3h-2.7c-.1 0-.2 0-.3-.1s-.2-.1-.2-.2l-.2-.2c0-.1-.1-.2-.1-.3V3.1zm4-.1v-.5c0-.1.1-.2.2-.3s.2-.1.4-.2h.5c.3 0 .5 0 .6.1s.2.2.3.4l.9 3.5s0 .1.1.1v-4s0-.1.1-.1h.9s.1 0 .1.1v4.1c0 .1 0 .2-.1.3 0 .1-.1.2-.2.3l-.2.2h-1.1c-.1 0-.1-.1-.2-.1s-.1-.1-.1-.2-.1-.1-.1-.2L31.8 3s0-.1-.1-.1v4s0 .1-.1.1h-.9s-.1 0-.1-.1V3zm5.8-.6c.1-.2.2-.3.3-.3.2-.1.4-.1.6-.1.3 0 .5 0 .6.1.2 0 .3.2.3.3L39.7 7h-.9s-.1 0-.1-.1l-.4-1.2s0-.1-.1-.1h-1.6s-.1 0-.1.1L36 6.9V7h-1l1.4-4.6zm1 .6v-.1l-.1.1-.5 1.6H38L37.4 3zm2.4.5c0-.2 0-.4.1-.6 0-.1.1-.2.1-.3s.1-.1.2-.2c.1-.2.3-.3.5-.4h2.5s.1 0 .1.1v.8s0 .1-.1.1h-1.8c-.2 0-.3.1-.4.3-.1.2-.1.3-.1.6v1.8c0 .2.1.3.2.4s.2.2.4.2h1.8s.1 0 .1.1v.8s0 .1-.1.1h-2.2c-.1 0-.2-.1-.3-.1-.2-.1-.3-.2-.5-.3-.2-.5-.3-.7-.4-.9 0-.1 0-.1-.1-.2V3.5zM43.9 2h.9s.1 0 .1.1V7s0 .1-.1.1h-.9s-.1 0-.1-.1l.1-5c-.1 0 0 0 0 0zm1.5 2.5V3.3c0-.2.1-.3.1-.5s.1-.3.2-.4c.1-.1.2-.2.4-.3.1-.1.3-.1.4-.2h2.2c.2.1.3.1.5.2.1.1.3.2.3.3.1.1.1.2.2.4s.1.3.1.5v2.4c0 .2-.1.3-.1.5 0 .1-.1.3-.2.4l-.3.3c-.2.1-.3.2-.5.2h-2.2c-.2 0-.3-.1-.4-.2-.1-.1-.3-.2-.4-.3-.1-.1-.1-.2-.2-.4 0-.1-.1-.3-.1-.5V4.5zm1.8-1.6h-.3c-.2 0-.3.1-.4.2s-.1.3-.1.6v1.6c0 .2 0 .4.1.6.1.1.2.2.4.2h1.4c.2 0 .3-.1.4-.2.1-.1.1-.3.1-.6V3.7c0-.2 0-.4-.1-.6-.1-.1-.2-.2-.4-.2h-.7c-.1 0-.3-.1-.4 0zm3.2.1v-.5c0-.1.1-.2.2-.3s.2-.1.3-.2h.5c.3 0 .5 0 .6.1s.2.2.3.4l1 3.5s0 .1.1.1v-4s0-.1.1-.1h.9s.1 0 .1.1v4.1c0 .1 0 .2-.1.3 0 .1-.1.2-.2.3L54 7h-1.1c-.1 0-.1-.1-.2-.1s-.1-.1-.1-.2-.1-.1-.1-.2l-1-3.5s0-.1-.1-.1v4s0 .1-.1.1h-.9s-.1 0-.1-.1V3zm5.8-.6c.1-.2.2-.3.3-.3.1-.1.3-.1.6-.1s.5 0 .6.1c.2 0 .3.2.3.3L59.4 7h-.9s-.1 0-.1-.1L58 5.7s0-.1-.1-.1h-1.6s-.1 0-.1.1l-.4 1.2s0 .1-.1.1h-1l1.5-4.6zm1 .6v-.1l-.1.1-.5 1.6h1.2L57.2 3zm5.9 3.2V7s0 .1-.1.1h-2.1c-.4 0-.7-.1-.8-.3-.2-.2-.2-.5-.2-.9V2.1s0-.1.1-.1h.9s.1 0 .1.1v3.8c0 .2.1.2.3.2l1.8.1c0-.1 0-.1 0 0z" transform="translate(1198.731 996)"/></g><g class="st1"><path class="st0" d="M.3 15.9V11s0-.1.1-.1h2.4c.2.1.4.1.6.2s.4.2.5.4c.1.2.2.3.3.6s.1.4.1.6v1.7c0 .2 0 .4-.1.6-.1.2-.2.4-.3.5-.1.2-.3.3-.5.4s-.4.1-.6.1l-2.5-.1c0 .1 0 .1 0 0zm1-.9c0 .1 0 .1 0 0l1.3.1c.1 0 .2 0 .2-.1.1 0 .1-.1.2-.2s.1-.1.1-.2.1-.2.1-.2v-1.9c0-.1 0-.2-.1-.2 0-.1-.1-.2-.2-.2s0-.1-.1-.1-.2-.1-.2-.1H1.4s-.1 0-.1.1v3zm3.5-2.9c0-.3.1-.6.3-.8.1-.2.4-.3.7-.3h2.4c.1 0 .1 0 .1.1v.8s0 .1-.1.1H5.9s-.1 0-.1.1v1s0 .1.1.1H8s.1 0 .1.1v.8s0 .1-.1.1H5.9s-.1 0-.1.1v1s0 .1.1.1h2.3s.1 0 .1.1v.8s0 .1-.1.1H5.5c-.1 0-.2 0-.3-.1s-.1-.5-.2-.5l-.2-.2c0-.1-.1-.2-.1-.3v-3.2zm6 0c0-.3.1-.6.3-.8s.4-.3.7-.3h2.4c.1 0 .1 0 .1.1v.8s0 .1-.1.1h-2.3s-.1 0-.1.1v1s0 .1.1.1H14s.1 0 .1.1v.8s0 .1-.1.1h-2.1s-.1 0-.1.1v1s0 .1.1.1h2.3s.1 0 .1.1v.8s0 .1-.1.1h-2.7c-.1 0-.2 0-.3-.1s-.2-.1-.2-.2l-.2-.2c0-.1-.1-.2-.1-.3v-3.5zm4.1-.1v-.5c0-.1.1-.2.2-.3s.2-.1.3-.2c.1 0 .3-.1.5-.1.3 0 .5 0 .6.1s.2.2.3.4l.9 3.5s0 .1.1.1v-4s0-.1.1-.1h.9s.1 0 .1.1v4.1c0 .1 0 .2-.1.3 0 .1-.1.2-.2.3l-.2.2c-.1 0-.2.1-.3.1h-.8c-.1 0-.1-.1-.2-.1s-.1-.1-.1-.2-.1-.1-.1-.2L16 12s0-.1-.1-.1v4s0 .1-.1.1h-.9s-.1 0-.1-.1V12zm4.5.1c0-.3.1-.6.3-.8s.4-.3.7-.3h2.4c.1 0 .1 0 .1.1v.8s0 .1-.1.1h-2.3s-.1 0-.1.1v1s0 .1.1.1h2.1s.1 0 .1.1v.8s0 .1-.1.1h-2.1s-.1 0-.1.1v1s0 .1.1.1h2.3s.1 0 .1.1v.8s0 .1-.1.1h-2.7c-.1 0-.2 0-.3-.1s-.2-.1-.2-.2l-.2-.2c0-.1-.1-.2-.1-.3v-3.5zm4.2-1.1h2.6c.1 0 .3 0 .4.1.1.1.3.1.4.3.2.2.3.6.3 1v.2c0 .4 0 .7-.1.9-.1.1-.1.2-.2.3-.1.1-.2.1-.3.2.1.1.2.3.2.4 0 .1.1.2.1.3l.4 1.2s0 .1.1.1v.1h-1s-.1 0-.1-.1l-.1-.1-.4-1.2c-.1-.3-.2-.4-.4-.4h-.9s-.1 0-.1.1v1.7s0 .1-.1.1h-.9s-.1 0-.1-.1l.2-5.1c-.1 0-.1 0 0 0zm1 .9c-.1 0-.1 0 0 0l-.1 1.2s0 .1.1.1h1.3c.1 0 .1 0 .2-.1l.2-.2c0-.1.1-.2.1-.4v-.4c-.1-.2-.2-.2-.3-.3h-1.5zm6.9-.9c.1 0 .1 0 0 0l.1.8s0 .1-.1.1h-2.1s-.1 0-.1.1c-.1 0-.1.1-.2.1s-.1.1-.1.1c0 .1-.1.1-.1.2v1.8c0 .3.1.5.2.6.1.2.3.2.4.2h1.1c.1 0 .1-.1.2-.1 0 0 .1-.1.1-.2V14s0-.1-.1-.1h-1.1s-.1 0-.1-.1V13s0-.1.1-.1h2.2s.1 0 .1.1v1.6c0 .1 0 .2-.1.4s-.1.3-.2.4l-.4.4c-.3.1-.5.2-.8.2h-1.2c-.2 0-.4-.1-.6-.2s-.3-.2-.4-.4c-.1-.2-.2-.3-.3-.5-.1-.2-.1-.4-.1-.5v-2c0-.2 0-.3.1-.5s.2-.3.3-.5c.1-.1.3-.3.4-.3.1-.1.3-.1.5-.1h2.3zm.9-.7c.2-.1.3-.2.5-.3.2-.1.3-.2.5-.3.2-.1.3-.1.4-.1.1 0 .2 0 .3.1.1.1.1.1.1.2s0 .2-.1.3-.1.2-.3.2c-.1.1-.3.1-.6.2s-.6.1-1 .2H32s-.1 0-.1-.1l.1-.1c.1-.1.2-.2.4-.3zm.2.7h.9s.1 0 .1.1V16s0 .1-.1.1h-.9s-.1 0-.1-.1l.1-5c-.1 0-.1 0 0 0zm2.9.4c.1-.2.2-.3.3-.3.1 0 .4-.1.6-.1.3 0 .5 0 .6.1.2 0 .3.2.3.3l1.4 4.6h-.9s-.1 0-.1-.1l-.4-1.2s0-.1-.1-.1h-1.6s-.1 0-.1.1l-.4 1.2s0 .1-.1.1h-1l1.5-4.6zm1 .6v-.1l-.1.1-.5 1.6h1.2l-.6-1.6zm7.5-1h.9s.1 0 .1.1v3.7c0 .1 0 .2-.1.3 0 .1-.1.2-.1.2-.1.1-.1.2-.2.2-.1.1-.2.1-.2.2-.1 0-.2.1-.3.1-.1 0-.2.1-.3.1h-1.5c-.1 0-.2-.1-.3-.1-.1-.1-.2-.1-.3-.2-.1-.1-.2-.2-.2-.3-.1-.1-.1-.2-.1-.3s-.1-.2-.1-.4V11s0-.1.1-.1h.9s.1 0 .1.1v3.6c0 .1.1.1.1.2s.1.1.2.2c.1 0 .1.1.2.1h.7c.1 0 .2 0 .2-.1.1 0 .1-.1.2-.2 0-.1.1-.1.1-.2v-.2L44 11c-.1 0-.1 0 0 0zm-1.6-.6c.2-.1.3-.2.5-.3.2-.1.3-.2.5-.3s.3-.1.4-.1c.1 0 .2 0 .3.1.1.1.1.1.1.2s0 .2-.1.3-.1.2-.3.2-.3.1-.6.2-.6.1-1 .2H42s-.1 0-.1-.1l.1-.1c.1-.1.3-.2.4-.3zm5.4 5.5c0 .1 0 .1 0 0l-1 .1s-.1 0-.1-.1v-4s0-.1-.1-.1h-1.1s-.1 0-.1-.1v-.8s0-.1.1-.1H49s.1 0 .1.1v.8s0 .1-.1.1h-1.1s-.1 0-.1.1v4zm1.8-4.9h.9s.1 0 .1.1V16s0 .1-.1.1h-.9s-.1 0-.1-.1l.1-5c-.1 0-.1 0 0 0zm4.7 4.2v.8s0 .1-.1.1h-2.1c-.4 0-.7-.1-.8-.3-.2-.2-.2-.5-.2-.9v-3.7s0-.1.1-.1h.8s.1 0 .1.1V15c0 .2.1.2.3.2h1.9c0-.1 0-.1 0 0z" transform="translate(1198.731 996)"/></g></g></g></svg>